{
.appVersion = "3134";
.formatVersion = 3;
axes = (
{
name = Weight;
tag = wght;
}
);
classes = (
{
automatic = 1;

glyphs = (
{
color = 4;
glyphname = A;
kernLeft = A;
kernRight = A;
layers = (
{
anchors = (
{
name = bottom;
pos = (246,0);
},
{
name = ogonek;
pos = (515,0);
},
{
name = top;
pos = (338,641);
}
);
layerId = "E1BF09ED-4302-4AD3-9939-8FDA35DE0FE8";
shapes = (
{
closed = 1;
nodes = (
(83,0,ls),
(96,0,o),
(99,4,o),
(102,18,c),
(38,32,l),
(36,15,l),
(330,604,l),
(327,602,l),
(447,23,l),
(457,34,l),
(395,20,ls),
(384,18,o),
(379,12,o),
(377,0,c),
(515,0,ls),
(528,0,o),
(531,4,o),
(533,18,c),
(460,34,l),
(479,18,l),
(347,653,l),
(347,654,o),
(344,655,o),
(342,655,cs),
(336,655,o),
(334,653,o),
(330,645,cs),
(16,16,l),
(31,30,l),
(-13,20,ls),
(-24,18,o),
(-29,12,o),
(-31,0,c)
);
},
{
closed = 1;
nodes = (
(411,230,l),
(405,250,l),
(147,250,l),
(136,230,l)
);
}
);
width = 569;
},
{
anchors = (
{
name = bottom;
pos = (287,0);
},
{
name = ogonek;
pos = (615,0);
},
{
name = top;
pos = (388,641);
}
);
guides = (
{
angle = 110.927;
pos = (336,56);
}
);
layerId = "7B53E429-1BF0-49C5-9F57-63EEBF39C6CC";
shapes = (
{
closed = 1;
nodes = (
(200,0,l),
(222,29,o),
(230,50,o),
(234,76,c),
(121,106,l),
(124,57,l),
(363,539,l),
(314,539,l),
(410,56,l),
(417,96,l),
(344,69,ls),
(334,65,o),
(325,39,o),
(318,0,c),
(615,0,l),
(636,29,o),
(644,50,o),
(648,76,c),
(557,100,l),
(584,57,l),
(467,648,l),
(448,653,o),
(429,656,o),
(406,656,cs),
(380,656,o),
(317,646,o),
(304,618,cs),
(23,52,l),
(76,103,l),
(-7,69,ls),
(-17,65,o),
(-27,39,o),
(-33,0,c)
);
},
{
closed = 1;
nodes = (
(406,185,l),
(403,275,l),
(188,275,l),
(158,185,l)
);
}
);
width = 673;
},
{
anchors = (
{
name = bottom;
pos = (259,0);
},
{
name = ogonek;
pos = (548,0);
},
{
name = top;
pos = (354,641);
}
);
layerId = "3EF2C2DE-A0EB-47A2-88E7-F2C629C295C3";
shapes = (
{
closed = 1;
nodes = (
(121,0,ls),
(137,10,o),
(142,19,o),
(146,38,c),
(65,56,l),
(64,28,l),
(341,583,l),
(323,582,l),
(435,34,l),
(444,54,l),
(379,36,ls),
(368,33,o),
(362,21,o),
(357,0,c),
(548,0,ls),
(563,10,o),
(567,19,o),
(570,38,c),
(492,55,l),
(513,30,l),
(386,651,l),
(380,654,o),
(372,655,o),
(363,655,cs),
(350,655,o),
(329,651,o),
(321,636,cs),
(18,28,l),
(45,54,l),
(-11,36,ls),
(-22,33,o),
(-28,21,o),
(-32,0,c)
);
},
{
closed = 1;
nodes = (
(409,216,l),
(404,258,l),
(160,258,l),
(143,216,l)
);
}
);
width = 602;
}
);
metricLeft = "=H*.05";
metricRight = "=H*.05";
unicode = 65;
},
{
color = 5;
glyphname = AE;
kernLeft = A;
kernRight = E;
layers = (
{
anchors = (
{
name = bottom;
pos = (510,0);
},
{
name = top;
pos = (611,641);
}
);
layerId = "E1BF09ED-4302-4AD3-9939-8FDA35DE0FE8";
shapes = (
{
closed = 1;
nodes = (
(106,0,l),
(119,0,o),
(123,4,o),
(125,18,c),
(43,32,l),
(38,18,l),
(277,302,l),
(265,296,l),
(474,296,l),
(470,302,l),
(426,23,l),
(440,34,l),
(378,20,ls),
(368,18,o),
(362,12,o),
(360,0,c),
(756,0,l),
(773,108,l),
(775,115,o),
(773,121,o),
(759,121,c),
(717,2,l),
(730,11,l),
(449,34,l),
(457,23,l),
(501,305,l),
(491,298,l),
(681,298,l),
(671,305,l),
(676,245,l),
(688,245,o),
(691,246,o),
(697,261,c),
(712,353,l),
(710,368,o),
(709,369,o),
(696,369,c),
(673,311,l),
(684,316,l),
(494,316,l),
(502,310,l),
(552,625,l),
(540,612,l),
(799,630,l),
(788,639,l),
(797,558,ls),
(799,546,o),
(805,542,o),
(813,542,c),
(829,641,l),
(465,641,l),
(452,641,o),
(449,637,o),
(447,623,c),
(536,608,l),
(531,630,l),
(13,17,l),
(32,33,l),
(-13,20,ls),
(-24,17,o),
(-29,12,o),
(-31,0,c)
);
},
{
closed = 1;
nodes = (
(517,588,l),
(519,609,l),
(471,308,l),
(477,313,l),
(274,313,l),
(278,305,l)
);
}
);
width = 870;
},
{
anchors = (
{
name = bottom;
pos = (491,0);
},
{
name = top;
pos = (593,641);
}
);
layerId = "7B53E429-1BF0-49C5-9F57-63EEBF39C6CC";
shapes = (
{
closed = 1;
nodes = (
(192,0,l),
(213,29,o),
(221,50,o),
(225,76,c),
(111,109,l),
(134,58,l),
(271,238,l),
(224,206,l),
(420,206,l),
(409,235,l),
(383,70,l),
(407,96,l),
(334,69,ls),
(324,65,o),
(314,39,o),
(308,0,c),
(812,0,l),
(841,183,l),
(819,200,o),
(798,205,o),
(774,205,c),
(721,72,l),
(736,94,l),
(554,111,l),
(561,100,l),
(589,276,l),
(578,266,l),
(680,266,l),
(669,275,l),
(679,202,l),
(703,202,o),
(734,207,o),
(762,224,c),
(791,404,l),
(768,421,o),
(738,426,o),
(714,426,c),
(683,356,l),
(696,366,l),
(594,366,l),
(602,356,l),
(631,544,l),
(619,531,l),
(792,549,l),
(781,558,l),
(795,478,ls),
(797,466,o),
(810,458,o),
(857,458,c),
(886,641,l),
(374,641,l),
(354,614,o),
(346,591,o),
(342,565,c),
(478,541,l),
(426,591,l),
(-4,32,l),
(58,103,l),
(-25,69,ls),
(-35,65,o),
(-45,39,o),
(-51,0,c)
);
},
{
closed = 1;
nodes = (
(470,509,l),
(453,509,l),
(416,278,l),
(435,306,l),
(293,306,l),
(292,278,l)
);
}
);
width = 911;
},
{
anchors = (
{
name = bottom;
pos = (493,0);
},
{
name = top;
pos = (595,641);
}
);
layerId = "3EF2C2DE-A0EB-47A2-88E7-F2C629C295C3";
shapes = (
{
closed = 1;
nodes = (
(138,0,l),
(154,12,o),
(159,18,o),
(163,44,c),
(74,67,l),
(75,53,l),
(284,296,l),
(250,280,l),
(437,280,l),
(425,294,l),
(385,38,l),
(407,66,l),
(328,38,ls),
(316,34,o),
(309,17,o),
(307,0,c),
(743,0,l),
(765,146,l),
(758,160,o),
(752,164,o),
(728,164,c),
(677,34,l),
(691,43,l),
(458,66,l),
(465,55,l),
(502,292,l),
(491,282,l),
(668,282,l),
(657,292,l),
(667,223,l),
(687,223,o),
(693,226,o),
(705,239,c),
(727,375,l),
(719,388,o),
(714,391,o),
(693,391,c),
(663,323,l),
(675,332,l),
(501,332,l),
(508,322,l),
(551,593,l),
(538,580,l),
(754,598,l),
(742,607,l),
(758,509,ls),
(760,497,o),
(776,493,o),
(792,493,c),
(815,641,l),
(417,641,l),
(402,630,o),
(397,619,o),
(393,597,c),
(483,572,l),
(477,596,l),
(9,51,l),
(27,65,l),
(-42,39,ls),
(-55,34,o),
(-61,17,o),
(-64,0,c)
);
},
{
closed = 1;
nodes = (
(471,515,l),
(461,521,l),
(429,316,l),
(444,330,l),
(295,330,l),
(299,314,l)
);
}
);
width = 851.38462;
}
);
metricRight = E;
unicode = 198;
},
{
color = 4;
glyphname = B;
kernLeft = H;
kernRight = B;
layers = (
{
anchors = (
{
name = bottom;
pos = (242,0);
},
{
name = top;
pos = (344,641);
}
);
background = {
shapes = (
{
closed = 1;
nodes = (
(258,0,ls),
(375,0,o),
(466,75,o),
(484,186,cs),
(498,275,o),
(435,350,o),
(347,350,c),
(335,346,l),
(417,346,o),
(495,417,o),
(509,503,cs),
(522,587,o),
(466,641,o),
(362,641,cs),
(155,641,ls),
(143,641,o),
(139,637,o),
(137,623,c),
(210,607,l),
(199,618,l),
(105,23,l),
(118,34,l),
(57,20,ls),
(45,17,o),
(40,12,o),
(39,0,c)
);
},
{
closed = 1;
nodes = (
(176,339,l),
(310,339,ls),
(413,339,o),
(461,282,o),
(444,177,cs),
(428,73,o),
(361,18,o),
(254,18,cs),
(213,18,o),
(158,27,o),
(128,38,c),
(136,28,l),
(229,614,l),
(218,605,l),
(260,617,o),
(303,623,o),
(338,623,cs),
(438,623,o),
(486,573,o),
(473,487,cs),
(460,406,o),
(396,357,o),
(302,357,cs),
(179,357,l)
);
}
);
};
layerId = "E1BF09ED-4302-4AD3-9939-8FDA35DE0FE8";
shapes = (
{
closed = 1;
nodes = (
(258,0,ls),
(383,0,o),
(486,93,o),
(486,211,cs),
(486,288,o),
(427,350,o),
(347,350,c),
(335,346,l),
(426,346,o),
(511,435,o),
(511,526,cs),
(511,597,o),
(456,641,o),
(362,641,cs),
(155,641,ls),
(143,641,o),
(139,637,o),
(137,623,c),
(210,607,l),
(199,618,l),
(105,23,l),
(118,34,l),
(57,20,ls),
(45,17,o),
(40,12,o),
(39,0,c)
);
},
{
closed = 1;
nodes = (
(176,339,l),
(310,339,ls),
(399,339,o),
(447,296,o),
(447,216,cs),
(447,97,o),
(380,18,o),
(254,18,cs),
(213,18,o),
(158,27,o),
(128,38,c),
(136,28,l),
(229,614,l),
(218,605,l),
(260,617,o),
(303,623,o),
(338,623,cs),
(427,623,o),
(475,583,o),
(475,513,cs),
(475,419,o),
(406,357,o),
(302,357,cs),
(179,357,l)
);
}
);
width = 555;
},
{
anchors = (
{
name = bottom;
pos = (282,0);
},
{
name = top;
pos = (383,641);
}
);
background = {
shapes = (
{
closed = 1;
nodes = (
(339,0,ls),
(468,0,o),
(559,74,o),
(578,193,cs),
(592,282,o),
(536,351,o),
(435,367,c),
(444,354,l),
(530,373,o),
(591,431,o),
(602,503,cs),
(616,590,o),
(553,641,o),
(434,641,cs),
(120,641,l),
(102,617,o),
(93,594,o),
(88,565,c),
(169,541,l),
(152,566,l),
(74,70,l),
(97,96,l),
(24,69,ls),
(14,65,o),
(5,39,o),
(-1,0,c)
);
},
{
closed = 1;
nodes = (
(259,300,l),
(306,300,ls),
(385,300,o),
(417,264,o),
(405,189,cs),
(395,128,o),
(360,95,o),
(310,95,cs),
(286,95,o),
(262,102,o),
(244,114,c),
(252,100,l),
(322,545,l),
(311,533,l),
(331,542,o),
(354,546,o),
(378,546,cs),
(420,546,o),
(435,524,o),
(428,474,cs),
(419,421,o),
(388,396,o),
(334,396,cs),
(272,396,l)
);
}
);
};
layerId = "7B53E429-1BF0-49C5-9F57-63EEBF39C6CC";
shapes = (
{
closed = 1;
nodes = (
(339,0,ls),
(476,0,o),
(582,94,o),
(582,214,cs),
(582,298,o),
(530,351,o),
(435,367,c),
(444,354,l),
(538,374,o),
(604,444,o),
(604,523,cs),
(604,599,o),
(543,641,o),
(434,641,cs),
(120,641,l),
(103,618,o),
(93,595,o),
(88,565,c),
(169,541,l),
(152,566,l),
(74,70,l),
(97,96,l),
(24,69,ls),
(14,65,o),
(6,43,o),
(-1,0,c)
);
},
{
closed = 1;
nodes = (
(259,300,l),
(306,300,ls),
(372,300,o),
(407,269,o),
(407,211,cs),
(407,143,o),
(367,95,o),
(309,95,cs),
(286,95,o),
(262,102,o),
(244,114,c),
(252,100,l),
(322,545,l),
(311,533,l),
(329,541,o),
(353,546,o),
(376,546,cs),
(417,546,o),
(434,531,o),
(434,492,cs),
(434,432,o),
(397,396,o),
(334,396,cs),
(272,396,l)
);
}
);
width = 610;
},
{
anchors = (
{
name = bottom;
pos = (255,0);
},
{
name = top;
pos = (356,641);
}
);
layerId = "3EF2C2DE-A0EB-47A2-88E7-F2C629C295C3";
shapes = (
{
closed = 1;
nodes = (
(284,0,ls),
(413,0,o),
(517,93,o),
(517,212,cs),
(517,291,o),
(461,350,o),
(375,355,c),
(371,349,l),
(462,355,o),
(541,438,o),
(541,525,cs),
(541,598,o),
(484,641,o),
(385,641,cs),
(143,641,ls),
(130,633,o),
(124,624,o),
(121,603,c),
(197,586,l),
(184,601,l),
(95,38,l),
(111,54,l),
(46,36,ls),
(35,32,o),
(29,22,o),
(26,0,c)
);
},
{
closed = 1;
nodes = (
(203,327,l),
(309,327,ls),
(390,327,o),
(434,287,o),
(434,214,cs),
(434,112,o),
(376,43,o),
(272,43,cs),
(237,43,o),
(192,51,o),
(165,63,c),
(173,51,l),
(259,592,l),
(248,582,l),
(282,592,o),
(319,598,o),
(350,598,cs),
(424,598,o),
(462,566,o),
(462,506,cs),
(462,423,o),
(403,369,o),
(313,369,cs),
(209,369,l)
);
}
);
width = 572.34615;
}
);
metricLeft = H;
metricRight = "=O";
unicode = 66;
},
{
color = 4;
glyphname = C;
kernLeft = O;
kernRight = C;
layers = (
{
anchors = (
{
name = bottom;
pos = (297,0);
},
{
name = top;
pos = (399,641);
}
);
background = {
shapes = (
{
closed = 1;
nodes = (
(360,-12,o),
(440,16,o),
(501,62,c),
(515,173,l),
(516,184,o),
(508,189,o),
(491,189,c),
(463,65,l),
(478,93,l),
(445,46,o),
(374,14,o),
(305,14,cs),
(166,14,o),
(90,142,o),
(119,325,cs),
(148,507,o),
(262,626,o),
(408,626,cs),
(468,626,o),
(527,609,o),
(551,584,c),
(546,599,l),
(536,503,ls),
(535,494,o),
(543,487,o),
(553,487,c),
(589,607,l),
(544,639,o),
(491,655,o),
(434,655,cs),
(264,655,o),
(110,500,o),
(78,298,cs),
(50,118,o),
(137,-12,o),
(288,-12,cs)
);
}
);
};
layerId = "E1BF09ED-4302-4AD3-9939-8FDA35DE0FE8";
shapes = (
{
closed = 1;
nodes = (
(360,-12,o),
(440,16,o),
(501,62,c),
(515,173,l),
(516,184,o),
(508,189,o),
(491,189,c),
(463,65,l),
(478,93,l),
(445,46,o),
(374,14,o),
(305,14,cs),
(186,14,o),
(113,106,o),
(113,256,cs),
(113,476,o),
(233,626,o),
(411,626,cs),
(469,626,o),
(528,608,o),
(551,584,c),
(546,599,l),
(536,503,ls),
(535,495,o),
(543,487,o),
(553,487,c),
(589,607,l),
(545,639,o),
(492,655,o),
(434,655,cs),
(234,655,o),
(73,467,o),
(73,236,cs),
(73,85,o),
(157,-12,o),
(289,-12,cs)
);
}
);
width = 607;
},
{
anchors = (
{
name = bottom;
pos = (318,0);
},
{
name = top;
pos = (419,641);
}
);
background = {
shapes = (
{
closed = 1;
nodes = (
(401,-12,o),
(500,22,o),
(551,74,c),
(568,244,l),
(560,256,o),
(546,259,o),
(496,259,c),
(453,94,l),
(493,157,l),
(456,113,o),
(399,87,o),
(342,87,cs),
(245,87,o),
(200,180,o),
(224,332,cs),
(247,476,o),
(316,556,o),
(415,556,cs),
(470,556,o),
(519,536,o),
(549,500,c),
(526,545,l),
(523,444,ls),
(523,431,o),
(547,423,o),
(588,423,c),
(635,605,l),
(594,637,o),
(528,655,o),
(454,655,cs),
(246,655,o),
(69,502,o),
(36,293,cs),
(7,108,o),
(111,-12,o),
(302,-12,cs)
);
}
);
};
layerId = "7B53E429-1BF0-49C5-9F57-63EEBF39C6CC";
shapes = (
{
closed = 1;
nodes = (
(401,-12,o),
(500,22,o),
(551,74,c),
(568,244,l),
(560,256,o),
(546,259,o),
(496,259,c),
(453,94,l),
(493,157,l),
(457,114,o),
(400,87,o),
(344,87,cs),
(261,87,o),
(218,147,o),
(218,264,cs),
(218,434,o),
(302,556,o),
(419,556,cs),
(471,556,o),
(520,535,o),
(549,500,c),
(526,545,l),
(523,444,ls),
(523,431,o),
(547,423,o),
(588,423,c),
(635,605,l),
(595,637,o),
(529,655,o),
(457,655,cs),
(227,655,o),
(31,464,o),
(31,240,cs),
(31,82,o),
(131,-12,o),
(300,-12,cs)
);
}
);
width = 648;
},
{
anchors = (
{
name = bottom;
pos = (305,0);
},
{
name = top;
pos = (406,641);
}
);
layerId = "3EF2C2DE-A0EB-47A2-88E7-F2C629C295C3";
shapes = (
{
closed = 1;
nodes = (
(374,-12,o),
(460,18,o),
(518,66,c),
(533,196,l),
(531,207,o),
(521,212,o),
(493,212,c),
(460,75,l),
(483,114,l),
(449,68,o),
(383,38,o),
(318,38,cs),
(211,38,o),
(148,119,o),
(148,259,cs),
(148,463,o),
(256,603,o),
(414,603,cs),
(470,603,o),
(526,584,o),
(551,557,c),
(540,582,l),
(532,483,ls),
(532,474,o),
(545,466,o),
(565,466,c),
(604,606,l),
(562,638,o),
(504,655,o),
(442,655,cs),
(232,655,o),
(60,466,o),
(60,237,cs),
(60,84,o),
(149,-12,o),
(293,-12,cs)
);
}
);
width = 621.26923;
}
);
metricLeft = O;
unicode = 67;
},
{
color = 4;
glyphname = D;
kernLeft = H;
kernRight = O;
layers = (
{
anchors = (
{
name = bottom;
pos = (276,0);
},
{
name = center;
pos = (182,321);
},
{
name = top;
pos = (396,641);
}
);
background = {
shapes = (
{
closed = 1;
nodes = (
(269,0,ls),
(452,0,o),
(587,183,o),
(613,345,cs),
(637,499,o),
(569,641,o),
(392,641,cs),
(155,641,ls),
(143,641,o),
(139,637,o),
(137,623,c),
(207,607,l),
(199,619,l),
(105,23,l),
(118,34,l),
(57,20,ls),
(46,18,o),
(40,12,o),
(39,0,c)
);
},
{
closed = 1;
nodes = (
(223,20,o),
(166,25,o),
(128,36,c),
(135,22,l),
(230,619,l),
(218,607,l),
(254,615,o),
(303,623,o),
(367,623,cs),
(532,623,o),
(598,479,o),
(572,314,cs),
(549,167,o),
(436,20,o),
(277,20,cs)
);
}
);
};
guides = (
{
angle = 27.1213;
pos = (598,393);
}
);
layerId = "E1BF09ED-4302-4AD3-9939-8FDA35DE0FE8";
shapes = (
{
closed = 1;
nodes = (
(269,0,ls),
(448,0,o),
(618,196,o),
(618,403,cs),
(618,549,o),
(531,641,o),
(392,641,cs),
(155,641,ls),
(143,641,o),
(139,637,o),
(137,623,c),
(207,607,l),
(199,619,l),
(105,23,l),
(118,34,l),
(57,20,ls),
(45,17,o),
(40,11,o),
(39,0,c)
);
},
{
closed = 1;
nodes = (
(219,20,o),
(154,28,o),
(128,36,c),
(135,22,l),
(230,619,l),
(218,607,l),
(257,616,o),
(317,623,o),
(355,623,cs),
(497,623,o),
(577,536,o),
(577,382,cs),
(577,176,o),
(441,20,o),
(262,20,cs)
);
}
);
width = 659;
},
{
anchors = (
{
name = bottom;
pos = (307,0);
},
{
name = center;
pos = (217,321);
},
{
name = top;
pos = (418,641);
}
);
guides = (
{
angle = 27.1213;
pos = (678,425);
}
);
layerId = "7B53E429-1BF0-49C5-9F57-63EEBF39C6CC";
shapes = (
{
closed = 1;
nodes = (
(329,0,ls),
(511,0,o),
(678,153,o),
(678,405,cs),
(678,552,o),
(590,641,o),
(444,641,cs),
(117,641,l),
(101,616,o),
(92,593,o),
(88,565,c),
(169,541,l),
(152,566,l),
(74,70,l),
(97,96,l),
(24,69,ls),
(14,65,o),
(5,40,o),
(-1,0,c)
);
},
{
closed = 1;
nodes = (
(289,96,o),
(259,104,o),
(245,116,c),
(252,102,l),
(322,544,l),
(298,522,l),
(320,535,o),
(360,545,o),
(390,545,cs),
(457,545,o),
(493,491,o),
(493,368,cs),
(493,199,o),
(415,96,o),
(317,96,cs)
);
}
);
width = 680;
},
{
anchors = (
{
name = bottom;
pos = (286,0);
},
{
name = center;
pos = (194,321);
},
{
name = top;
pos = (403,641);
}
);
layerId = "3EF2C2DE-A0EB-47A2-88E7-F2C629C295C3";
shapes = (
{
closed = 1;
nodes = (
(289,0,ls),
(468,0,o),
(638,182,o),
(638,404,cs),
(638,550,o),
(551,641,o),
(409,641,cs),
(143,641,ls),
(130,633,o),
(124,623,o),
(121,603,c),
(195,586,l),
(184,602,l),
(95,38,l),
(111,54,l),
(46,36,ls),
(35,32,o),
(28,21,o),
(26,0,c)
);
},
{
closed = 1;
nodes = (
(242,45,o),
(188,53,o),
(166,62,c),
(173,48,l),
(260,595,l),
(244,579,l),
(277,590,o),
(331,598,o),
(367,598,cs),
(484,598,o),
(550,522,o),
(550,378,cs),
(550,184,o),
(432,45,o),
(280,45,cs)
);
}
);
width = 665.73077;
}
);
metricLeft = H;
metricRight = O;
unicode = 68;
},
{
color = 4;
glyphname = E;
kernLeft = H;
kernRight = E;
layers = (
{
anchors = (
{
name = "#entry";
pos = (39,0);
},
{
name = bottom;
pos = (252,0);
},
{
name = ogonek;
pos = (444,0);
},
{
name = top;
pos = (354,641);
},
{
name = topleft;
pos = (156,641);
}
);
layerId = "E1BF09ED-4302-4AD3-9939-8FDA35DE0FE8";
shapes = (
{
closed = 1;
nodes = (
(444,0,l),
(461,108,ls),
(462,115,o),
(460,121,o),
(446,121,c),
(405,7,l),
(419,16,l),
(128,34,l),
(135,23,l),
(183,323,l),
(172,314,l),
(405,314,l),
(395,323,l),
(394,253,l),
(402,253,o),
(409,254,o),
(414,264,c),
(434,386,l),
(431,396,o),
(426,397,o),
(417,397,c),
(397,330,l),
(408,336,l),
(175,336,l),
(184,329,l),
(231,625,l),
(218,612,l),
(486,625,l),
(475,634,l),
(485,558,ls),
(487,546,o),
(493,542,o),
(501,542,c),
(517,641,l),
(156,641,l),
(143,641,o),
(139,637,o),
(137,623,c),
(207,607,l),
(199,619,l),
(105,23,l),
(118,34,l),
(57,20,ls),
(46,18,o),
(40,12,o),
(39,0,c)
);
}
);
width = 558;
},
{
anchors = (
{
name = "#entry";
pos = (-1,0);
},
{
name = bottom;
pos = (256,0);
},
{
name = ogonek;
pos = (503,0);
},
{
name = top;
pos = (358,641);
},
{
name = topleft;
pos = (121,641);
}
);
layerId = "7B53E429-1BF0-49C5-9F57-63EEBF39C6CC";
shapes = (
{
closed = 1;
nodes = (
(503,0,l),
(532,183,l),
(509,200,o),
(489,205,o),
(464,205,c),
(412,72,l),
(426,94,l),
(244,111,l),
(252,100,l),
(282,291,l),
(271,281,l),
(383,281,l),
(371,290,l),
(380,212,l),
(401,212,o),
(429,217,o),
(454,234,c),
(483,414,l),
(463,431,o),
(437,436,o),
(415,436,c),
(383,361,l),
(397,371,l),
(285,371,l),
(293,361,l),
(322,544,l),
(310,531,l),
(483,549,l),
(471,558,l),
(485,478,ls),
(487,466,o),
(501,458,o),
(547,458,c),
(576,641,l),
(121,641,l),
(100,614,o),
(92,591,o),
(88,565,c),
(169,541,l),
(152,566,l),
(74,70,l),
(97,96,l),
(24,69,ls),
(14,65,o),
(5,39,o),
(-1,0,c)
);
}
);
width = 602;
},
{
anchors = (
{
name = "#entry";
pos = (26,0);
},
{
name = bottom;
pos = (253,0);
},
{
name = ogonek;
pos = (464,0);
},
{
name = top;
pos = (355,641);
},
{
name = topleft;
pos = (144,641);
}
);
layerId = "3EF2C2DE-A0EB-47A2-88E7-F2C629C295C3";
shapes = (
{
closed = 1;
nodes = (
(464,0,l),
(484,132,ls),
(477,143,o),
(470,148,o),
(452,148,c),
(407,28,l),
(421,41,l),
(165,59,l),
(173,48,l),
(215,312,l),
(204,303,l),
(398,303,l),
(387,312,l),
(390,240,l),
(402,240,o),
(416,242,o),
(427,254,c),
(450,395,l),
(442,408,o),
(430,409,o),
(416,409,c),
(393,340,l),
(404,348,l),
(211,348,l),
(219,340,l),
(260,599,l),
(248,586,l),
(485,600,l),
(474,609,l),
(485,532,ls),
(487,520,o),
(496,515,o),
(516,515,c),
(537,641,l),
(144,641,l),
(129,632,o),
(124,622,o),
(121,603,c),
(195,586,l),
(184,602,l),
(95,38,l),
(111,54,l),
(46,36,ls),
(35,33,o),
(28,21,o),
(26,0,c)
);
}
);
width = 572.38462;
}
);
metricLeft = H;
unicode = 69;
},
{
color = 4;
glyphname = Schwa;
kernLeft = O;
kernRight = O;
layers = (
{
background = {
shapes = (
{
closed = 1;
nodes = (
(290,655,o),
(198,604,o),
(118,509,c),
(129,494,l),
(201,578,o),
(277,623,o),
(350,623,cs),
(483,623,o),
(537,515,o),
(506,318,cs),
(473,110,o),
(392,12,o),
(248,12,cs),
(137,12,o),
(76,112,o),
(103,247,c),
(88,239,l),
(508,248,l),
(511,265,l),
(91,265,ls),
(79,265,o),
(69,246,o),
(64,217,cs),
(45,93,o),
(122,-12,o),
(233,-12,cs),
(400,-12,o),
(512,117,o),
(550,358,cs),
(578,536,o),
(511,655,o),
(382,655,cs)
);
}
);
};
guides = (
{
angle = 45;
pos = (533,358);
}
);
layerId = "E1BF09ED-4302-4AD3-9939-8FDA35DE0FE8";
shapes = (
{
closed = 1;
nodes = (
(290,655,o),
(198,604,o),
(118,509,c),
(129,494,l),
(201,578,o),
(277,623,o),
(350,623,cs),
(459,623,o),
(515,551,o),
(515,417,cs),
(515,209,o),
(437,12,o),
(248,12,cs),
(155,12,o),
(97,83,o),
(97,186,cs),
(97,205,o),
(99,226,o),
(103,247,c),
(88,239,l),
(508,248,l),
(511,265,l),
(91,265,ls),
(71,265,o),
(61,217,o),
(61,180,cs),
(61,73,o),
(133,-12,o),
(233,-12,cs),
(441,-12,o),
(556,209,o),
(556,435,cs),
(556,569,o),
(491,655,o),
(382,655,cs)
);
}
);
width = 595;
},
{
layerId = "7B53E429-1BF0-49C5-9F57-63EEBF39C6CC";
shapes = (
{
closed = 1;
nodes = (
(261,656,o),
(159,609,o),
(71,522,c),
(86,475,l),
(151,520,o),
(213,542,o),
(269,542,cs),
(369,542,o),
(423,477,o),
(423,356,cs),
(423,232,o),
(375,62,o),
(268,62,cs),
(216,62,o),
(190,100,o),
(190,175,cs),
(190,204,o),
(194,239,o),
(202,279,c),
(164,238,l),
(456,244,l),
(469,319,l),
(73,319,ls),
(35,319,o),
(27,275,o),
(27,210,cs),
(27,76,o),
(111,-12,o),
(248,-12,cs),
(449,-12,o),
(612,184,o),
(612,398,cs),
(612,553,o),
(517,656,o),
(366,656,cs)
);
}
);
width = 613;
},
{
layerId = "3EF2C2DE-A0EB-47A2-88E7-F2C629C295C3";
shapes = (
{
closed = 1;
nodes = (
(281,655,o),
(187,606,o),
(104,513,c),
(116,488,l),
(186,558,o),
(257,597,o),
(325,597,cs),
(432,597,o),
(486,527,o),
(486,397,cs),
(486,217,o),
(418,28,o),
(256,28,cs),
(176,28,o),
(128,88,o),
(128,182,cs),
(128,205,o),
(131,230,o),
(136,258,c),
(114,239,l),
(492,247,l),
(499,282,l),
(86,282,ls),
(60,282,o),
(51,237,o),
(51,190,cs),
(51,74,o),
(127,-12,o),
(238,-12,cs),
(445,-12,o),
(575,201,o),
(575,423,cs),
(575,565,o),
(501,655,o),
(379,655,cs)
);
}
);
width = 601;
}
);
metricLeft = O;
metricRight = O;
unicode = 399;
},
{
color = 4;
glyphname = F;
kernLeft = H;
kernRight = F;
layers = (
{
anchors = (
{
name = bottom;
pos = (214,0);
},
{
name = top;
pos = (316,641);
}
);
layerId = "E1BF09ED-4302-4AD3-9939-8FDA35DE0FE8";
shapes = (
{
closed = 1;
nodes = (
(190,0,ls),
(203,0,o),
(207,4,o),
(209,18,c),
(127,34,l),
(135,22,l),
(181,313,l),
(170,304,l),
(398,304,l),
(389,313,l),
(388,243,l),
(396,243,o),
(403,244,o),
(408,254,c),
(427,376,l),
(425,386,o),
(420,387,o),
(410,387,c),
(391,320,l),
(402,326,l),
(174,326,l),
(182,319,l),
(230,625,l),
(218,612,l),
(486,625,l),
(475,634,l),
(485,558,ls),
(487,546,o),
(493,542,o),
(501,542,c),
(517,641,l),
(156,641,ls),
(143,641,o),
(139,637,o),
(137,623,c),
(207,607,l),
(199,619,l),
(105,23,l),
(118,34,l),
(57,20,ls),
(46,18,o),
(40,12,o),
(39,0,c)
);
}
);
width = 502;
},
{
anchors = (
{
name = bottom;
pos = (231,0);
},
{
name = top;
pos = (333,641);
}
);
layerId = "7B53E429-1BF0-49C5-9F57-63EEBF39C6CC";
shapes = (
{
closed = 1;
nodes = (
(294,0,l),
(314,29,o),
(321,50,o),
(325,76,c),
(225,100,l),
(248,75,l),
(280,281,l),
(269,271,l),
(390,271,l),
(379,280,l),
(388,202,l),
(409,202,o),
(437,207,o),
(462,224,c),
(490,404,l),
(471,421,o),
(445,426,o),
(423,426,c),
(391,351,l),
(405,361,l),
(284,361,l),
(291,351,l),
(322,542,l),
(309,529,l),
(482,547,l),
(471,556,l),
(485,478,ls),
(487,466,o),
(501,458,o),
(547,458,c),
(576,641,l),
(121,641,l),
(100,614,o),
(92,591,o),
(88,565,c),
(169,541,l),
(152,566,l),
(74,70,l),
(97,96,l),
(24,69,ls),
(14,65,o),
(5,39,o),
(-1,0,c)
);
}
);
width = 534;
},
{
anchors = (
{
name = bottom;
pos = (219,0);
},
{
name = top;
pos = (321,641);
}
);
layerId = "3EF2C2DE-A0EB-47A2-88E7-F2C629C295C3";
shapes = (
{
closed = 1;
nodes = (
(224,0,ls),
(239,10,o),
(244,19,o),
(246,38,c),
(159,55,l),
(171,39,l),
(213,302,l),
(202,293,l),
(395,293,l),
(386,302,l),
(388,230,l),
(400,230,o),
(414,232,o),
(425,244,c),
(447,385,l),
(440,398,o),
(428,399,o),
(414,399,c),
(391,330,l),
(403,338,l),
(210,338,l),
(218,330,l),
(260,598,l),
(247,585,l),
(485,600,l),
(474,609,l),
(485,532,ls),
(487,520,o),
(496,515,o),
(516,515,c),
(537,641,l),
(144,641,ls),
(129,632,o),
(124,622,o),
(121,603,c),
(195,586,l),
(184,602,l),
(95,38,l),
(111,54,l),
(46,36,ls),
(35,33,o),
(28,21,o),
(26,0,c)
);
}
);
width = 514;
}
);
metricLeft = H;
metricRight = "=H*.7";
unicode = 70;
},
{
color = 4;
glyphname = G;
kernLeft = O;
kernRight = G;
layers = (
{
anchors = (
{
name = bottom;
pos = (299,0);
},
{
name = top;
pos = (401,641);
}
);
layerId = "E1BF09ED-4302-4AD3-9939-8FDA35DE0FE8";
shapes = (
{
closed = 1;
nodes = (
(114,475,o),
(238,626,o),
(410,626,cs),
(469,626,o),
(529,608,o),
(552,584,c),
(547,599,l),
(537,503,ls),
(536,495,o),
(545,487,o),
(554,487,c),
(590,607,l),
(546,639,o),
(494,655,o),
(435,655,cs),
(238,655,o),
(74,467,o),
(74,242,cs),
(74,83,o),
(157,-12,o),
(294,-12,cs),
(362,-12,o),
(433,12,o),
(500,58,c),
(531,256,l),
(518,245,l),
(560,259,ls),
(572,263,o),
(576,267,o),
(578,279,c),
(445,279,ls),
(432,279,o),
(428,275,o),
(426,261,c),
(509,245,l),
(501,257,l),
(470,64,l),
(474,78,l),
(427,35,o),
(374,14,o),
(313,14,cs),
(187,14,o),
(114,106,o),
(114,265,cs)
);
}
);
width = 627;
},
{
anchors = (
{
name = bottom;
pos = (310,0);
},
{
name = top;
pos = (412,641);
}
);
background = {
shapes = (
{
closed = 1;
nodes = (
(383,-12,o),
(476,14,o),
(548,57,c),
(582,271,l),
(544,223,l),
(612,250,ls),
(622,254,o),
(632,279,o),
(638,319,c),
(364,319,l),
(345,291,o),
(338,272,o),
(333,243,c),
(429,219,l),
(416,265,l),
(382,53,l),
(431,125,l),
(409,100,o),
(377,87,o),
(338,87,cs),
(255,87,o),
(212,139,o),
(212,242,cs),
(212,389,o),
(270,556,o),
(401,556,cs),
(455,556,o),
(510,536,o),
(525,511,c),
(517,531,l),
(513,448,ls),
(513,433,o),
(539,423,o),
(579,423,c),
(627,605,l),
(584,635,o),
(506,655,o),
(430,655,cs),
(208,655,o),
(31,456,o),
(31,234,cs),
(31,82,o),
(130,-12,o),
(297,-12,cs)
);
},
{
closed = 0;
nodes = (
(918,264,ls),
(918,434,o),
(1002,556,o),
(1119,556,cs),
(1171,556,o),
(1220,535,o),
(1249,500,c),
(1226,545,l),
(1223,444,ls),
(1223,431,o),
(1247,423,o),
(1288,423,c),
(1335,605,l),
(1295,637,o),
(1229,655,o),
(1157,655,cs),
(927,655,o),
(731,464,o),
(731,240,cs)
);
}
);
};
layerId = "7B53E429-1BF0-49C5-9F57-63EEBF39C6CC";
shapes = (
{
closed = 1;
nodes = (
(218,435,o),
(302,556,o),
(421,556,cs),
(472,556,o),
(520,535,o),
(549,500,c),
(526,545,l),
(523,444,ls),
(523,431,o),
(547,423,o),
(588,423,c),
(635,605,l),
(596,637,o),
(530,655,o),
(458,655,cs),
(228,655,o),
(31,464,o),
(31,241,cs),
(31,83,o),
(131,-12,o),
(297,-12,cs),
(382,-12,o),
(475,14,o),
(548,57,c),
(582,271,l),
(544,223,l),
(612,250,ls),
(623,254,o),
(631,277,o),
(638,319,c),
(364,319,l),
(346,292,o),
(338,274,o),
(333,243,c),
(429,219,l),
(416,265,l),
(382,53,l),
(431,125,l),
(409,100,o),
(377,87,o),
(338,87,cs),
(259,87,o),
(218,147,o),
(218,264,cs)
);
}
);
width = 650;
},
{
anchors = (
{
name = bottom;
pos = (303,0);
},
{
name = top;
pos = (405,641);
}
);
layerId = "3EF2C2DE-A0EB-47A2-88E7-F2C629C295C3";
shapes = (
{
closed = 1;
nodes = (
(149,462,o),
(260,603,o),
(414,603,cs),
(471,603,o),
(527,584,o),
(552,557,c),
(541,582,l),
(533,483,ls),
(533,474,o),
(547,466,o),
(566,466,c),
(605,606,l),
(563,638,o),
(506,655,o),
(444,655,cs),
(236,655,o),
(61,466,o),
(61,242,cs),
(61,83,o),
(149,-12,o),
(296,-12,cs),
(370,-12,o),
(447,13,o),
(516,58,c),
(548,260,l),
(528,238,l),
(578,256,ls),
(589,260,o),
(595,270,o),
(598,292,c),
(420,292,ls),
(405,283,o),
(400,275,o),
(397,256,c),
(484,236,l),
(474,260,l),
(442,60,l),
(461,93,l),
(422,56,o),
(376,38,o),
(322,38,cs),
(211,38,o),
(149,119,o),
(149,265,cs)
);
}
);
width = 635.5;
}
);
metricLeft = O;
metricRight = "=H*.8";
unicode = 71;
},
{
color = 4;
glyphname = H;
kernLeft = H;
kernRight = H;
layers = (
{
anchors = (
{
name = bottom;
pos = (312,0);
},
{
name = center;
pos = (387,475);
},
{
name = top;
pos = (413,641);
},
{
name = topleft;
pos = (155,641);
}
);
layerId = "E1BF09ED-4302-4AD3-9939-8FDA35DE0FE8";
shapes = (
{
closed = 1;
nodes = (
(181,0,ls),
(194,0,o),
(197,4,o),
(200,18,c),
(127,34,l),
(135,22,l),
(182,316,l),
(176,314,l),
(549,314,l),
(543,316,l),
(497,23,l),
(511,34,l),
(449,20,ls),
(438,18,o),
(433,12,o),
(431,0,c),
(573,0,ls),
(586,0,o),
(590,4,o),
(592,18,c),
(519,34,l),
(527,22,l),
(622,619,l),
(611,607,l),
(673,621,ls),
(683,623,o),
(689,629,o),
(691,641,c),
(548,641,ls),
(535,641,o),
(532,637,o),
(530,623,c),
(602,607,l),
(591,618,l),
(546,334,l),
(552,336,l),
(179,336,l),
(184,334,l),
(230,619,l),
(218,607,l),
(280,621,ls),
(291,623,o),
(296,629,o),
(298,641,c),
(156,641,ls),
(143,641,o),
(139,637,o),
(137,623,c),
(210,607,l),
(199,618,l),
(105,23,l),
(118,34,l),
(57,20,ls),
(46,17,o),
(40,12,o),
(39,0,c)
);
}
);
width = 698;
},
{
anchors = (
{
name = bottom;
pos = (323,0);
},
{
name = center;
pos = (398,472);
},
{
name = top;
pos = (425,641);
},
{
name = topleft;
pos = (121,641);
}
);
layerId = "7B53E429-1BF0-49C5-9F57-63EEBF39C6CC";
shapes = (
{
closed = 1;
nodes = (
(282,0,l),
(302,29,o),
(309,50,o),
(313,76,c),
(222,100,l),
(248,75,l),
(284,304,l),
(269,281,l),
(465,281,l),
(458,304,l),
(421,70,l),
(444,96,l),
(371,69,ls),
(361,65,o),
(352,39,o),
(346,0,c),
(636,0,l),
(657,29,o),
(665,50,o),
(669,76,c),
(578,100,l),
(595,75,l),
(673,571,l),
(649,545,l),
(733,572,ls),
(743,575,o),
(752,602,o),
(759,641,c),
(466,641,l),
(447,614,o),
(439,591,o),
(435,565,c),
(516,541,l),
(499,566,l),
(465,347,l),
(480,371,l),
(283,371,l),
(291,347,l),
(326,571,l),
(293,545,l),
(377,572,ls),
(386,575,o),
(396,602,o),
(402,641,c),
(121,641,l),
(100,614,o),
(92,591,o),
(88,565,c),
(169,541,l),
(152,566,l),
(74,70,l),
(97,96,l),
(24,69,ls),
(14,65,o),
(5,39,o),
(-1,0,c)
);
}
);
width = 727;
},
{
anchors = (
{
name = bottom;
pos = (316,0);
},
{
name = center;
pos = (391,474);
},
{
name = top;
pos = (417,641);
},
{
name = topleft;
pos = (144,641);
}
);
layerId = "3EF2C2DE-A0EB-47A2-88E7-F2C629C295C3";
shapes = (
{
closed = 1;
nodes = (
(214,0,ls),
(229,10,o),
(233,19,o),
(236,38,c),
(158,55,l),
(171,39,l),
(215,312,l),
(206,303,l),
(522,303,l),
(515,312,l),
(472,38,l),
(489,54,l),
(424,36,ls),
(413,33,o),
(407,21,o),
(403,0,c),
(593,0,ls),
(609,10,o),
(614,19,o),
(617,38,c),
(539,55,l),
(549,39,l),
(638,604,l),
(623,587,l),
(693,605,ls),
(703,608,o),
(709,620,o),
(713,641,c),
(521,641,ls),
(507,632,o),
(502,622,o),
(499,603,c),
(574,586,l),
(562,601,l),
(520,338,l),
(529,348,l),
(213,348,l),
(219,338,l),
(261,604,l),
(242,587,l),
(312,605,ls),
(322,608,o),
(329,620,o),
(332,641,c),
(144,641,ls),
(129,632,o),
(124,622,o),
(121,603,c),
(197,586,l),
(184,601,l),
(95,38,l),
(111,54,l),
(46,36,ls),
(35,32,o),
(28,21,o),
(26,0,c)
);
}
);
width = 707.57692;
}
);
unicode = 72;
},
{
color = 4;
glyphname = I;
kernLeft = H;
kernRight = H;
layers = (
{
anchors = (
{
name = bottom;
pos = (116,0);
},
{
name = ogonek;
pos = (181,0);
},
{
name = top;
pos = (217,641);
},
{
name = topleft;
pos = (156,641);
}
);
layerId = "E1BF09ED-4302-4AD3-9939-8FDA35DE0FE8";
shapes = (
{
closed = 1;
nodes = (
(181,0,l),
(194,0,o),
(197,4,o),
(200,18,c),
(127,34,l),
(135,22,l),
(230,619,l),
(218,607,l),
(280,621,ls),
(291,623,o),
(296,629,o),
(298,641,c),
(156,641,l),
(143,641,o),
(139,637,o),
(137,623,c),
(210,607,l),
(199,618,l),
(105,23,l),
(118,34,l),
(57,20,ls),
(46,18,o),
(40,12,o),
(39,0,c)
);
}
);
width = 305;
},
{
anchors = (
{
name = bottom;
pos = (146,0);
},
{
name = ogonek;
pos = (282,0);
},
{
name = top;
pos = (247,641);
},
{
name = topleft;
pos = (121,641);
}
);
layerId = "7B53E429-1BF0-49C5-9F57-63EEBF39C6CC";
shapes = (
{
closed = 1;
nodes = (
(282,0,l),
(302,29,o),
(309,50,o),
(313,76,c),
(222,100,l),
(248,75,l),
(326,571,l),
(293,545,l),
(377,572,ls),
(386,575,o),
(396,602,o),
(402,641,c),
(121,641,l),
(100,614,o),
(92,591,o),
(88,565,c),
(169,541,l),
(152,566,l),
(74,70,l),
(97,96,l),
(24,69,ls),
(14,65,o),
(5,39,o),
(-1,0,c)
);
}
);
width = 370;
},
{
anchors = (
{
name = bottom;
pos = (126,0);
},
{
name = ogonek;
pos = (214,0);
},
{
name = top;
pos = (227,641);
},
{
name = topleft;
pos = (144,641);
}
);
layerId = "3EF2C2DE-A0EB-47A2-88E7-F2C629C295C3";
shapes = (
{
closed = 1;
nodes = (
(214,0,l),
(229,10,o),
(233,19,o),
(236,38,c),
(158,55,l),
(171,39,l),
(261,604,l),
(242,587,l),
(312,605,ls),
(322,608,o),
(329,620,o),
(332,641,c),
(144,641,l),
(129,632,o),
(124,622,o),
(121,603,c),
(197,586,l),
(184,601,l),
(95,38,l),
(111,54,l),
(46,36,ls),
(35,33,o),
(28,21,o),
(26,0,c)
);
}
);
width = 326.11538;
}
);
metricLeft = H;
metricRight = H;
unicode = 73;
},
{
color = 4;
glyphname = J;
kernLeft = J;
kernRight = J;
layers = (
{
anchors = (
{
name = bottom;
pos = (73,0);
},
{
name = top;
pos = (174,641);
}
);
background = {
shapes = (
{
closed = 1;
nodes = (
(92,-184,o),
(149,-33,o),
(149,169,cs),
(149,618,l),
(139,607,l),
(203,621,ls),
(214,623,o),
(219,629,o),
(219,641,c),
(66,641,ls),
(52,641,o),
(49,637,o),
(49,623,c),
(130,607,l),
(116,618,l),
(116,67,ls),
(116,-64,o),
(79,-149,o),
(-37,-149,cs),
(-53,-149,l),
(-55,-152,o),
(-56,-155,o),
(-56,-159,cs),
(-56,-174,o),
(-36,-184,o),
(-13,-184,cs)
);
}
);
};
layerId = "E1BF09ED-4302-4AD3-9939-8FDA35DE0FE8";
shapes = (
{
closed = 1;
nodes = (
(25,-184,o),
(98,-50,o),
(132,169,cs),
(202,618,l),
(192,607,l),
(253,621,ls),
(265,624,o),
(270,629,o),
(271,641,c),
(129,641,ls),
(116,641,o),
(113,637,o),
(110,623,c),
(183,607,l),
(172,618,l),
(85,67,ls),
(60,-90,o),
(5,-149,o),
(-108,-149,c),
(-110,-153,o),
(-111,-158,o),
(-111,-162,cs),
(-111,-177,o),
(-102,-184,o),
(-81,-184,cs)
);
}
);
width = 249;
},
{
anchors = (
{
name = bottom;
pos = (144,0);
},
{
name = top;
pos = (246,641);
}
);
layerId = "7B53E429-1BF0-49C5-9F57-63EEBF39C6CC";
shapes = (
{
closed = 1;
nodes = (
(73,-193,o),
(225,21,o),
(264,265,cs),
(313,574,l),
(279,545,l),
(363,572,ls),
(372,575,o),
(382,602,o),
(388,641,c),
(107,641,l),
(89,616,o),
(79,594,o),
(74,565,c),
(155,541,l),
(140,574,l),
(64,94,ls),
(47,-11,o),
(12,-40,o),
(-102,-40,c),
(-115,-62,o),
(-128,-99,o),
(-128,-121,cs),
(-128,-167,o),
(-107,-193,o),
(-61,-193,cs)
);
}
);
width = 342;
},
{
anchors = (
{
name = bottom;
pos = (96,0);
},
{
name = top;
pos = (197,641);
}
);
layerId = "3EF2C2DE-A0EB-47A2-88E7-F2C629C295C3";
shapes = (
{
closed = 1;
nodes = (
(40,-187,o),
(139,-27,o),
(176,200,cs),
(238,604,l),
(220,587,l),
(289,605,ls),
(300,608,o),
(306,620,o),
(309,641,c),
(122,641,ls),
(105,640,o),
(102,623,o),
(98,603,c),
(174,586,l),
(161,604,l),
(78,76,ls),
(56,-64,o),
(7,-113,o),
(-106,-113,c),
(-112,-124,o),
(-116,-138,o),
(-116,-149,cs),
(-116,-174,o),
(-104,-187,o),
(-74,-187,cs)
);
}
);
width = 279.5;
}
);
metricRight = U;
unicode = 74;
},
{
color = 4;
glyphname = K;
kernLeft = H;
kernRight = K;
layers = (
{
anchors = (
{
name = bottom;
pos = (262,0);
},
{
name = top;
pos = (363,641);
}
);
guides = (
{
angle = -89.0715;
pos = (435,10);
}
);
layerId = "E1BF09ED-4302-4AD3-9939-8FDA35DE0FE8";
shapes = (
{
closed = 1;
nodes = (
(481,-10,o),
(491,0,o),
(492,10,c),
(394,47,o),
(284,213,o),
(218,332,c),
(215,317,l),
(522,625,l),
(496,607,l),
(564,621,ls),
(574,623,o),
(580,629,o),
(582,641,c),
(430,641,ls),
(417,641,o),
(414,637,o),
(412,623,c),
(491,607,l),
(492,620,l),
(195,322,l),
(294,156,o),
(396,-10,o),
(466,-10,cs)
);
},
{
closed = 1;
nodes = (
(181,0,ls),
(194,0,o),
(197,4,o),
(200,18,c),
(127,34,l),
(135,22,l),
(230,619,l),
(218,607,l),
(280,621,ls),
(291,623,o),
(296,629,o),
(298,641,c),
(156,641,ls),
(143,641,o),
(139,637,o),
(137,623,c),
(210,607,l),
(199,618,l),
(105,23,l),
(118,34,l),
(57,20,ls),
(46,18,o),
(40,12,o),
(39,0,c)
);
}
);
width = 533;
},
{
anchors = (
{
name = bottom;
pos = (278,0);
},
{
name = top;
pos = (379,641);
}
);
guides = (
{
angle = 230.005;
pos = (659,589);
},
{
angle = -89.0715;
pos = (535,33);
}
);
layerId = "7B53E429-1BF0-49C5-9F57-63EEBF39C6CC";
shapes = (
{
closed = 1;
nodes = (
(537,-12,o),
(579,3,o),
(623,33,c),
(563,100,o),
(489,235,o),
(436,373,c),
(394,305,l),
(647,589,l),
(571,540,l),
(671,568,ls),
(691,574,o),
(703,596,o),
(710,641,c),
(474,641,l),
(457,617,o),
(448,595,o),
(443,565,c),
(534,541,l),
(525,584,l),
(287,317,l),
(393,10,o),
(407,-12,o),
(497,-12,cs)
);
},
{
closed = 1;
nodes = (
(282,0,l),
(302,29,o),
(309,50,o),
(313,76,c),
(222,100,l),
(248,75,l),
(326,571,l),
(293,545,l),
(377,572,ls),
(386,575,o),
(396,603,o),
(402,641,c),
(121,641,l),
(100,614,o),
(92,591,o),
(88,565,c),
(169,541,l),
(152,566,l),
(74,70,l),
(97,96,l),
(24,69,ls),
(14,65,o),
(5,39,o),
(-1,0,c)
);
}
);
width = 656;
},
{
anchors = (
{
name = bottom;
pos = (266,0);
},
{
name = top;
pos = (367,641);
}
);
layerId = "3EF2C2DE-A0EB-47A2-88E7-F2C629C295C3";
shapes = (
{
closed = 1;
nodes = (
(500,-11,o),
(519,1,o),
(535,18,c),
(449,64,o),
(351,220,o),
(289,345,c),
(273,313,l),
(562,613,l),
(520,585,l),
(599,604,ls),
(612,607,o),
(620,618,o),
(623,641,c),
(444,641,ls),
(430,633,o),
(425,624,o),
(422,603,c),
(505,586,l),
(503,608,l),
(225,320,l),
(326,109,o),
(400,-11,o),
(476,-11,cs)
);
},
{
closed = 1;
nodes = (
(214,0,ls),
(229,10,o),
(233,19,o),
(236,38,c),
(158,55,l),
(171,39,l),
(261,604,l),
(242,587,l),
(312,605,ls),
(322,608,o),
(329,620,o),
(332,641,c),
(144,641,ls),
(129,632,o),
(124,622,o),
(121,603,c),
(197,586,l),
(184,601,l),
(95,38,l),
(111,54,l),
(46,36,ls),
(35,33,o),
(28,21,o),
(26,0,c)
);
}
);
width = 573;
}
);
metricLeft = H;
metricRight = "=H*.1";
unicode = 75;
},
{
color = 4;
glyphname = L;
kernLeft = H;
kernRight = L;
layers = (
{
anchors = (
{
name = bottom;
pos = (254,0);
},
{
name = center;
pos = (168,321);
},
{
name = top;
pos = (219,641);
},
{
name = topright;
pos = (338,443);
}
);
layerId = "E1BF09ED-4302-4AD3-9939-8FDA35DE0FE8";
shapes = (
{
closed = 1;
nodes = (
(435,0,l),
(452,108,ls),
(453,115,o),
(446,121,o),
(433,121,c),
(401,7,l),
(414,16,l),
(128,34,l),
(135,23,l),
(230,619,l),
(218,607,l),
(280,621,ls),
(291,623,o),
(296,629,o),
(298,641,c),
(156,641,ls),
(143,641,o),
(139,637,o),
(137,623,c),
(210,607,l),
(199,618,l),
(105,23,l),
(118,34,l),
(57,20,ls),
(46,18,o),
(40,12,o),
(39,0,c)
);
}
);
width = 521;
},
{
anchors = (
{
name = bottom;
pos = (262,0);
},
{
name = center;
pos = (199,321);
},
{
name = top;
pos = (250,641);
},
{
name = topright;
pos = (408,443);
}
);
layerId = "7B53E429-1BF0-49C5-9F57-63EEBF39C6CC";
shapes = (
{
closed = 1;
nodes = (
(493,0,l),
(522,183,l),
(500,200,o),
(479,205,o),
(455,205,c),
(402,72,l),
(417,94,l),
(244,112,l),
(252,101,l),
(326,571,l),
(303,545,l),
(387,572,ls),
(397,575,o),
(406,602,o),
(413,641,c),
(121,641,l),
(100,614,o),
(92,591,o),
(88,565,c),
(169,541,l),
(152,566,l),
(74,70,l),
(97,96,l),
(24,69,ls),
(14,65,o),
(5,39,o),
(-1,0,c)
);
}
);
width = 582;
},
{
anchors = (
{
name = bottom;
pos = (257,0);
},
{
name = center;
pos = (178,321);
},
{
name = top;
pos = (229,641);
},
{
name = topright;
pos = (361,443);
}
);
layerId = "3EF2C2DE-A0EB-47A2-88E7-F2C629C295C3";
shapes = (
{
closed = 1;
nodes = (
(455,0,l),
(475,132,ls),
(468,143,o),
(457,148,o),
(440,148,c),
(401,28,l),
(415,41,l),
(165,59,l),
(173,48,l),
(261,604,l),
(246,587,l),
(315,605,ls),
(326,608,o),
(332,620,o),
(335,641,c),
(144,641,ls),
(129,632,o),
(124,622,o),
(121,603,c),
(197,586,l),
(184,601,l),
(95,38,l),
(111,54,l),
(46,36,ls),
(35,33,o),
(28,21,o),
(26,0,c)
);
}
);
width = 541.11538;
}
);
metricLeft = H;
unicode = 76;
},
{
color = 4;
glyphname = M;
kernLeft = M;
kernRight = M;
layers = (
{
anchors = (
{
name = bottom;
pos = (383,0);
},
{
name = top;
pos = (485,641);
}
);
layerId = "E1BF09ED-4302-4AD3-9939-8FDA35DE0FE8";
shapes = (
{
closed = 1;
nodes = (
(382,-3,o),
(386,0,o),
(393,14,cs),
(713,636,l),
(700,636,l),
(648,11,l),
(656,34,l),
(588,20,ls),
(578,18,o),
(572,12,o),
(570,0,c),
(729,0,ls),
(742,0,o),
(746,4,o),
(748,18,c),
(674,32,l),
(679,15,l),
(731,634,l),
(715,608,l),
(780,621,ls),
(791,623,o),
(796,629,o),
(798,641,c),
(695,641,l),
(387,41,l),
(399,41,l),
(284,641,l),
(197,641,ls),
(184,641,o),
(181,637,o),
(179,623,c),
(245,609,l),
(245,634,l),
(93,14,l),
(101,30,l),
(45,20,ls),
(34,18,o),
(29,12,o),
(27,0,c),
(159,0,ls),
(172,0,o),
(175,4,o),
(178,18,c),
(110,31,l),
(113,18,l),
(263,634,l),
(254,634,l),
(376,-1,l),
(377,-3,o),
(378,-3,o),
(379,-3,cs)
);
}
);
width = 842;
},
{
anchors = (
{
name = bottom;
pos = (385,0);
},
{
name = top;
pos = (487,641);
}
);
layerId = "7B53E429-1BF0-49C5-9F57-63EEBF39C6CC";
shapes = (
{
closed = 1;
nodes = (
(394,-3,o),
(423,6,o),
(430,23,cs),
(675,564,l),
(635,564,l),
(593,53,l),
(626,97,l),
(547,70,ls),
(538,67,o),
(528,40,o),
(522,1,c),
(798,1,l),
(818,28,o),
(826,51,o),
(831,77,c),
(754,101,l),
(765,57,l),
(809,589,l),
(768,545,l),
(856,572,ls),
(866,575,o),
(876,602,o),
(882,641,c),
(612,641,l),
(415,204,l),
(485,204,l),
(414,641,l),
(159,641,l),
(139,614,o),
(131,591,o),
(126,565,c),
(207,541,l),
(206,584,l),
(76,53,l),
(103,97,l),
(20,70,ls),
(10,67,o),
(0,40,o),
(-6,1,c),
(232,1,l),
(252,28,o),
(259,51,o),
(263,77,c),
(168,101,l),
(169,57,l),
(290,554,l),
(255,554,l),
(345,4,l),
(349,0,o),
(368,-3,o),
(377,-3,cs)
);
}
);
width = 883;
},
{
anchors = (
{
name = bottom;
pos = (385,0);
},
{
name = top;
pos = (487,641);
}
);
layerId = "3EF2C2DE-A0EB-47A2-88E7-F2C629C295C3";
shapes = (
{
closed = 1;
nodes = (
(387,-3,o),
(399,2,o),
(406,17,cs),
(702,613,l),
(680,613,l),
(631,24,l),
(647,54,l),
(576,36,ls),
(566,34,o),
(559,21,o),
(556,0,c),
(752,0,ls),
(768,9,o),
(773,19,o),
(776,38,c),
(701,54,l),
(708,28,l),
(757,620,l),
(733,588,l),
(806,605,ls),
(816,608,o),
(823,620,o),
(826,641,c),
(669,641,l),
(397,93,l),
(428,93,l),
(328,641,l),
(186,641,ls),
(171,632,o),
(166,622,o),
(163,603,c),
(234,587,l),
(234,618,l),
(89,26,l),
(103,52,l),
(38,36,ls),
(27,34,o),
(20,21,o),
(17,0,c),
(184,0,ls),
(199,9,o),
(203,19,o),
(207,38,c),
(131,54,l),
(133,30,l),
(273,608,l),
(255,608,l),
(367,1,l),
(369,-2,o),
(376,-3,o),
(379,-3,cs)
);
}
);
width = 857;
}
);
metricLeft = "=H*.85";
metricRight = "=H*.85";
unicode = 77;
},
{
color = 4;
glyphname = N;
kernLeft = H;
kernRight = N;
layers = (
{
anchors = (
{
name = bottom;
pos = (319,0);
},
{
name = top;
pos = (421,641);
}
);
layerId = "E1BF09ED-4302-4AD3-9939-8FDA35DE0FE8";
shapes = (
{
closed = 1;
nodes = (
(534,-1,o),
(538,7,o),
(539,12,cs),
(636,623,l),
(628,611,l),
(685,621,ls),
(695,623,o),
(701,629,o),
(703,641,c),
(571,641,ls),
(558,641,o),
(554,637,o),
(552,623,c),
(620,610,l),
(617,623,l),
(524,38,l),
(535,38,l),
(239,641,l),
(156,641,ls),
(143,641,o),
(139,637,o),
(137,623,c),
(204,609,l),
(201,617,l),
(105,12,l),
(113,30,l),
(57,20,ls),
(46,18,o),
(40,12,o),
(39,0,c),
(171,0,ls),
(184,0,o),
(187,4,o),
(189,18,c),
(122,31,l),
(125,17,l),
(220,618,l),
(213,617,l),
(516,1,l),
(518,0,o),
(520,-1,o),
(525,-1,cs)
);
}
);
width = 688;
},
{
anchors = (
{
name = bottom;
pos = (335,0);
},
{
name = top;
pos = (437,641);
}
);
layerId = "7B53E429-1BF0-49C5-9F57-63EEBF39C6CC";
shapes = (
{
closed = 1;
nodes = (
(531,-3,o),
(588,6,o),
(593,37,cs),
(681,589,l),
(652,545,l),
(740,572,ls),
(750,575,o),
(760,602,o),
(766,641,c),
(519,641,l),
(499,614,o),
(492,591,o),
(488,565,c),
(587,541,l),
(587,584,l),
(516,137,l),
(574,158,l),
(308,641,l),
(119,641,l),
(100,614,o),
(92,591,o),
(88,565,c),
(187,541,l),
(169,584,l),
(85,52,l),
(112,96,l),
(24,69,ls),
(15,66,o),
(5,39,o),
(-1,0,c),
(246,0,l),
(265,27,o),
(272,50,o),
(277,76,c),
(177,100,l),
(179,57,l),
(239,439,l),
(218,422,l),
(450,3,l),
(465,-1,o),
(490,-3,o),
(517,-3,cs)
);
}
);
width = 724;
},
{
anchors = (
{
name = bottom;
pos = (323,0);
},
{
name = top;
pos = (425,641);
}
);
layerId = "3EF2C2DE-A0EB-47A2-88E7-F2C629C295C3";
shapes = (
{
closed = 1;
nodes = (
(533,-2,o),
(554,7,o),
(556,20,cs),
(650,612,l),
(636,590,l),
(703,605,ls),
(713,608,o),
(721,620,o),
(723,641,c),
(554,641,ls),
(538,632,o),
(534,622,o),
(531,603,c),
(609,588,l),
(607,611,l),
(521,70,l),
(547,77,l),
(261,641,l),
(144,641,ls),
(129,632,o),
(124,622,o),
(121,603,c),
(199,587,l),
(190,606,l),
(98,25,l),
(113,51,l),
(46,36,ls),
(36,33,o),
(28,21,o),
(26,0,c),
(195,0,ls),
(210,9,o),
(215,19,o),
(217,38,c),
(140,53,l),
(142,30,l),
(226,560,l),
(215,554,l),
(495,2,l),
(501,0,o),
(510,-2,o),
(522,-2,cs)
);
}
);
width = 700;
}
);
metricLeft = H;
metricRight = "=H*.7";
unicode = 78;
},
{
color = 4;
glyphname = Eng;
kernLeft = H;
kernRight = J;
layers = (
{
guides = (
{
angle = 80.9792;
pos = (588,318);
},
{
angle = 260.967;
pos = (571,331);
}
);
layerId = "E1BF09ED-4302-4AD3-9939-8FDA35DE0FE8";
shapes = (
{
closed = 1;
nodes = (
(535,32,l),
(235,641,l),
(156,641,ls),
(143,641,o),
(139,637,o),
(137,623,c),
(204,609,l),
(201,617,l),
(105,12,l),
(113,30,l),
(57,20,ls),
(46,18,o),
(40,12,o),
(39,0,c),
(171,0,ls),
(184,0,o),
(187,4,o),
(189,18,c),
(122,31,l),
(125,17,l),
(220,618,l),
(213,617,l),
(522,-10,l)
);
},
{
closed = 1;
nodes = (
(430,-184,o),
(519,-116,o),
(544,38,cs),
(636,623,l),
(628,611,l),
(685,621,ls),
(695,623,o),
(701,629,o),
(703,641,c),
(571,641,ls),
(558,641,o),
(554,637,o),
(552,623,c),
(620,610,l),
(617,623,l),
(524,38,ls),
(502,-104,o),
(450,-149,o),
(324,-149,c),
(322,-153,o),
(321,-158,o),
(321,-162,cs),
(321,-177,o),
(330,-184,o),
(351,-184,cs)
);
}
);
width = 681;
},
{
guides = (
{
angle = 80.9421;
pos = (637,313);
},
{
angle = 260.9747;
pos = (552,361);
}
);
layerId = "7B53E429-1BF0-49C5-9F57-63EEBF39C6CC";
shapes = (
{
closed = 1;
nodes = (
(604,158,l),
(308,641,l),
(119,641,l),
(100,614,o),
(92,591,o),
(88,565,c),
(187,541,l),
(169,584,l),
(85,52,l),
(112,96,l),
(24,69,ls),
(15,66,o),
(5,39,o),
(-1,0,c),
(246,0,l),
(265,27,o),
(272,50,o),
(277,76,c),
(177,100,l),
(179,57,l),
(239,439,l),
(218,422,l),
(480,3,l)
);
},
{
closed = 1;
nodes = (
(429,-193,o),
(577,-62,o),
(609,137,cs),
(681,589,l),
(652,545,l),
(740,572,ls),
(750,575,o),
(760,602,o),
(766,641,c),
(519,641,l),
(499,614,o),
(492,591,o),
(488,565,c),
(587,541,l),
(587,584,l),
(516,137,ls),
(494,-8,o),
(437,-40,o),
(263,-40,c),
(250,-62,o),
(237,-99,o),
(237,-121,cs),
(237,-167,o),
(258,-193,o),
(304,-193,cs)
);
}
);
width = 720;
},
{
layerId = "3EF2C2DE-A0EB-47A2-88E7-F2C629C295C3";
shapes = (
{
closed = 1;
nodes = (
(557,73,l),
(259,641,l),
(144,641,ls),
(129,632,o),
(124,622,o),
(121,603,c),
(199,587,l),
(190,606,l),
(98,25,l),
(113,51,l),
(46,36,ls),
(36,33,o),
(28,21,o),
(26,0,c),
(195,0,ls),
(210,9,o),
(215,19,o),
(217,38,c),
(140,53,l),
(142,30,l),
(226,560,l),
(215,554,l),
(509,-6,l)
);
},
{
closed = 1;
nodes = (
(430,-187,o),
(539,-99,o),
(565,70,cs),
(650,612,l),
(636,590,l),
(703,605,ls),
(713,608,o),
(721,620,o),
(723,641,c),
(554,641,ls),
(538,632,o),
(534,622,o),
(531,603,c),
(609,588,l),
(607,611,l),
(521,70,ls),
(499,-73,o),
(446,-113,o),
(304,-113,c),
(299,-124,o),
(294,-138,o),
(294,-149,cs),
(294,-174,o),
(307,-187,o),
(336,-187,cs)
);
}
);
width = 694;
}
);
metricLeft = N;
metricRight = J;
unicode = 330;
},
{
color = 4;
glyphname = O;
kernLeft = O;
kernRight = O;
layers = (
{
anchors = (
{
name = bottom;
pos = (289,0);
},
{
name = center;
pos = (340,321);
},
{
name = ogonek;
pos = (345,0);
},
{
name = top;
pos = (391,641);
},
{
name = topleft;
pos = (331,641);
},
{
name = topright;
pos = (483,641);
}
);
background = {
shapes = (
{
closed = 1;
nodes = (
(444,-12,o),
(595,152,o),
(626,348,cs),
(629,369,o),
(631,390,o),
(631,410,cs),
(631,552,o),
(550,655,o),
(415,655,cs),
(255,655,o),
(95,501,o),
(62,297,cs),
(59,275,o),
(57,254,o),
(57,234,cs),
(57,91,o),
(137,-12,o),
(273,-12,cs)
);
},
{
closed = 1;
nodes = (
(171,16,o),
(98,101,o),
(98,249,cs),
(98,276,o),
(100,304,o),
(105,335,cs),
(132,510,o),
(259,626,o),
(380,626,cs),
(514,626,o),
(589,540,o),
(589,392,cs),
(589,366,o),
(587,338,o),
(582,308,cs),
(556,142,o),
(438,16,o),
(305,16,cs)
);
}
);
};
guides = (
{
angle = 45;
pos = (563,328);
}
);
layerId = "E1BF09ED-4302-4AD3-9939-8FDA35DE0FE8";
shapes = (
{
closed = 1;
nodes = (
(452,-12,o),
(607,206,o),
(607,415,cs),
(607,554,o),
(533,655,o),
(410,655,cs),
(231,655,o),
(72,440,o),
(72,229,cs),
(72,89,o),
(145,-12,o),
(270,-12,cs)
);
},
{
closed = 1;
nodes = (
(179,16,o),
(113,99,o),
(113,243,cs),
(113,433,o),
(219,626,o),
(377,626,cs),
(497,626,o),
(566,542,o),
(566,397,cs),
(566,206,o),
(457,16,o),
(300,16,cs)
);
}
);
width = 647;
},
{
anchors = (
{
name = bottom;
pos = (278,0);
},
{
name = center;
pos = (329,321);
},
{
name = ogonek;
pos = (341,0);
},
{
name = top;
pos = (380,641);
},
{
name = topleft;
pos = (310,641);
},
{
name = topright;
pos = (487,641);
}
);
background = {
shapes = (
{
closed = 1;
nodes = (
(448,-12,o),
(613,141,o),
(646,345,cs),
(675,529,o),
(578,655,o),
(406,655,cs),
(218,655,o),
(52,501,o),
(20,298,cs),
(-9,114,o),
(87,-12,o),
(260,-12,cs)
);
},
{
closed = 1;
nodes = (
(221,87,o),
(184,184,o),
(208,333,cs),
(230,472,o),
(288,556,o),
(366,556,cs),
(445,556,o),
(481,459,o),
(458,310,cs),
(436,171,o),
(377,87,o),
(300,87,cs)
);
}
);
};
layerId = "7B53E429-1BF0-49C5-9F57-63EEBF39C6CC";
shapes = (
{
closed = 1;
nodes = (
(459,-12,o),
(628,191,o),
(628,413,cs),
(628,559,o),
(542,655,o),
(401,655,cs),
(200,655,o),
(30,453,o),
(30,230,cs),
(30,85,o),
(116,-12,o),
(257,-12,cs)
);
},
{
closed = 1;
nodes = (
(245,87,o),
(215,146,o),
(215,243,cs),
(215,377,o),
(262,556,o),
(362,556,cs),
(414,556,o),
(443,495,o),
(443,399,cs),
(443,261,o),
(393,87,o),
(296,87,cs)
);
}
);
width = 627;
},
{
anchors = (
{
name = bottom;
pos = (285,0);
},
{
name = center;
pos = (336,321);
},
{
name = ogonek;
pos = (344,0);
},
{
name = top;
pos = (387,641);
},
{
name = topleft;
pos = (324,641);
},
{
name = topright;
pos = (484,641);
}
);
layerId = "3EF2C2DE-A0EB-47A2-88E7-F2C629C295C3";
shapes = (
{
closed = 1;
nodes = (
(454,-12,o),
(614,202,o),
(614,414,cs),
(614,556,o),
(536,655,o),
(407,655,cs),
(221,655,o),
(59,444,o),
(59,229,cs),
(59,88,o),
(135,-12,o),
(266,-12,cs)
);
},
{
closed = 1;
nodes = (
(200,39,o),
(146,114,o),
(146,243,cs),
(146,415,o),
(233,603,o),
(373,603,cs),
(470,603,o),
(526,527,o),
(526,398,cs),
(526,224,o),
(436,39,o),
(299,39,cs)
);
}
);
width = 640.30769;
}
);
unicode = 79;
},
{
color = 4;
glyphname = P;
kernLeft = H;
kernRight = P;
layers = (
{
anchors = (
{
name = bottom;
pos = (220,0);
},
{
name = top;
pos = (321,641);
}
);
background = {
shapes = (
{
closed = 1;
nodes = (
(168,285,l),
(190,277,o),
(229,273,o),
(259,273,cs),
(405,273,o),
(502,376,o),
(517,475,cs),
(531,561,o),
(485,641,o),
(358,641,cs),
(156,641,ls),
(144,641,o),
(140,637,o),
(138,623,c),
(208,607,l),
(200,619,l),
(105,23,l),
(119,34,l),
(56,20,ls),
(45,18,o),
(39,12,o),
(38,0,c),
(189,0,ls),
(202,0,o),
(206,4,o),
(208,18,c),
(128,34,l),
(136,22,l),
(231,621,l),
(220,609,l),
(244,615,o),
(291,623,o),
(339,623,cs),
(438,623,o),
(493,561,o),
(476,457,cs),
(463,374,o),
(396,293,o),
(281,293,cs),
(236,293,o),
(190,298,o),
(172,307,c)
);
}
);
};
layerId = "E1BF09ED-4302-4AD3-9939-8FDA35DE0FE8";
shapes = (
{
closed = 1;
nodes = (
(168,285,l),
(188,278,o),
(231,273,o),
(265,273,cs),
(406,273,o),
(519,375,o),
(519,502,cs),
(519,588,o),
(458,641,o),
(358,641,cs),
(156,641,ls),
(144,641,o),
(140,637,o),
(138,623,c),
(208,607,l),
(200,619,l),
(105,23,l),
(119,34,l),
(56,20,ls),
(44,17,o),
(39,11,o),
(38,0,c),
(189,0,ls),
(202,0,o),
(206,4,o),
(208,18,c),
(128,34,l),
(136,22,l),
(231,621,l),
(220,609,l),
(252,617,o),
(301,623,o),
(333,623,cs),
(428,623,o),
(479,577,o),
(479,490,cs),
(479,373,o),
(393,290,o),
(272,290,cs),
(230,290,o),
(185,297,o),
(172,302,c)
);
}
);
width = 527;
},
{
anchors = (
{
name = bottom;
pos = (271,0);
},
{
name = top;
pos = (363,641);
}
);
background = {
shapes = (
{
closed = 1;
nodes = (
(247,242,l),
(281,229,o),
(315,223,o),
(346,223,cs),
(471,223,o),
(579,320,o),
(600,449,cs),
(618,566,o),
(553,641,o),
(435,641,cs),
(120,641,l),
(102,617,o),
(93,594,o),
(88,565,c),
(169,541,l),
(152,566,l),
(74,70,l),
(97,96,l),
(24,69,ls),
(14,65,o),
(5,39,o),
(-1,0,c),
(292,0,l),
(309,25,o),
(317,46,o),
(322,76,c),
(222,100,l),
(245,57,l),
(323,549,l),
(298,531,l),
(327,538,o),
(342,541,o),
(356,541,cs),
(410,541,o),
(430,510,o),
(419,442,cs),
(407,368,o),
(373,327,o),
(323,327,cs),
(304,327,o),
(280,333,o),
(266,340,c)
);
}
);
};
layerId = "7B53E429-1BF0-49C5-9F57-63EEBF39C6CC";
shapes = (
{
closed = 1;
nodes = (
(247,242,l),
(280,230,o),
(314,223,o),
(346,223,cs),
(494,223,o),
(603,334,o),
(603,483,cs),
(603,582,o),
(541,641,o),
(435,641,cs),
(120,641,l),
(103,618,o),
(93,595,o),
(88,565,c),
(169,541,l),
(152,566,l),
(74,70,l),
(97,96,l),
(24,69,ls),
(15,65,o),
(4,37,o),
(-1,0,c),
(292,0,l),
(309,24,o),
(317,45,o),
(322,76,c),
(222,100,l),
(245,57,l),
(323,549,l),
(298,531,l),
(330,539,o),
(343,541,o),
(356,541,cs),
(402,541,o),
(422,519,o),
(422,470,cs),
(422,386,o),
(381,327,o),
(323,327,cs),
(305,327,o),
(281,333,o),
(266,340,c)
);
}
);
width = 618;
},
{
anchors = (
{
name = bottom;
pos = (236,0);
},
{
name = top;
pos = (334,641);
}
);
layerId = "3EF2C2DE-A0EB-47A2-88E7-F2C629C295C3";
shapes = (
{
closed = 1;
nodes = (
(194,271,l),
(218,263,o),
(258,257,o),
(291,257,cs),
(434,257,o),
(546,362,o),
(546,496,cs),
(546,586,o),
(485,641,o),
(383,641,cs),
(144,641,ls),
(131,633,o),
(125,624,o),
(122,603,c),
(196,586,l),
(185,602,l),
(95,38,l),
(112,54,l),
(45,36,ls),
(34,32,o),
(27,20,o),
(26,0,c),
(223,0,ls),
(237,8,o),
(242,17,o),
(245,38,c),
(159,55,l),
(172,34,l),
(261,598,l),
(245,584,l),
(277,592,o),
(314,596,o),
(341,596,cs),
(419,596,o),
(461,557,o),
(461,483,cs),
(461,377,o),
(389,302,o),
(288,302,cs),
(254,302,o),
(216,309,o),
(203,314,c)
);
}
);
width = 557;
}
);
metricLeft = H;
unicode = 80;
},
{
color = 4;
glyphname = Thorn;
kernLeft = H;
kernRight = P;
layers = (
{
layerId = "E1BF09ED-4302-4AD3-9939-8FDA35DE0FE8";
shapes = (
{
closed = 1;
nodes = (
(198,479,l),
(230,487,o),
(279,493,o),
(311,493,cs),
(406,493,o),
(457,447,o),
(457,360,cs),
(457,243,o),
(371,160,o),
(250,160,cs),
(208,160,o),
(163,167,o),
(150,172,c),
(146,155,l),
(166,148,o),
(209,143,o),
(243,143,cs),
(384,143,o),
(497,245,o),
(497,372,cs),
(497,458,o),
(436,511,o),
(336,511,cs),
(202,511,l)
);
},
{
ref = I;
}
);
width = 526;
},
{
layerId = "7B53E429-1BF0-49C5-9F57-63EEBF39C6CC";
shapes = (
{
closed = 1;
nodes = (
(273,424,l),
(305,432,o),
(318,434,o),
(331,434,cs),
(377,434,o),
(397,412,o),
(397,363,cs),
(397,279,o),
(356,220,o),
(298,220,cs),
(280,220,o),
(256,226,o),
(241,233,c),
(222,135,l),
(255,123,o),
(289,116,o),
(321,116,cs),
(469,116,o),
(578,227,o),
(578,376,cs),
(578,475,o),
(516,534,o),
(410,534,cs),
(290,534,l)
);
},
{
ref = I;
}
);
width = 610;
},
{
layerId = "3EF2C2DE-A0EB-47A2-88E7-F2C629C295C3";
shapes = (
{
closed = 1;
nodes = (
(215,463,l),
(247,471,o),
(284,475,o),
(311,475,cs),
(390,475,o),
(431,437,o),
(431,363,cs),
(431,256,o),
(360,182,o),
(259,182,cs),
(224,182,o),
(186,188,o),
(173,194,c),
(164,150,l),
(188,142,o),
(228,136,o),
(261,136,cs),
(405,136,o),
(516,240,o),
(516,376,cs),
(516,465,o),
(455,521,o),
(353,521,cs),
(224,521,l)
);
},
{
alignment = -1;
ref = I;
}
);
width = 546.15385;
}
);
metricLeft = H;
metricRight = P;
unicode = 222;
},
{
color = 4;
glyphname = Q;
kernLeft = O;
kernRight = Q;
layers = (
{
layerId = "E1BF09ED-4302-4AD3-9939-8FDA35DE0FE8";
shapes = (
{
closed = 1;
nodes = (
(514,-166,o),
(536,-151,o),
(551,-121,c),
(465,-121,o),
(342,-61,o),
(282,10,c),
(272,-7,l),
(335,-98,o),
(427,-166,o),
(488,-166,cs)
);
},
{
ref = O;
}
);
width = 647;
},
{
layerId = "7B53E429-1BF0-49C5-9F57-63EEBF39C6CC";
shapes = (
{
closed = 1;
nodes = (
(481,-207,o),
(543,-157,o),
(579,-73,c),
(489,-73,o),
(376,-12,o),
(267,64,c),
(217,14,l),
(314,-163,o),
(377,-207,o),
(427,-207,cs)
);
},
{
ref = O;
}
);
width = 627;
},
{
layerId = "3EF2C2DE-A0EB-47A2-88E7-F2C629C295C3";
shapes = (
{
closed = 1;
nodes = (
(511,-181,o),
(551,-153,o),
(572,-106,c),
(486,-106,o),
(377,-49,o),
(280,27,c),
(255,2,l),
(356,-126,o),
(422,-181,o),
(475,-181,cs)
);
},
{
alignment = -1;
ref = O;
}
);
width = 647.92308;
}
);
metricLeft = O;
unicode = 81;
},
{
color = 4;
glyphname = R;
kernLeft = H;
kernRight = R;
layers = (
{
anchors = (
{
name = bottom;
pos = (276,0);
},
{
name = top;
pos = (332,641);
}
);
background = {
shapes = (
{
closed = 1;
nodes = (
(189,0,ls),
(202,0,o),
(206,4,o),
(208,18,c),
(128,34,l),
(136,22,l),
(181,307,l),
(172,307,l),
(194,299,o),
(232,295,o),
(263,295,cs),
(403,295,o),
(495,391,o),
(510,485,cs),
(522,565,o),
(479,641,o),
(358,641,cs),
(156,641,ls),
(144,641,o),
(140,637,o),
(138,623,c),
(208,607,l),
(200,619,l),
(105,23,l),
(119,34,l),
(56,20,ls),
(45,18,o),
(39,12,o),
(38,0,c)
);
},
{
closed = 1;
nodes = (
(231,621,l),
(220,609,l),
(244,615,o),
(291,623,o),
(339,623,cs),
(433,623,o),
(484,565,o),
(469,468,cs),
(457,391,o),
(393,315,o),
(285,315,cs),
(240,315,o),
(193,320,o),
(175,329,c),
(182,315,l)
);
},
{
closed = 1;
nodes = (
(513,-10,o),
(523,2,o),
(525,11,c),
(475,32,o),
(391,157,o),
(322,313,c),
(301,303,l),
(362,140,o),
(460,-10,o),
(498,-10,cs)
);
}
);
};
guides = (
{
angle = 101.5442;
pos = (440,11);
}
);
layerId = "E1BF09ED-4302-4AD3-9939-8FDA35DE0FE8";
shapes = (
{
closed = 1;
nodes = (
(517,-10,o),
(530,2,o),
(535,11,c),
(448,47,o),
(352,198,o),
(326,313,c),
(301,303,l),
(347,140,o),
(445,-10,o),
(498,-10,cs)
);
},
{
closed = 1;
nodes = (
(168,309,l),
(188,302,o),
(231,297,o),
(265,297,cs),
(400,297,o),
(509,388,o),
(509,502,cs),
(509,588,o),
(452,641,o),
(358,641,cs),
(156,641,ls),
(144,641,o),
(140,637,o),
(138,623,c),
(208,607,l),
(200,619,l),
(105,23,l),
(119,34,l),
(56,20,ls),
(44,17,o),
(39,11,o),
(38,0,c),
(189,0,ls),
(202,0,o),
(206,4,o),
(208,18,c),
(128,34,l),
(136,22,l),
(231,621,l),
(220,609,l),
(252,617,o),
(301,623,o),
(333,623,cs),
(421,623,o),
(469,577,o),
(469,490,cs),
(469,387,o),
(387,314,o),
(272,314,cs),
(230,314,o),
(185,321,o),
(172,326,c)
);
}
);
width = 590;
},
{
anchors = (
{
name = bottom;
pos = (283,0);
},
{
name = top;
pos = (350,641);
}
);
background = {
shapes = (
{
closed = 1;
nodes = (
(282,0,l),
(300,25,o),
(308,46,o),
(313,76,c),
(213,100,l),
(245,57,l),
(277,262,l),
(250,262,l),
(284,249,o),
(318,243,o),
(350,243,cs),
(474,243,o),
(582,336,o),
(601,459,cs),
(619,570,o),
(553,641,o),
(435,641,cs),
(120,641,l),
(102,617,o),
(93,594,o),
(88,565,c),
(169,541,l),
(152,566,l),
(74,70,l),
(97,96,l),
(24,69,ls),
(14,65,o),
(5,39,o),
(-1,0,c)
);
},
{
closed = 1;
nodes = (
(323,549,l),
(298,531,l),
(327,538,o),
(342,541,o),
(356,541,cs),
(410,541,o),
(431,514,o),
(421,452,cs),
(410,384,o),
(376,347,o),
(326,347,cs),
(307,347,o),
(283,353,o),
(269,360,c),
(289,335,l)
);
},
{
closed = 1;
nodes = (
(521,-12,o),
(569,5,o),
(615,33,c),
(554,93,o),
(502,207,o),
(473,337,c),
(330,293,l),
(352,28,o),
(398,-12,o),
(485,-12,cs)
);
}
);
};
guides = (
{
angle = 101.5442;
pos = (582,459);
}
);
layerId = "7B53E429-1BF0-49C5-9F57-63EEBF39C6CC";
shapes = (
{
closed = 1;
nodes = (
(521,-12,o),
(569,5,o),
(615,33,c),
(554,93,o),
(502,207,o),
(473,337,c),
(330,293,l),
(352,28,o),
(398,-12,o),
(485,-12,cs)
);
},
{
closed = 1;
nodes = (
(247,262,l),
(280,250,o),
(314,243,o),
(346,243,cs),
(494,243,o),
(603,345,o),
(603,483,cs),
(603,582,o),
(541,641,o),
(435,641,cs),
(120,641,l),
(103,618,o),
(93,595,o),
(88,565,c),
(169,541,l),
(152,566,l),
(74,70,l),
(97,96,l),
(24,69,ls),
(15,65,o),
(4,37,o),
(-1,0,c),
(292,0,l),
(309,24,o),
(317,45,o),
(322,76,c),
(222,100,l),
(245,57,l),
(323,549,l),
(298,531,l),
(330,539,o),
(343,541,o),
(356,541,cs),
(402,541,o),
(422,519,o),
(422,470,cs),
(422,398,o),
(381,347,o),
(323,347,cs),
(305,347,o),
(281,353,o),
(266,360,c)
);
}
);
width = 655;
},
{
anchors = (
{
name = bottom;
pos = (284,0);
},
{
name = top;
pos = (338,641);
}
);
layerId = "3EF2C2DE-A0EB-47A2-88E7-F2C629C295C3";
shapes = (
{
closed = 1;
nodes = (
(522,-11,o),
(547,3,o),
(561,18,c),
(483,62,o),
(401,201,o),
(374,321,c),
(311,300,l),
(349,104,o),
(430,-11,o),
(494,-11,cs)
);
},
{
closed = 1;
nodes = (
(194,294,l),
(218,285,o),
(258,280,o),
(291,280,cs),
(431,280,o),
(540,374,o),
(540,496,cs),
(540,586,o),
(480,641,o),
(383,641,cs),
(144,641,ls),
(131,633,o),
(125,624,o),
(122,603,c),
(196,586,l),
(185,602,l),
(95,38,l),
(112,54,l),
(45,36,ls),
(34,32,o),
(27,20,o),
(26,0,c),
(223,0,ls),
(237,8,o),
(242,17,o),
(245,38,c),
(159,55,l),
(172,34,l),
(261,598,l),
(245,584,l),
(277,592,o),
(314,596,o),
(341,596,cs),
(416,596,o),
(454,557,o),
(454,483,cs),
(454,391,o),
(385,325,o),
(288,325,cs),
(254,325,o),
(216,332,o),
(203,337,c)
);
}
);
width = 611;
}
);
metricLeft = H;
metricRight = "=H*.3";
unicode = 82;
},
{
color = 4;
glyphname = S;
kernLeft = S;
kernRight = S;
layers = (
{
anchors = (
{
name = bottom;
pos = (193,0);
},
{
name = top;
pos = (294,641);
}
);
background = {
shapes = (
{
closed = 1;
nodes = (
(298,-12,o),
(384,62,o),
(401,169,cs),
(414,248,o),
(381,294,o),
(274,347,cs),
(161,403,o),
(131,441,o),
(142,512,cs),
(154,587,o),
(212,637,o),
(289,637,cs),
(338,637,o),
(389,617,o),
(414,588,c),
(407,611,l),
(400,519,ls),
(399,511,o),
(406,504,o),
(415,504,c),
(445,614,l),
(389,642,o),
(340,655,o),
(298,655,cs),
(201,655,o),
(127,592,o),
(112,497,cs),
(99,418,o),
(132,373,o),
(240,318,cs),
(347,264,o),
(376,227,o),
(365,156,cs),
(351,69,o),
(281,7,o),
(199,7,cs),
(148,7,o),
(79,30,o),
(45,58,c),
(52,17,l),
(70,159,l),
(68,161,o),
(62,162,o),
(59,162,cs),
(52,162,o),
(49,158,o),
(44,147,c),
(17,35,l),
(71,7,o),
(143,-12,o),
(190,-12,cs)
);
}
);
};
guides = (
{
angle = 22.0679;
pos = (386,176);
}
);
layerId = "E1BF09ED-4302-4AD3-9939-8FDA35DE0FE8";
shapes = (
{
closed = 1;
nodes = (
(308,-12,o),
(404,77,o),
(404,183,cs),
(404,249,o),
(370,292,o),
(273,346,cs),
(162,409,o),
(140,432,o),
(140,488,cs),
(140,575,o),
(203,637,o),
(289,637,cs),
(338,637,o),
(389,617,o),
(414,588,c),
(407,611,l),
(400,519,ls),
(399,511,o),
(407,504,o),
(415,504,c),
(445,614,l),
(391,641,o),
(341,655,o),
(298,655,cs),
(192,655,o),
(109,574,o),
(109,469,cs),
(109,407,o),
(133,379,o),
(240,317,cs),
(337,261,o),
(367,226,o),
(367,168,cs),
(367,81,o),
(290,7,o),
(199,7,cs),
(148,7,o),
(79,30,o),
(45,58,c),
(54,31,l),
(70,159,l),
(68,161,o),
(63,162,o),
(59,162,cs),
(52,162,o),
(49,159,o),
(44,147,c),
(17,35,l),
(71,7,o),
(142,-12,o),
(194,-12,cs)
);
}
);
width = 486;
},
{
anchors = (
{
name = bottom;
pos = (222,0);
},
{
name = top;
pos = (323,641);
}
);
background = {
shapes = (
{
closed = 1;
nodes = (
(362,-12,o),
(457,61,o),
(477,184,cs),
(493,284,o),
(458,339,o),
(332,407,cs),
(249,453,o),
(232,469,o),
(237,501,cs),
(243,537,o),
(275,558,o),
(323,558,cs),
(375,558,o),
(417,537,o),
(432,503,c),
(408,570,l),
(407,455,ls),
(407,442,o),
(432,434,o),
(472,434,c),
(517,604,l),
(475,634,o),
(397,655,o),
(330,655,cs),
(203,655,o),
(111,583,o),
(93,470,cs),
(77,367,o),
(110,309,o),
(220,248,cs),
(312,199,o),
(326,183,o),
(320,145,cs),
(314,110,o),
(277,85,o),
(231,85,cs),
(183,85,o),
(141,104,o),
(112,140,c),
(130,106,l),
(138,237,l),
(132,240,o),
(123,241,o),
(112,241,cs),
(94,241,o),
(74,236,o),
(62,229,c),
(0,45,l),
(52,12,o),
(145,-12,o),
(222,-12,cs)
);
}
);
};
guides = (
{
angle = 154.9037;
pos = (322,407);
},
{
angle = 22.0679;
pos = (321,158);
},
{
angle = 153.189;
pos = (332,407);
}
);
layerId = "7B53E429-1BF0-49C5-9F57-63EEBF39C6CC";
shapes = (
{
closed = 1;
nodes = (
(374,-12,o),
(481,83,o),
(481,218,cs),
(481,303,o),
(443,351,o),
(332,407,cs),
(250,448,o),
(236,461,o),
(236,497,cs),
(236,535,o),
(269,558,o),
(324,558,cs),
(375,558,o),
(417,537,o),
(432,503,c),
(408,570,l),
(407,455,ls),
(407,442,o),
(432,434,o),
(472,434,c),
(517,604,l),
(475,634,o),
(397,655,o),
(330,655,cs),
(187,655,o),
(89,562,o),
(89,428,cs),
(89,345,o),
(124,297,o),
(220,248,cs),
(309,203,o),
(321,193,o),
(321,160,cs),
(321,116,o),
(283,85,o),
(228,85,cs),
(183,85,o),
(140,105,o),
(112,140,c),
(130,106,l),
(138,237,l),
(134,240,o),
(126,241,o),
(114,241,cs),
(95,241,o),
(74,236,o),
(62,229,c),
(0,45,l),
(52,12,o),
(145,-12,o),
(222,-12,cs)
);
}
);
width = 545;
},
{
anchors = (
{
name = bottom;
pos = (203,0);
},
{
name = top;
pos = (304,641);
}
);
layerId = "3EF2C2DE-A0EB-47A2-88E7-F2C629C295C3";
shapes = (
{
closed = 1;
nodes = (
(329,-12,o),
(429,79,o),
(429,195,cs),
(429,266,o),
(394,312,o),
(293,366,cs),
(190,421,o),
(171,442,o),
(171,491,cs),
(171,562,o),
(224,611,o),
(301,611,cs),
(350,611,o),
(398,591,o),
(420,560,c),
(407,598,l),
(402,498,ls),
(402,489,o),
(415,481,o),
(434,481,c),
(468,611,l),
(418,639,o),
(360,655,o),
(309,655,cs),
(190,655,o),
(102,570,o),
(102,456,cs),
(102,387,o),
(130,352,o),
(233,295,cs),
(328,241,o),
(352,215,o),
(352,165,cs),
(352,93,o),
(288,32,o),
(209,32,cs),
(160,32,o),
(99,54,o),
(67,85,c),
(79,55,l),
(92,184,l),
(89,187,o),
(83,188,o),
(77,188,cs),
(66,188,o),
(57,184,o),
(50,174,c),
(12,38,l),
(65,9,o),
(143,-12,o),
(203,-12,cs)
);
}
);
width = 505.19231;
}
);
unicode = 83;
},
{
color = 4;
glyphname = Germandbls;
kernLeft = Germandbls;
kernRight = Germandbls;
layers = (
{
layerId = "E1BF09ED-4302-4AD3-9939-8FDA35DE0FE8";
shapes = (
{
closed = 1;
nodes = (
(467,-12,o),
(537,44,o),
(549,121,cs),
(559,182,o),
(530,219,o),
(440,260,cs),
(371,292,o),
(351,318,o),
(358,364,c),
(547,501,l),
(561,589,o),
(506,655,o),
(417,655,cs),
(294,655,o),
(205,573,o),
(184,437,c),
(193,445,l),
(117,443,l),
(109,437,o),
(107,432,o),
(105,421,c),
(188,420,l),
(182,427,l),
(118,22,l),
(130,34,l),
(75,20,ls),
(63,17,o),
(59,11,o),
(57,0,c),
(146,0,l),
(207,389,ls),
(234,559,o),
(295,632,o),
(406,632,cs),
(483,632,o),
(526,581,o),
(513,501,c),
(324,351,l),
(316,300,o),
(346,262,o),
(418,230,cs),
(500,194,o),
(524,164,o),
(514,106,cs),
(504,42,o),
(459,4,o),
(393,4,cs),
(327,4,o),
(298,43,o),
(310,116,c),
(306,124,o),
(300,128,o),
(292,128,cs),
(279,128,o),
(269,115,o),
(265,94,cs),
(256,34,o),
(308,-12,o),
(383,-12,cs)
);
}
);
width = 633;
},
{
background = {
shapes = (
{
closed = 0;
nodes = (
(409,723,ls)
);
}
);
};
guides = (
{
angle = 76.6755;
pos = (467,617);
}
);
layerId = "7B53E429-1BF0-49C5-9F57-63EEBF39C6CC";
shapes = (
{
closed = 1;
nodes = (
(571,-12,o),
(662,46,o),
(677,144,cs),
(689,218,o),
(652,261,o),
(546,301,cs),
(468,330,o),
(453,342,o),
(457,367,c),
(642,496,l),
(657,592,o),
(581,655,o),
(449,655,cs),
(286,655,o),
(145,554,o),
(123,418,c),
(159,446,l),
(90,442,l),
(77,434,o),
(63,399,o),
(58,362,c),
(139,359,l),
(118,385,l),
(70,80,l),
(83,97,l),
(25,69,ls),
(14,64,o),
(6,42,o),
(-1,0,c),
(230,0,l),
(288,363,ls),
(313,524,o),
(347,579,o),
(420,579,cs),
(471,579,o),
(494,542,o),
(484,478,c),
(312,313,l),
(301,240,o),
(335,197,o),
(437,157,cs),
(512,128,o),
(527,116,o),
(523,91,cs),
(519,67,o),
(494,49,o),
(464,49,cs),
(418,49,o),
(403,77,o),
(414,144,c),
(400,156,o),
(376,164,o),
(353,164,cs),
(309,164,o),
(275,137,o),
(269,97,cs),
(259,33,o),
(328,-12,o),
(436,-12,cs)
);
}
);
width = 712;
},
{
layerId = "3EF2C2DE-A0EB-47A2-88E7-F2C629C295C3";
shapes = (
{
closed = 1;
nodes = (
(500,-12,o),
(576,45,o),
(590,129,cs),
(601,194,o),
(568,232,o),
(474,273,cs),
(402,304,o),
(383,326,o),
(389,365,c),
(577,499,l),
(591,590,o),
(529,655,o),
(427,655,cs),
(290,655,o),
(185,567,o),
(163,431,c),
(181,445,l),
(107,443,l),
(97,436,o),
(92,421,o),
(89,401,c),
(171,400,l),
(160,414,l),
(102,42,l),
(114,54,l),
(58,36,ls),
(46,32,o),
(41,21,o),
(37,0,c),
(172,0,l),
(232,380,ls),
(259,547,o),
(311,615,o),
(410,615,cs),
(479,615,o),
(514,569,o),
(502,493,c),
(320,339,l),
(311,280,o),
(342,241,o),
(423,206,cs),
(503,173,o),
(524,149,o),
(516,102,cs),
(508,50,o),
(470,18,o),
(415,18,cs),
(356,18,o),
(331,54,o),
(343,125,c),
(336,135,o),
(324,140,o),
(312,140,cs),
(288,140,o),
(270,122,o),
(265,95,cs),
(256,34,o),
(314,-12,o),
(399,-12,cs)
);
}
);
width = 651.42308;
}
);
metricLeft = H;
metricRight = s;
unicode = 7838;
},
{
color = 4;
glyphname = T;
kernLeft = T;
kernRight = T;
layers = (
{
anchors = (
{
name = bottom;
pos = (203,0);
},
{
name = center;
pos = (254,321);
},
{
name = top;
pos = (305,641);
}
);
layerId = "E1BF09ED-4302-4AD3-9939-8FDA35DE0FE8";
shapes = (
{
closed = 1;
nodes = (
(286,0,ls),
(299,0,o),
(302,4,o),
(305,18,c),
(213,34,l),
(222,22,l),
(317,625,l),
(305,612,l),
(499,625,l),
(487,634,l),
(493,543,ls),
(493,531,o),
(501,527,o),
(509,527,c),
(527,641,l),
(81,641,l),
(63,527,l),
(71,527,o),
(79,531,o),
(84,543,cs),
(119,634,l),
(105,625,l),
(295,612,l),
(286,625,l),
(191,23,l),
(205,34,l),
(134,20,ls),
(123,18,o),
(118,12,o),
(116,0,c)
);
}
);
width = 476;
},
{
anchors = (
{
name = bottom;
pos = (246,0);
},
{
name = center;
pos = (297,321);
},
{
name = top;
pos = (347,641);
}
);
layerId = "7B53E429-1BF0-49C5-9F57-63EEBF39C6CC";
shapes = (
{
closed = 1;
nodes = (
(419,0,l),
(438,29,o),
(445,50,o),
(449,76,c),
(322,106,l),
(344,75,l),
(418,544,l),
(406,531,l),
(527,549,l),
(516,558,l),
(527,460,ls),
(528,448,o),
(542,440,o),
(589,440,c),
(621,641,l),
(74,641,l),
(42,440,l),
(88,440,o),
(104,448,o),
(110,460,cs),
(153,558,l),
(138,549,l),
(254,531,l),
(245,544,l),
(170,70,l),
(196,107,l),
(93,69,ls),
(82,65,o),
(73,39,o),
(67,0,c)
);
}
);
width = 562;
},
{
anchors = (
{
name = bottom;
pos = (217,0);
},
{
name = center;
pos = (268,321);
},
{
name = top;
pos = (318,641);
}
);
layerId = "3EF2C2DE-A0EB-47A2-88E7-F2C629C295C3";
shapes = (
{
closed = 1;
nodes = (
(330,0,ls),
(344,10,o),
(348,19,o),
(352,38,c),
(249,57,l),
(261,39,l),
(350,599,l),
(338,586,l),
(508,600,l),
(497,609,l),
(504,516,ls),
(505,504,o),
(514,499,o),
(535,499,c),
(558,641,l),
(79,641,l),
(56,499,l),
(77,499,o),
(87,504,o),
(93,516,cs),
(130,609,l),
(116,600,l),
(282,586,l),
(273,599,l),
(184,38,l),
(202,58,l),
(121,36,ls),
(110,33,o),
(104,21,o),
(100,0,c)
);
}
);
width = 504;
}
);
metricLeft = "=H*.2";
metricRight = "=H*.2";
unicode = 84;
},
{
color = 4;
glyphname = U;
kernLeft = U;
kernRight = U;
layers = (
{
anchors = (
{
name = bottom;
pos = (295,0);
},
{
name = ogonek;
pos = (375,0);
},
{
name = top;
pos = (397,641);
},
{
name = topright;
pos = (587,641);
}
);
layerId = "E1BF09ED-4302-4AD3-9939-8FDA35DE0FE8";
shapes = (
{
closed = 1;
nodes = (
(428,-12,o),
(515,66,o),
(538,214,cs),
(603,624,l),
(597,611,l),
(642,621,ls),
(652,623,o),
(658,629,o),
(660,641,c),
(545,641,l),
(532,641,o),
(529,638,o),
(527,623,c),
(587,610,l),
(583,619,l),
(517,206,ls),
(497,80,o),
(418,7,o),
(303,7,cs),
(169,7,o),
(113,72,o),
(134,204,cs),
(201,619,l),
(189,607,l),
(251,621,ls),
(262,623,o),
(267,629,o),
(269,641,c),
(127,641,ls),
(114,641,o),
(110,637,o),
(108,623,c),
(181,607,l),
(170,618,l),
(105,211,ls),
(82,67,o),
(148,-12,o),
(288,-12,cs)
);
}
);
width = 638;
},
{
anchors = (
{
name = bottom;
pos = (337,0);
},
{
name = ogonek;
pos = (411,0);
},
{
name = top;
pos = (438,641);
},
{
name = topright;
pos = (565,641);
}
);
layerId = "7B53E429-1BF0-49C5-9F57-63EEBF39C6CC";
shapes = (
{
closed = 1;
nodes = (
(501,-12,o),
(579,105,o),
(596,214,cs),
(655,589,l),
(631,545,l),
(716,572,ls),
(726,575,o),
(736,604,o),
(742,641,c),
(502,641,l),
(483,614,o),
(475,591,o),
(471,565,c),
(565,538,l),
(564,584,l),
(513,256,ls),
(503,189,o),
(482,87,o),
(349,87,cs),
(234,87,o),
(247,165,o),
(261,254,cs),
(311,571,l),
(279,545,l),
(362,572,ls),
(372,575,o),
(382,603,o),
(388,641,c),
(106,641,l),
(86,614,o),
(78,591,o),
(74,565,c),
(155,541,l),
(137,566,l),
(81,211,ls),
(60,77,o),
(131,-12,o),
(303,-12,cs)
);
}
);
width = 696;
},
{
anchors = (
{
name = bottom;
pos = (309,0);
},
{
name = ogonek;
pos = (388,0);
},
{
name = top;
pos = (411,641);
},
{
name = topright;
pos = (581,641);
}
);
layerId = "3EF2C2DE-A0EB-47A2-88E7-F2C629C295C3";
shapes = (
{
closed = 1;
nodes = (
(453,-12,o),
(537,78,o),
(559,214,cs),
(621,612,l),
(609,590,l),
(667,605,ls),
(677,608,o),
(684,621,o),
(688,641,c),
(532,641,l),
(517,632,o),
(513,623,o),
(510,603,c),
(581,587,l),
(578,607,l),
(517,222,ls),
(500,116,o),
(440,33,o),
(319,33,cs),
(191,33,o),
(158,102,o),
(176,220,cs),
(238,604,l),
(218,587,l),
(288,605,ls),
(299,608,o),
(305,620,o),
(308,641,c),
(121,641,ls),
(106,632,o),
(100,622,o),
(98,603,c),
(173,586,l),
(160,601,l),
(98,211,ls),
(76,70,o),
(144,-12,o),
(293,-12,cs)
);
}
);
width = 659;
}
);
metricLeft = "=H*.6";
metricRight = "=H*.6";
unicode = 85;
},
{
color = 4;
glyphname = V;
kernLeft = V;
kernRight = V;
layers = (
{
layerId = "E1BF09ED-4302-4AD3-9939-8FDA35DE0FE8";
shapes = (
{
closed = 1;
nodes = (
(261,-12,o),
(268,-6,o),
(276,11,cs),
(561,625,l),
(551,611,l),
(596,621,ls),
(606,623,o),
(612,629,o),
(614,641,c),
(500,641,ls),
(486,641,o),
(483,637,o),
(481,623,c),
(541,610,l),
(539,621,l),
(249,-5,l),
(258,-5,l),
(157,618,l),
(149,607,l),
(211,621,ls),
(221,623,o),
(227,629,o),
(229,641,c),
(87,641,ls),
(74,641,o),
(70,637,o),
(68,623,c),
(141,607,l),
(127,618,l),
(228,-6,l),
(232,-9,o),
(243,-12,o),
(249,-12,cs)
);
}
);
width = 552;
},
{
guides = (
{
angle = 111.1613;
pos = (309,589);
},
{
angle = 249.9547;
pos = (427,362);
}
);
layerId = "7B53E429-1BF0-49C5-9F57-63EEBF39C6CC";
shapes = (
{
closed = 1;
nodes = (
(310,-12,o),
(368,-4,o),
(382,25,cs),
(666,589,l),
(624,545,l),
(712,572,ls),
(722,575,o),
(731,602,o),
(738,641,c),
(493,641,l),
(474,614,o),
(467,591,o),
(462,565,c),
(562,541,l),
(564,584,l),
(340,140,l),
(366,140,l),
(275,589,l),
(256,545,l),
(339,572,ls),
(349,575,o),
(359,602,o),
(365,641,c),
(88,641,l),
(68,614,o),
(60,591,o),
(56,565,c),
(137,541,l),
(102,584,l),
(221,-5,l),
(238,-9,o),
(271,-12,o),
(287,-12,cs)
);
}
);
width = 674;
},
{
layerId = "3EF2C2DE-A0EB-47A2-88E7-F2C629C295C3";
shapes = (
{
closed = 1;
nodes = (
(276,-12,o),
(300,-5,o),
(310,15,cs),
(594,613,l),
(574,590,l),
(632,605,ls),
(642,608,o),
(649,620,o),
(653,641,c),
(497,641,ls),
(482,632,o),
(478,622,o),
(475,603,c),
(547,588,l),
(546,609,l),
(278,42,l),
(292,42,l),
(194,608,l),
(183,587,l),
(252,605,ls),
(262,608,o),
(270,620,o),
(273,641,c),
(86,641,ls),
(71,632,o),
(66,622,o),
(64,603,c),
(139,586,l),
(118,607,l),
(225,-6,l),
(233,-9,o),
(251,-12,o),
(261,-12,cs)
);
}
);
width = 590;
}
);
metricLeft = "=H*.05";
metricRight = "=H*.05";
unicode = 86;
},
{
color = 4;
glyphname = W;
kernLeft = V;
kernRight = V;
layers = (
{
anchors = (
{
name = bottom;
pos = (400,0);
},
{
name = top;
pos = (501,641);
}
);
layerId = "E1BF09ED-4302-4AD3-9939-8FDA35DE0FE8";
shapes = (
{
closed = 1;
nodes = (
(257,-12,o),
(264,-6,o),
(272,11,c),
(480,490,l),
(469,490,l),
(533,-6,l),
(537,-9,o),
(547,-12,o),
(554,-12,cs),
(566,-12,o),
(573,-6,o),
(581,11,cs),
(852,625,l),
(842,611,l),
(887,621,ls),
(897,623,o),
(903,629,o),
(905,641,c),
(790,641,ls),
(777,641,o),
(774,637,o),
(772,623,c),
(832,610,l),
(831,621,l),
(557,1,l),
(563,1,l),
(492,552,l),
(487,552,l),
(248,1,l),
(254,1,l),
(158,626,l),
(149,608,l),
(211,622,ls),
(221,624,o),
(227,630,o),
(229,642,c),
(86,642,ls),
(73,642,o),
(70,638,o),
(68,624,c),
(141,608,l),
(127,621,l),
(224,-6,l),
(228,-9,o),
(239,-12,o),
(245,-12,cs)
);
}
);
width = 843;
},
{
anchors = (
{
name = bottom;
pos = (464,0);
},
{
name = top;
pos = (565,641);
}
);
guides = (
{
angle = 111.4424;
pos = (612,170);
}
);
layerId = "7B53E429-1BF0-49C5-9F57-63EEBF39C6CC";
shapes = (
{
closed = 1;
nodes = (
(273,-12,o),
(333,-4,o),
(346,25,cs),
(510,386,l),
(463,386,l),
(535,-5,l),
(551,-9,o),
(583,-12,o),
(598,-12,cs),
(620,-12,o),
(680,-4,o),
(693,25,cs),
(940,589,l),
(898,545,l),
(986,572,ls),
(996,575,o),
(1005,602,o),
(1012,641,c),
(764,641,l),
(745,614,o),
(738,591,o),
(734,565,c),
(833,541,l),
(841,584,l),
(659,170,l),
(677,170,l),
(601,579,l),
(500,579,l),
(314,170,l),
(332,170,l),
(273,589,l),
(256,545,l),
(339,572,ls),
(349,575,o),
(359,602,o),
(365,641,c),
(88,641,l),
(68,614,o),
(60,591,o),
(56,565,c),
(136,541,l),
(101,584,l),
(184,-5,l),
(201,-9,o),
(235,-12,o),
(251,-12,cs)
);
}
);
width = 948;
},
{
anchors = (
{
name = bottom;
pos = (421,0);
},
{
name = top;
pos = (522,641);
}
);
layerId = "3EF2C2DE-A0EB-47A2-88E7-F2C629C295C3";
shapes = (
{
closed = 1;
nodes = (
(261,-12,o),
(286,-5,o),
(296,15,c),
(490,456,l),
(467,456,l),
(534,-6,l),
(541,-9,o),
(559,-12,o),
(568,-12,cs),
(583,-12,o),
(608,-5,o),
(617,15,cs),
(880,613,l),
(861,590,l),
(919,605,ls),
(929,608,o),
(936,620,o),
(940,641,c),
(781,641,ls),
(766,632,o),
(762,622,o),
(760,603,c),
(832,588,l),
(834,609,l),
(590,56,l),
(600,56,l),
(528,561,l),
(491,561,l),
(269,56,l),
(279,56,l),
(195,614,l),
(184,588,l),
(252,606,ls),
(262,608,o),
(271,621,o),
(273,642,c),
(87,642,ls),
(71,633,o),
(67,623,o),
(64,604,c),
(139,586,l),
(118,609,l),
(211,-6,l),
(219,-9,o),
(238,-12,o),
(247,-12,cs)
);
}
);
width = 877;
}
);
metricLeft = V;
metricRight = V;
unicode = 87;
},
{
color = 4;
glyphname = X;
kernLeft = X;
kernRight = X;
layers = (
{
layerId = "E1BF09ED-4302-4AD3-9939-8FDA35DE0FE8";
shapes = (
{
closed = 1;
nodes = (
(469,0,ls),
(482,0,o),
(485,4,o),
(488,18,c),
(410,34,l),
(426,22,l),
(175,621,l),
(166,607,l),
(232,621,ls),
(243,623,o),
(249,629,o),
(251,641,c),
(99,641,ls),
(86,641,o),
(82,637,o),
(80,623,c),
(158,607,l),
(144,616,l),
(396,17,l),
(402,34,l),
(335,20,ls),
(325,18,o),
(319,12,o),
(317,0,c)
);
},
{
closed = 1;
nodes = (
(96,0,ls),
(109,0,o),
(112,4,o),
(115,18,c),
(53,31,l),
(53,23,l),
(289,331,l),
(276,343,l),
(27,18,l),
(44,30,l),
(-10,20,ls),
(-20,18,o),
(-26,12,o),
(-28,0,c)
);
},
{
closed = 1;
nodes = (
(522,627,l),
(503,611,l),
(557,621,ls),
(568,623,o),
(573,629,o),
(575,641,c),
(451,641,ls),
(438,641,o),
(435,637,o),
(433,623,c),
(495,610,l),
(496,622,l),
(277,332,l),
(291,321,l)
);
}
);
width = 527;
},
{
guides = (
{
angle = 232.2998;
pos = (295,366);
}
);
layerId = "7B53E429-1BF0-49C5-9F57-63EEBF39C6CC";
shapes = (
{
closed = 1;
nodes = (
(581,1,l),
(601,28,o),
(609,51,o),
(614,77,c),
(533,101,l),
(571,57,l),
(290,589,l),
(272,545,l),
(355,572,ls),
(365,575,o),
(375,602,o),
(381,641,c),
(99,641,l),
(79,614,o),
(71,591,o),
(67,565,c),
(148,541,l),
(100,584,l),
(380,52,l),
(408,97,l),
(325,70,ls),
(315,67,o),
(305,40,o),
(299,1,c)
);
},
{
closed = 1;
nodes = (
(216,1,l),
(235,28,o),
(242,51,o),
(246,77,c),
(142,101,l),
(144,58,l),
(335,276,l),
(262,326,l),
(23,53,l),
(86,99,l),
(-6,70,ls),
(-16,67,o),
(-26,40,o),
(-32,1,c)
);
},
{
closed = 1;
nodes = (
(640,589,l),
(577,543,l),
(669,572,ls),
(678,575,o),
(688,602,o),
(695,641,c),
(447,641,l),
(428,614,o),
(421,591,o),
(416,565,c),
(521,541,l),
(518,584,l),
(326,366,l),
(400,316,l)
);
}
);
width = 640;
},
{
layerId = "3EF2C2DE-A0EB-47A2-88E7-F2C629C295C3";
shapes = (
{
closed = 1;
nodes = (
(505,0,ls),
(520,9,o),
(525,19,o),
(529,38,c),
(450,56,l),
(473,34,l),
(212,610,l),
(201,587,l),
(272,605,ls),
(282,608,o),
(290,620,o),
(294,641,c),
(99,641,ls),
(84,632,o),
(78,622,o),
(76,603,c),
(155,586,l),
(130,605,l),
(392,29,l),
(404,54,l),
(332,36,ls),
(322,34,o),
(315,21,o),
(312,0,c)
);
},
{
closed = 1;
nodes = (
(135,0,ls),
(150,9,o),
(155,19,o),
(158,38,c),
(81,54,l),
(82,35,l),
(304,313,l),
(272,338,l),
(26,30,l),
(57,52,l),
(-9,36,ls),
(-19,34,o),
(-26,21,o),
(-29,0,c)
);
},
{
closed = 1;
nodes = (
(560,615,l),
(527,589,l),
(593,605,ls),
(604,608,o),
(610,620,o),
(614,641,c),
(450,641,ls),
(435,632,o),
(431,622,o),
(428,603,c),
(504,588,l),
(503,610,l),
(293,343,l),
(327,319,l)
);
}
);
width = 564.34615;
}
);
metricLeft = "=H*.1";
metricRight = "=H*.1";
unicode = 88;
},
{
color = 4;
glyphname = Y;
kernLeft = Y;
kernRight = Y;
layers = (
{
anchors = (
{
name = bottom;
pos = (241,0);
},
{
name = top;
pos = (343,641);
},
{
name = topleft;
pos = (86,641);
}
);
layerId = "E1BF09ED-4302-4AD3-9939-8FDA35DE0FE8";
shapes = (
{
closed = 1;
nodes = (
(529,622,l),
(518,611,l),
(570,621,ls),
(581,623,o),
(587,629,o),
(588,641,c),
(465,641,l),
(452,641,o),
(448,637,o),
(446,623,c),
(508,610,l),
(504,617,l),
(280,268,l),
(296,272,l),
(153,621,l),
(147,607,l),
(216,621,ls),
(227,623,o),
(232,629,o),
(234,641,c),
(86,641,l),
(73,641,o),
(70,637,o),
(68,623,c),
(139,607,l),
(123,616,l),
(279,234,l)
);
},
{
closed = 1;
nodes = (
(315,0,ls),
(328,0,o),
(331,4,o),
(334,18,c),
(251,34,l),
(259,17,l),
(300,275,l),
(269,275,l),
(228,12,l),
(243,34,l),
(172,20,ls),
(162,18,o),
(156,12,o),
(154,0,c)
);
}
);
width = 526;
},
{
anchors = (
{
name = bottom;
pos = (286,0);
},
{
name = top;
pos = (414,641);
},
{
name = topleft;
pos = (88,641);
}
);
guides = (
{
angle = 63.392;
pos = (320,304);
},
{
pos = (176,366);
}
);
layerId = "7B53E429-1BF0-49C5-9F57-63EEBF39C6CC";
shapes = (
{
closed = 1;
nodes = (
(635,589,l),
(593,545,l),
(681,572,ls),
(690,575,o),
(700,602,o),
(707,641,c),
(466,641,l),
(447,614,o),
(439,591,o),
(435,565,c),
(534,541,l),
(528,584,l),
(353,304,l),
(389,304,l),
(279,589,l),
(261,545,l),
(344,572,ls),
(354,575,o),
(364,602,o),
(370,641,c),
(88,641,l),
(68,614,o),
(60,591,o),
(56,565,c),
(136,541,l),
(97,584,l),
(302,56,l)
);
},
{
closed = 1;
nodes = (
(419,0,l),
(438,29,o),
(446,50,o),
(450,76,c),
(359,100,l),
(383,75,l),
(415,275,l),
(244,275,l),
(212,70,l),
(234,96,l),
(161,69,ls),
(151,65,o),
(142,39,o),
(135,0,c)
);
}
);
width = 643;
},
{
anchors = (
{
name = bottom;
pos = (254,0);
},
{
name = top;
pos = (365,641);
},
{
name = topleft;
pos = (86,641);
}
);
layerId = "3EF2C2DE-A0EB-47A2-88E7-F2C629C295C3";
shapes = (
{
closed = 1;
nodes = (
(563,611,l),
(541,590,l),
(606,605,ls),
(616,608,o),
(623,620,o),
(625,641,c),
(464,641,l),
(449,632,o),
(444,622,o),
(442,603,c),
(516,588,l),
(511,606,l),
(303,280,l),
(325,283,l),
(193,610,l),
(183,587,l),
(257,605,ls),
(267,608,o),
(275,620,o),
(278,641,c),
(86,641,l),
(70,632,o),
(66,622,o),
(64,603,c),
(137,586,l),
(113,605,l),
(286,176,l)
);
},
{
closed = 1;
nodes = (
(348,0,ls),
(363,10,o),
(367,19,o),
(370,38,c),
(285,55,l),
(298,37,l),
(336,275,l),
(260,275,l),
(223,32,l),
(239,54,l),
(168,36,ls),
(158,33,o),
(151,21,o),
(148,0,c)
);
}
);
width = 562;
}
);
metricLeft = V;
metricRight = V;
unicode = 89;
},
{
color = 4;
glyphname = Z;
kernLeft = Z;
kernRight = Z;
layers = (
{
anchors = (
{
name = bottom;
pos = (241,0);
},
{
name = center;
pos = (272,321);
},
{
name = top;
pos = (343,641);
}
);
guides = (
{
angle = -2.1769;
pos = (302,619);
},
{
angle = 177.2073;
pos = (197,25);
}
);
layerId = "E1BF09ED-4302-4AD3-9939-8FDA35DE0FE8";
shapes = (
{
closed = 1;
nodes = (
(437,0,l),
(455,118,ls),
(456,125,o),
(454,131,o),
(441,131,c),
(398,7,l),
(411,16,l),
(42,34,l),
(51,23,l),
(518,612,l),
(518,627,o),
(511,641,o),
(496,641,cs),
(135,641,l),
(116,517,l),
(124,517,o),
(132,520,o),
(137,533,cs),
(175,634,l),
(161,625,l),
(503,612,l),
(489,625,l),
(21,35,l),
(21,17,o),
(30,0,o),
(43,0,cs)
);
}
);
width = 523;
},
{
anchors = (
{
name = bottom;
pos = (248,0);
},
{
name = center;
pos = (299,321);
},
{
name = top;
pos = (349,641);
}
);
layerId = "7B53E429-1BF0-49C5-9F57-63EEBF39C6CC";
shapes = (
{
closed = 1;
nodes = (
(507,0,l),
(540,206,l),
(518,223,o),
(497,228,o),
(473,228,c),
(416,72,l),
(460,93,l),
(214,112,l),
(210,57,l),
(579,561,l),
(580,602,o),
(560,641,o),
(518,641,cs),
(108,641,l),
(76,435,l),
(122,435,o),
(138,443,o),
(144,455,cs),
(187,558,l),
(151,548,l),
(393,530,l),
(377,589,l),
(2,80,l),
(1,39,o),
(21,0,o),
(63,0,cs)
);
}
);
width = 566;
},
{
anchors = (
{
name = bottom;
pos = (244,0);
},
{
name = center;
pos = (282,321);
},
{
name = top;
pos = (346,641);
}
);
layerId = "3EF2C2DE-A0EB-47A2-88E7-F2C629C295C3";
shapes = (
{
closed = 1;
nodes = (
(461,0,l),
(484,146,ls),
(477,157,o),
(469,163,o),
(453,163,c),
(405,28,l),
(428,41,l),
(99,59,l),
(104,34,l),
(539,596,l),
(539,619,o),
(528,641,o),
(504,641,cs),
(127,641,l),
(104,490,l),
(124,490,o),
(135,495,o),
(140,508,cs),
(180,609,l),
(159,600,l),
(468,585,l),
(454,613,l),
(16,49,l),
(15,24,o),
(28,0,o),
(51,0,cs)
);
}
);
width = 539;
}
);
metricLeft = "=H*.7";
metricRight = "=H*.7";
unicode = 90;
},
{
color = 5;
glyphname = O.OE;
kernLeft = O;
kernRight = O;
layers = (
{
anchors = (
{
name = "#exit";
pos = (309,0);
}
);
layerId = "E1BF09ED-4302-4AD3-9939-8FDA35DE0FE8";
shapes = (
{
closed = 1;
nodes = (
(327,20,l),
(189,20,o),
(112,106,o),
(112,254,cs),
(112,441,o),
(234,623,o),
(408,623,c),
(427,641,l),
(239,641,o),
(73,443,o),
(73,242,cs),
(73,102,o),
(162,0,o),
(309,0,c)
);
}
);
width = 361;
},
{
anchors = (
{
name = "#exit";
pos = (298,0);
}
);
layerId = "7B53E429-1BF0-49C5-9F57-63EEBF39C6CC";
shapes = (
{
closed = 1;
nodes = (
(324,69,l),
(255,69,o),
(216,137,o),
(216,245,cs),
(216,387,o),
(273,565,o),
(387,565,c),
(420,641,l),
(210,641,o),
(31,455,o),
(31,243,cs),
(31,97,o),
(133,0,o),
(298,0,c)
);
}
);
width = 354;
},
{
anchors = (
{
name = "#exit";
pos = (317,0);
}
);
layerId = "3EF2C2DE-A0EB-47A2-88E7-F2C629C295C3";
shapes = (
{
closed = 1;
nodes = (
(337,38,l),
(219,38,o),
(151,122,o),
(151,258,cs),
(151,433,o),
(244,597,o),
(411,597,c),
(436,641,l),
(230,641,o),
(60,447,o),
(60,241,cs),
(60,96,o),
(158,0,o),
(317,0,c)
);
}
);
width = 370.03846;
}
);
metricLeft = O;
},
{
color = 4;
glyphname = U.horn;
kernLeft = U;
kernRight = U;
layers = (
{
anchors = (
{
name = bottom;
pos = (295,0);
},
{
name = ogonek;
pos = (377,0);
},
{
name = top;
pos = (396,641);
},
{
name = topright;
pos = (550,641);
}
);
background = {
shapes = (
{
closed = 1;
nodes = (
(436,-12,o),
(516,75,o),
(538,214,cs),
(606,641,l),
(545,641,l),
(532,641,o),
(529,637,o),
(526,623,c),
(587,610,l),
(583,619,l),
(518,206,ls),
(494,56,o),
(399,7,o),
(295,7,cs),
(204,7,o),
(113,67,o),
(135,204,cs),
(200,619,l),
(189,607,l),
(251,621,ls),
(261,623,o),
(267,629,o),
(269,641,c),
(127,641,ls),
(114,641,o),
(110,637,o),
(108,623,c),
(181,607,l),
(169,618,l),
(105,211,ls),
(84,77,o),
(137,-12,o),
(292,-12,cs)
);
}
);
};
layerId = "E1BF09ED-4302-4AD3-9939-8FDA35DE0FE8";
shapes = (
{
closed = 1;
nodes = (
(428,-12,o),
(515,66,o),
(538,214,cs),
(606,641,l),
(545,641,l),
(532,641,o),
(529,638,o),
(527,623,c),
(587,610,l),
(583,619,l),
(517,206,ls),
(497,80,o),
(418,7,o),
(303,7,cs),
(169,7,o),
(113,72,o),
(134,204,cs),
(201,619,l),
(189,607,l),
(251,621,ls),
(262,623,o),
(267,629,o),
(269,641,c),
(127,641,ls),
(114,641,o),
(110,637,o),
(108,623,c),
(181,607,l),
(170,618,l),
(105,211,ls),
(82,67,o),
(148,-12,o),
(288,-12,cs)
);
}
);
width = 636;
},
{
anchors = (
{
name = bottom;
pos = (337,0);
},
{
name = ogonek;
pos = (412,0);
},
{
name = top;
pos = (439,641);
},
{
name = topright;
pos = (589,641);
}
);
background = {
shapes = (
{
closed = 1;
nodes = (
(488,-12,o),
(579,105,o),
(596,214,cs),
(664,641,l),
(502,641,l),
(483,614,o),
(475,591,o),
(471,565,c),
(566,538,l),
(562,584,l),
(510,256,ls),
(493,147,o),
(457,87,o),
(344,87,cs),
(251,87,o),
(243,138,o),
(261,254,cs),
(311,571,l),
(279,545,l),
(363,572,ls),
(372,575,o),
(382,602,o),
(388,641,c),
(107,641,l),
(87,614,o),
(78,591,o),
(74,565,c),
(155,541,l),
(138,566,l),
(81,211,ls),
(60,77,o),
(119,-12,o),
(328,-12,cs)
);
}
);
};
layerId = "7B53E429-1BF0-49C5-9F57-63EEBF39C6CC";
shapes = (
{
closed = 1;
nodes = (
(501,-12,o),
(579,105,o),
(596,214,cs),
(664,641,l),
(502,641,l),
(483,614,o),
(475,591,o),
(471,565,c),
(565,538,l),
(564,584,l),
(513,256,ls),
(503,189,o),
(482,87,o),
(349,87,cs),
(234,87,o),
(247,165,o),
(261,254,cs),
(311,571,l),
(279,545,l),
(362,572,ls),
(372,575,o),
(382,603,o),
(388,641,c),
(106,641,l),
(86,614,o),
(78,591,o),
(74,565,c),
(155,541,l),
(137,566,l),
(81,211,ls),
(60,77,o),
(131,-12,o),
(303,-12,cs)
);
}
);
width = 696;
},
{
anchors = (
{
name = bottom;
pos = (309,0);
},
{
name = ogonek;
pos = (390,0);
},
{
name = top;
pos = (411,641);
},
{
name = topright;
pos = (563,641);
}
);
layerId = "3EF2C2DE-A0EB-47A2-88E7-F2C629C295C3";
shapes = (
{
closed = 1;
nodes = (
(453,-12,o),
(537,78,o),
(559,214,cs),
(627,641,l),
(532,641,l),
(517,632,o),
(513,623,o),
(510,603,c),
(581,587,l),
(578,607,l),
(517,222,ls),
(500,116,o),
(440,33,o),
(319,33,cs),
(191,33,o),
(158,102,o),
(176,220,cs),
(238,604,l),
(218,587,l),
(288,605,ls),
(299,608,o),
(305,620,o),
(308,641,c),
(121,641,ls),
(106,632,o),
(100,622,o),
(98,603,c),
(173,586,l),
(160,601,l),
(98,211,ls),
(76,70,o),
(144,-12,o),
(293,-12,cs)
);
}
);
width = 656;
}
);
metricLeft = "=H*.6";
},
{
color = 5;
glyphname = Q.ss01;
kernLeft = O;
kernRight = Q;
layers = (
{
layerId = "E1BF09ED-4302-4AD3-9939-8FDA35DE0FE8";
shapes = (
{
closed = 1;
nodes = (
(670,-166,o),
(688,-154,o),
(696,-121,c),
(491,-121,o),
(350,-61,o),
(282,10,c),
(272,-7,l),
(380,-98,o),
(540,-166,o),
(645,-166,cs)
);
},
{
ref = O;
}
);
width = 647;
},
{
background = {
shapes = (
{
closed = 1;
nodes = (
(816,-191,o),
(846,-142,o),
(853,-99,cs),
(855,-84,o),
(854,-71,o),
(849,-63,c),
(706,-63,o),
(516,15,o),
(424,58,c),
(294,-1,l),
(431,-76,o),
(654,-191,o),
(761,-191,cs)
);
},
{
closed = 1;
nodes = (
(481,-207,o),
(543,-157,o),
(579,-73,c),
(489,-73,o),
(376,-12,o),
(267,64,c),
(217,14,l),
(314,-163,o),
(377,-207,o),
(427,-207,cs)
);
}
);
};
layerId = "7B53E429-1BF0-49C5-9F57-63EEBF39C6CC";
shapes = (
{
closed = 1;
nodes = (
(791,-207,o),
(845,-173,o),
(869,-73,c),
(578,-73,o),
(361,-12,o),
(267,64,c),
(217,14,l),
(448,-163,o),
(597,-207,o),
(717,-207,cs)
);
},
{
ref = O;
}
);
width = 627;
},
{
layerId = "3EF2C2DE-A0EB-47A2-88E7-F2C629C295C3";
shapes = (
{
closed = 1;
nodes = (
(802,-181,o),
(832,-161,o),
(846,-106,c),
(631,-106,o),
(382,-49,o),
(280,27,c),
(255,2,l),
(490,-126,o),
(639,-181,o),
(760,-181,cs)
);
},
{
alignment = -1;
ref = O;
}
);
width = 647.92308;
}
);
metricLeft = O;
},
{
export = 0;
glyphname = C.sup;
kernLeft = O.sup;
kernRight = C.sup;
layers = (
{
layerId = "E1BF09ED-4302-4AD3-9939-8FDA35DE0FE8";
shapes = (
{
closed = 1;
nodes = (
(229,324,o),
(268,337,o),
(304,365,c),
(308,424,l),
(306,429,o),
(299,431,o),
(288,431,c),
(271,366,l),
(280,381,l),
(257,355,o),
(226,344,o),
(197,344,cs),
(133,344,o),
(94,389,o),
(94,455,cs),
(94,551,o),
(154,637,o),
(245,637,cs),
(274,637,o),
(300,628,o),
(316,611,c),
(312,622,l),
(309,572,ls),
(310,567,o),
(318,563,o),
(326,563,c),
(346,633,l),
(323,649,o),
(293,658,o),
(262,658,cs),
(155,658,o),
(66,555,o),
(66,446,cs),
(66,373,o),
(113,324,o),
(190,324,cs)
);
}
);
userData = {
RMXScaler = {
height = 50;
verticalShift = 330;
width = 52;
};
};
width = 308;
},
{
layerId = "7B53E429-1BF0-49C5-9F57-63EEBF39C6CC";
shapes = (
{
closed = 1;
nodes = (
(251,324,o),
(291,339,o),
(325,370,c),
(330,447,l),
(324,451,o),
(314,453,o),
(291,453,c),
(270,375,l),
(285,400,l),
(261,378,o),
(240,368,o),
(213,368,cs),
(173,368,o),
(149,402,o),
(149,455,cs),
(149,525,o),
(183,615,o),
(251,615,cs),
(277,615,o),
(297,608,o),
(317,583,c),
(308,603,l),
(309,551,ls),
(309,546,o),
(321,542,o),
(342,540,c),
(365,632,l),
(341,648,o),
(302,658,o),
(258,658,cs),
(151,658,o),
(56,567,o),
(56,452,cs),
(56,372,o),
(108,324,o),
(200,324,cs)
);
}
);
userData = {
RMXScaler = {
adjustSpace = 5;
height = 50;
verticalShift = 330;
weight = -100;
width = 52;
};
};
width = 326;
},
{
layerId = "3EF2C2DE-A0EB-47A2-88E7-F2C629C295C3";
shapes = (
{
closed = 1;
nodes = (
(236,324,o),
(276,338,o),
(311,367,c),
(315,432,l),
(312,436,o),
(303,438,o),
(289,438,c),
(271,369,l),
(282,387,l),
(258,363,o),
(230,352,o),
(201,352,cs),
(146,352,o),
(112,393,o),
(112,455,cs),
(112,542,o),
(164,630,o),
(247,630,cs),
(275,630,o),
(299,621,o),
(316,602,c),
(311,616,l),
(309,565,ls),
(310,560,o),
(319,556,o),
(330,555,c),
(352,633,l),
(329,649,o),
(296,658,o),
(261,658,cs),
(154,658,o),
(63,559,o),
(63,448,cs),
(63,373,o),
(111,324,o),
(193,324,cs)
);
}
);
width = 313.76923;
}
);
userData = {
RMXScaler = {
source = C;
};
};
},
{
export = 0;
glyphname = M.sup;
kernLeft = M.sup;
kernRight = M.sup;
layers = (
{
layerId = "E1BF09ED-4302-4AD3-9939-8FDA35DE0FE8";
shapes = (
{
closed = 1;
nodes = (
(231,329,o),
(235,332,o),
(239,340,cs),
(390,631,l),
(384,631,l),
(362,349,l),
(367,358,l),
(329,346,ls),
(324,344,o),
(321,337,o),
(320,332,c),
(420,332,ls),
(427,332,o),
(430,336,o),
(432,348,c),
(389,358,l),
(393,351,l),
(415,633,l),
(408,624,l),
(448,634,ls),
(452,635,o),
(456,642,o),
(458,651,c),
(379,651,l),
(237,376,l),
(245,376,l),
(186,649,l),
(121,649,ls),
(114,649,o),
(111,645,o),
(109,633,c),
(147,622,l),
(146,631,l),
(75,349,l),
(81,357,l),
(47,346,ls),
(41,344,o),
(38,338,o),
(37,332,c),
(124,332,ls),
(131,332,o),
(134,336,o),
(136,348,c),
(94,358,l),
(96,351,l),
(165,628,l),
(158,628,l),
(222,331,l),
(223,329,o),
(225,329,o),
(228,329,cs)
);
}
);
userData = {
RMXScaler = {
height = 50;
verticalShift = 330;
width = 52;
};
};
width = 429;
},
{
layerId = "7B53E429-1BF0-49C5-9F57-63EEBF39C6CC";
shapes = (
{
closed = 1;
nodes = (
(238,329,o),
(251,333,o),
(257,344,cs),
(379,603,l),
(366,603,l),
(348,368,l),
(359,380,l),
(319,363,ls),
(313,360,o),
(308,345,o),
(305,330,c),
(448,330,l),
(458,343,o),
(463,353,o),
(465,369,c),
(418,383,l),
(423,370,l),
(442,613,l),
(430,601,l),
(479,618,ls),
(485,620,o),
(490,637,o),
(492,651,c),
(354,651,l),
(250,433,l),
(275,433,l),
(231,651,l),
(108,651,l),
(99,638,o),
(94,629,o),
(92,612,c),
(137,598,l),
(133,609,l),
(73,367,l),
(84,381,l),
(40,363,ls),
(33,360,o),
(29,343,o),
(27,330,c),
(154,330,l),
(164,343,o),
(169,352,o),
(171,369,c),
(118,383,l),
(119,369,l),
(176,596,l),
(162,596,l),
(215,333,l),
(217,331,o),
(224,329,o),
(232,329,cs)
);
}
);
userData = {
RMXScaler = {
adjustSpace = 5;
height = 50;
verticalShift = 330;
weight = -100;
width = 52;
};
};
width = 451;
},
{
layerId = "3EF2C2DE-A0EB-47A2-88E7-F2C629C295C3";
shapes = (
{
closed = 1;
nodes = (
(233,329,o),
(239,332,o),
(245,341,cs),
(386,622,l),
(379,622,l),
(358,355,l),
(364,365,l),
(326,351,ls),
(320,348,o),
(317,340,o),
(316,331,c),
(429,331,ls),
(437,336,o),
(441,341,o),
(443,355,c),
(399,366,l),
(403,357,l),
(424,626,l),
(415,616,l),
(458,630,ls),
(463,631,o),
(467,640,o),
(469,651,c),
(371,651,l),
(241,395,l),
(255,395,l),
(200,650,l),
(117,650,ls),
(110,645,o),
(106,641,o),
(104,626,c),
(144,614,l),
(142,624,l),
(74,355,l),
(82,365,l),
(45,351,ls),
(38,348,o),
(35,340,o),
(34,331,c),
(134,331,ls),
(142,336,o),
(146,340,o),
(148,355,c),
(102,366,l),
(104,357,l),
(169,617,l),
(159,617,l),
(220,332,l),
(221,330,o),
(225,329,o),
(229,329,cs)
);
}
);
width = 435.76923;
}
);
userData = {
RMXScaler = {
source = M;
};
};
},
{
export = 0;
glyphname = R.sup;
kernLeft = H.sup;
kernRight = R.sup;
layers = (
{
anchors = (
{
name = bottom;
pos = (182,330);
},
{
name = top;
pos = (208,651);
}
);
layerId = "E1BF09ED-4302-4AD3-9939-8FDA35DE0FE8";
shapes = (
{
closed = 1;
nodes = (
(304,325,o),
(315,330,o),
(322,338,c),
(279,359,o),
(233,429,o),
(219,489,c),
(194,481,l),
(216,388,o),
(262,325,o),
(293,325,cs)
);
},
{
closed = 1;
nodes = (
(130,479,l),
(142,475,o),
(165,473,o),
(180,473,cs),
(252,473,o),
(308,519,o),
(308,578,cs),
(308,622,o),
(278,651,o),
(227,649,cs),
(111,649,ls),
(104,649,o),
(101,644,o),
(100,635,c),
(138,626,l),
(132,634,l),
(87,347,l),
(95,354,l),
(61,345,ls),
(55,343,o),
(52,339,o),
(51,331,c),
(144,331,ls),
(151,331,o),
(154,336,o),
(155,345,c),
(111,354,l),
(117,345,l),
(163,633,l),
(156,626,l),
(172,630,o),
(194,633,o),
(209,633,cs),
(250,633,o),
(273,612,o),
(273,572,cs),
(273,525,o),
(235,491,o),
(181,491,cs),
(162,491,o),
(140,494,o),
(133,497,c)
);
}
);
userData = {
RMXScaler = {
height = 50;
verticalShift = 330;
width = 52;
};
};
width = 314;
},
{
anchors = (
{
name = bottom;
pos = (191,330);
},
{
name = top;
pos = (219,651);
}
);
layerId = "7B53E429-1BF0-49C5-9F57-63EEBF39C6CC";
shapes = (
{
closed = 1;
nodes = (
(316,324,o),
(338,334,o),
(353,345,c),
(319,374,o),
(288,432,o),
(272,497,c),
(209,477,l),
(223,356,o),
(250,324,o),
(294,324,cs)
);
},
{
closed = 1;
nodes = (
(161,464,l),
(175,459,o),
(194,455,o),
(212,455,cs),
(288,455,o),
(344,505,o),
(344,572,cs),
(344,621,o),
(312,651,o),
(258,651,cs),
(105,651,l),
(97,641,o),
(92,632,o),
(89,616,c),
(131,605,l),
(123,617,l),
(82,362,l),
(93,374,l),
(56,361,ls),
(51,359,o),
(46,347,o),
(44,330,c),
(183,330,l),
(191,340,o),
(195,348,o),
(198,364,c),
(147,375,l),
(158,356,l),
(199,610,l),
(187,601,l),
(203,605,o),
(215,606,o),
(222,606,cs),
(250,606,o),
(263,593,o),
(263,566,cs),
(263,528,o),
(238,501,o),
(203,501,cs),
(193,501,o),
(178,504,o),
(170,507,c)
);
}
);
userData = {
RMXScaler = {
adjustSpace = 5;
height = 50;
verticalShift = 330;
weight = -100;
width = 52;
};
};
width = 345;
},
{
anchors = (
{
name = bottom;
pos = (185,330);
},
{
name = top;
pos = (212,651);
}
);
layerId = "3EF2C2DE-A0EB-47A2-88E7-F2C629C295C3";
shapes = (
{
closed = 1;
nodes = (
(308,325,o),
(323,331,o),
(332,340,c),
(292,363,o),
(251,430,o),
(236,492,c),
(198,480,l),
(218,377,o),
(258,325,o),
(293,325,cs)
);
},
{
closed = 1;
nodes = (
(140,475,l),
(153,471,o),
(175,468,o),
(191,468,cs),
(264,468,o),
(320,515,o),
(320,576,cs),
(320,622,o),
(289,651,o),
(237,650,cs),
(109,650,ls),
(102,646,o),
(98,640,o),
(96,629,c),
(136,619,l),
(129,629,l),
(85,351,l),
(94,361,l),
(59,349,ls),
(54,347,o),
(50,342,o),
(49,331,c),
(156,331,ls),
(164,334,o),
(167,340,o),
(169,351,c),
(123,361,l),
(130,349,l),
(175,625,l),
(166,618,l),
(182,622,o),
(201,624,o),
(213,624,cs),
(250,624,o),
(270,606,o),
(270,570,cs),
(270,526,o),
(236,494,o),
(188,494,cs),
(172,494,o),
(152,497,o),
(145,500,c)
);
}
);
width = 323.65385;
}
);
userData = {
RMXScaler = {
source = R;
};
};
},
{
export = 0;
glyphname = S.sup;
kernLeft = S.sup;
kernRight = S.sup;
layers = (
{
layerId = "E1BF09ED-4302-4AD3-9939-8FDA35DE0FE8";
shapes = (
{
closed = 1;
nodes = (
(210,324,o),
(258,376,o),
(258,433,cs),
(258,475,o),
(227,492,o),
(184,511,cs),
(146,528,o),
(122,543,o),
(122,572,cs),
(122,607,o),
(148,639,o),
(190,639,cs),
(223,639,o),
(241,624,o),
(251,613,c),
(245,629,l),
(243,578,ls),
(244,573,o),
(251,569,o),
(260,569,c),
(277,632,l),
(256,644,o),
(228,658,o),
(195,658,cs),
(134,658,o),
(92,613,o),
(92,557,cs),
(92,517,o),
(121,500,o),
(163,481,cs),
(199,465,o),
(223,450,o),
(223,419,cs),
(223,373,o),
(188,342,o),
(144,342,cs),
(112,342,o),
(84,359,o),
(72,369,c),
(78,351,l),
(85,423,l),
(79,423,o),
(69,422,o),
(62,416,c),
(46,352,l),
(68,340,o),
(106,324,o),
(144,324,cs)
);
}
);
userData = {
RMXScaler = {
height = 50;
verticalShift = 330;
width = 52;
};
};
width = 252;
},
{
layerId = "7B53E429-1BF0-49C5-9F57-63EEBF39C6CC";
shapes = (
{
closed = 1;
nodes = (
(237,324,o),
(288,378,o),
(288,441,cs),
(288,495,o),
(243,513,o),
(206,530,cs),
(182,541,o),
(158,550,o),
(158,572,cs),
(158,599,o),
(176,613,o),
(202,613,cs),
(240,613,o),
(252,595,o),
(256,584,c),
(244,614,l),
(246,555,ls),
(247,547,o),
(263,544,o),
(280,543,c),
(304,627,l),
(292,637,o),
(256,658,o),
(207,658,cs),
(134,658,o),
(87,605,o),
(87,542,cs),
(87,493,o),
(124,475,o),
(159,459,cs),
(188,445,o),
(209,436,o),
(209,412,cs),
(209,383,o),
(185,368,o),
(154,368,cs),
(118,368,o),
(103,388,o),
(98,397,c),
(108,381,l),
(111,451,l),
(97,451,o),
(79,450,o),
(70,444,c),
(42,358,l),
(60,345,o),
(102,324,o),
(158,324,cs)
);
}
);
userData = {
RMXScaler = {
adjustSpace = 5;
height = 50;
verticalShift = 330;
weight = -100;
width = 52;
};
};
width = 277;
},
{
layerId = "3EF2C2DE-A0EB-47A2-88E7-F2C629C295C3";
shapes = (
{
closed = 1;
nodes = (
(219,324,o),
(268,377,o),
(268,436,cs),
(268,482,o),
(231,499,o),
(191,517,cs),
(158,532,o),
(134,545,o),
(134,572,cs),
(134,604,o),
(157,630,o),
(194,630,cs),
(228,630,o),
(245,614,o),
(253,603,c),
(245,625,l),
(244,570,ls),
(245,564,o),
(255,561,o),
(267,560,c),
(286,630,l),
(268,642,o),
(237,658,o),
(199,658,cs),
(134,658,o),
(90,610,o),
(90,553,cs),
(90,509,o),
(122,492,o),
(162,474,cs),
(195,458,o),
(219,446,o),
(219,417,cs),
(219,376,o),
(187,351,o),
(147,351,cs),
(114,351,o),
(90,369,o),
(81,378,c),
(88,361,l),
(94,432,l),
(85,432,o),
(72,431,o),
(65,425,c),
(45,354,l),
(65,342,o),
(105,324,o),
(148,324,cs)
);
}
);
width = 259.73077;
}
);
userData = {
RMXScaler = {
source = S;
};
};
},
{
export = 0;
glyphname = T.sup;
kernLeft = T.sup;
kernRight = T.sup;
layers = (
{
layerId = "E1BF09ED-4302-4AD3-9939-8FDA35DE0FE8";
shapes = (
{
closed = 1;
nodes = (
(217,332,ls),
(223,332,o),
(226,336,o),
(227,348,c),
(178,358,l),
(182,352,l),
(226,631,l),
(220,625,l),
(318,633,l),
(313,638,l),
(319,586,ls),
(320,580,o),
(326,578,o),
(333,578,c),
(344,651,l),
(83,651,l),
(71,578,l),
(78,578,o),
(85,580,o),
(87,586,cs),
(111,638,l),
(103,633,l),
(199,625,l),
(195,631,l),
(151,351,l),
(157,357,l),
(117,346,ls),
(111,344,o),
(107,336,o),
(107,332,c)
);
}
);
userData = {
RMXScaler = {
height = 50;
verticalShift = 330;
width = 52;
};
};
width = 291;
},
{
layerId = "7B53E429-1BF0-49C5-9F57-63EEBF39C6CC";
shapes = (
{
closed = 1;
nodes = (
(258,330,l),
(268,343,o),
(272,351,o),
(274,368,c),
(213,383,l),
(221,372,l),
(258,603,l),
(252,598,l),
(318,608,l),
(312,612,l),
(323,560,ls),
(324,554,o),
(335,551,o),
(352,551,c),
(367,651,l),
(85,651,l),
(69,551,l),
(87,551,o),
(98,554,o),
(101,560,cs),
(128,612,l),
(122,608,l),
(184,598,l),
(180,603,l),
(143,368,l),
(152,382,l),
(101,362,ls),
(95,360,o),
(91,343,o),
(89,330,c)
);
}
);
userData = {
RMXScaler = {
adjustSpace = 5;
height = 50;
verticalShift = 330;
weight = -100;
width = 52;
};
};
width = 316;
},
{
layerId = "3EF2C2DE-A0EB-47A2-88E7-F2C629C295C3";
shapes = (
{
closed = 1;
nodes = (
(230,331,ls),
(237,336,o),
(241,340,o),
(242,355,c),
(190,366,l),
(194,359,l),
(237,622,l),
(231,616,l),
(318,625,l),
(313,629,l),
(320,577,ls),
(321,571,o),
(329,569,o),
(339,569,c),
(352,651,l),
(84,651,l),
(70,569,l),
(81,569,o),
(89,571,o),
(91,577,cs),
(116,629,l),
(109,625,l),
(195,616,l),
(191,622,l),
(148,356,l),
(155,365,l),
(113,350,ls),
(107,348,o),
(103,338,o),
(102,331,c)
);
}
);
width = 298.73077;
}
);
userData = {
RMXScaler = {
source = T;
};
};
},
{
color = 8;
glyphname = T_h;
kernLeft = T;
kernRight = n;
layers = (
{
anchors = (
{
name = bottom;
pos = (203,0);
},
{
name = center;
pos = (254,321);
},
{
name = top;
pos = (305,641);
}
);
background = {
shapes = (
{
closed = 1;
nodes = (
(286,0,ls),
(299,0,o),
(302,4,o),
(305,18,c),
(213,34,l),
(222,22,l),
(317,625,l),
(305,612,l),
(551,627,l),
(552,641,l),
(81,641,l),
(63,527,l),
(71,527,o),
(79,531,o),
(84,543,cs),
(119,634,l),
(105,625,l),
(295,612,l),
(286,625,l),
(191,23,l),
(205,34,l),
(134,20,ls),
(123,18,o),
(118,12,o),
(116,0,c)
);
},
{
closed = 1;
nodes = (
(464,-12,o),
(479,-10,o),
(490,-4,c),
(474,60,l),
(474,21,l),
(527,351,l),
(588,407,o),
(633,438,o),
(685,438,cs),
(738,438,o),
(765,398,o),
(765,354,cs),
(765,234,o),
(703,125,o),
(703,44,cs),
(703,6,o),
(718,-12,o),
(738,-12,cs),
(756,-12,o),
(774,-9,o),
(808,25,c),
(803,36,l),
(786,25,o),
(773,19,o),
(755,19,cs),
(738,19,o),
(732,27,o),
(732,47,cs),
(732,123,o),
(792,236,o),
(792,356,cs),
(792,417,o),
(755,462,o),
(690,462,cs),
(647,462,o),
(584,427,o),
(533,371,c),
(528,371,l),
(543,472,o),
(563,616,o),
(563,677,cs),
(563,694,o),
(558,699,o),
(543,699,c),
(533,462,o),
(442,55,o),
(442,0,cs),
(442,-8,o),
(445,-12,o),
(454,-12,cs)
);
}
);
};
layerId = "E1BF09ED-4302-4AD3-9939-8FDA35DE0FE8";
shapes = (
{
closed = 1;
nodes = (
(286,0,ls),
(299,0,o),
(302,4,o),
(305,18,c),
(213,34,l),
(222,22,l),
(317,625,l),
(305,612,l),
(551,627,l),
(552,641,l),
(81,641,l),
(63,527,l),
(71,527,o),
(79,531,o),
(84,543,cs),
(119,634,l),
(105,625,l),
(295,612,l),
(286,625,l),
(191,23,l),
(205,34,l),
(134,20,ls),
(123,18,o),
(118,12,o),
(116,0,c)
);
},
{
closed = 1;
nodes = (
(464,-12,o),
(479,-10,o),
(490,-4,c),
(474,60,l),
(474,21,l),
(527,351,l),
(588,407,o),
(633,438,o),
(685,438,cs),
(738,438,o),
(765,398,o),
(765,354,cs),
(765,234,o),
(703,125,o),
(703,44,cs),
(703,6,o),
(718,-12,o),
(738,-12,cs),
(756,-12,o),
(774,-9,o),
(808,25,c),
(803,36,l),
(786,25,o),
(773,19,o),
(755,19,cs),
(738,19,o),
(732,27,o),
(732,47,cs),
(732,123,o),
(792,236,o),
(792,356,cs),
(792,417,o),
(755,462,o),
(690,462,cs),
(647,462,o),
(584,427,o),
(533,371,c),
(528,371,l),
(543,472,o),
(563,617,o),
(563,681,cs),
(563,693,o),
(559,698,o),
(551,698,cs),
(548,698,o),
(545,697,o),
(543,696,c),
(533,460,o),
(442,54,o),
(442,0,cs),
(442,-8,o),
(445,-12,o),
(454,-12,cs)
);
}
);
width = 878;
},
{
anchors = (
{
name = bottom;
pos = (246,0);
},
{
name = center;
pos = (297,321);
},
{
name = top;
pos = (347,641);
}
);
guides = (
{
angle = 188.8204;
pos = (406,531);
}
);
layerId = "7B53E429-1BF0-49C5-9F57-63EEBF39C6CC";
shapes = (
{
closed = 1;
nodes = (
(419,0,l),
(438,29,o),
(445,50,o),
(449,76,c),
(322,106,l),
(344,75,l),
(418,544,l),
(406,531,l),
(706,577,l),
(716,641,l),
(74,641,l),
(42,440,l),
(88,440,o),
(104,448,o),
(110,460,cs),
(153,558,l),
(138,549,l),
(254,531,l),
(245,544,l),
(170,70,l),
(196,107,l),
(93,69,ls),
(82,65,o),
(73,39,o),
(67,0,c)
);
},
{
closed = 1;
nodes = (
(640,-12,o),
(702,-2,o),
(743,19,c),
(716,142,l),
(724,78,l),
(765,310,l),
(791,341,o),
(815,352,o),
(831,352,cs),
(842,352,o),
(852,347,o),
(852,317,cs),
(852,253,o),
(806,152,o),
(806,82,cs),
(806,23,o),
(839,-12,o),
(896,-12,cs),
(950,-12,o),
(1024,19,o),
(1062,58,c),
(1032,110,l),
(1021,104,o),
(1007,100,o),
(997,100,cs),
(985,100,o),
(978,107,o),
(978,119,cs),
(978,156,o),
(1029,265,o),
(1029,345,cs),
(1029,405,o),
(1001,462,o),
(932,462,cs),
(882,462,o),
(826,432,o),
(777,377,c),
(773,377,l),
(798,476,o),
(827,616,o),
(827,657,cs),
(827,694,o),
(800,734,o),
(743,734,cs),
(722,734,o),
(697,729,o),
(670,720,c),
(655,553,o),
(543,118,o),
(543,37,cs),
(543,9,o),
(557,-12,o),
(606,-12,cs)
);
}
);
width = 1094;
},
{
anchors = (
{
name = bottom;
pos = (217,0);
},
{
name = center;
pos = (268,321);
},
{
name = top;
pos = (318,641);
}
);
layerId = "3EF2C2DE-A0EB-47A2-88E7-F2C629C295C3";
shapes = (
{
closed = 1;
nodes = (
(330,0,ls),
(344,10,o),
(349,19,o),
(352,37,c),
(248,57,l),
(261,39,l),
(350,599,l),
(338,586,l),
(601,611,l),
(605,641,l),
(79,641,l),
(56,499,l),
(77,499,o),
(87,504,o),
(93,516,cs),
(130,609,l),
(116,600,l),
(282,586,l),
(273,599,l),
(184,38,l),
(202,58,l),
(121,36,ls),
(110,33,o),
(104,21,o),
(100,0,c)
);
},
{
closed = 1;
nodes = (
(521,-12,o),
(551,-8,o),
(572,4,c),
(553,86,l),
(555,40,l),
(604,338,l),
(654,385,o),
(692,410,o),
(732,410,cs),
(772,410,o),
(793,382,o),
(793,342,cs),
(793,241,o),
(737,134,o),
(737,56,cs),
(737,11,o),
(757,-12,o),
(789,-12,cs),
(819,-12,o),
(855,0,o),
(891,36,c),
(877,60,l),
(862,50,o),
(849,45,o),
(834,45,cs),
(818,45,o),
(812,53,o),
(812,70,cs),
(812,134,o),
(868,246,o),
(868,353,cs),
(868,413,o),
(835,462,o),
(769,462,cs),
(723,462,o),
(663,428,o),
(613,373,c),
(608,373,l),
(626,473,o),
(648,617,o),
(648,673,cs),
(648,693,o),
(638,710,o),
(613,710,cs),
(605,710,o),
(594,708,o),
(584,704,c),
(572,491,o),
(475,75,o),
(475,12,cs),
(475,-3,o),
(481,-12,o),
(503,-12,cs)
);
}
);
width = 936;
}
);
metricLeft = T;
metricRight = h;
},
{
color = 4;
glyphname = a;
kernLeft = o;
kernRight = a;
layers = (
{
anchors = (
{
name = bottom;
pos = (245,0);
},
{
name = ogonek;
pos = (472,9);
},
{
name = top;
pos = (323,443);
}
);
guides = (
{
angle = 5.3145;
pos = (14,157);
}
);
layerId = "7B53E429-1BF0-49C5-9F57-63EEBF39C6CC";
shapes = (
{
closed = 1;
nodes = (
(201,-12,o),
(260,16,o),
(296,79,c),
(300,79,l),
(300,55,o),
(308,31,o),
(324,13,cs),
(338,-2,o),
(358,-12,o),
(385,-12,cs),
(448,-12,o),
(510,24,o),
(543,58,c),
(517,110,l),
(504,103,o),
(490,100,o),
(484,100,cs),
(471,100,o),
(463,107,o),
(463,132,cs),
(463,222,o),
(529,403,o),
(529,424,cs),
(529,456,o),
(495,462,o),
(448,462,c),
(342,410,l),
(316,174,o),
(280,97,o),
(236,97,cs),
(207,97,o),
(197,124,o),
(197,174,cs),
(197,237,o),
(224,399,o),
(310,399,cs),
(376,399,o),
(413,367,o),
(426,352,c),
(457,401,l),
(415,449,o),
(363,462,o),
(300,462,cs),
(144,462,o),
(14,331,o),
(14,157,cs),
(14,35,o),
(68,-12,o),
(151,-12,cs)
);
}
);
width = 562;
},
{
anchors = (
{
name = bottom;
pos = (210,0);
},
{
name = ogonek;
pos = (412,9);
},
{
name = top;
pos = (288,443);
}
);
guides = (
{
angle = 254.6631;
pos = (309,462);
},
{
angle = -78.3664;
pos = (309,462);
}
);
layerId = "E1BF09ED-4302-4AD3-9939-8FDA35DE0FE8";
shapes = (
{
closed = 1;
nodes = (
(245,-12,o),
(298,36,o),
(327,123,c),
(333,123,l),
(329,97,o),
(326,70,o),
(326,44,cs),
(326,6,o),
(341,-12,o),
(361,-12,cs),
(379,-12,o),
(397,-9,o),
(431,25,c),
(426,36,l),
(409,25,o),
(396,19,o),
(378,19,cs),
(361,19,o),
(355,27,o),
(355,47,cs),
(355,174,o),
(424,437,o),
(424,454,cs),
(424,461,o),
(417,462,o),
(407,462,c),
(392,437,l),
(331,116,o),
(288,10,o),
(188,10,cs),
(110,10,o),
(87,100,o),
(87,163,cs),
(87,330,o),
(187,444,o),
(313,444,cs),
(354,444,o),
(387,433,o),
(406,423,c),
(408,435,l),
(380,454,o),
(348,462,o),
(309,462,cs),
(164,462,o),
(55,331,o),
(55,157,cs),
(55,48,o),
(99,-12,o),
(179,-12,cs)
);
}
);
width = 496;
},
{
anchors = (
{
name = bottom;
pos = (216,0);
},
{
name = ogonek;
pos = (418,9);
},
{
name = top;
pos = (294,443);
}
);
layerId = "3EF2C2DE-A0EB-47A2-88E7-F2C629C295C3";
shapes = (
{
closed = 1;
nodes = (
(224,-12,o),
(278,31,o),
(308,109,c),
(312,109,l),
(308,88,o),
(306,67,o),
(307,51,cs),
(307,10,o),
(324,-12,o),
(357,-12,cs),
(387,-12,o),
(428,9,o),
(462,43,c),
(450,66,l),
(433,55,o),
(417,49,o),
(403,49,cs),
(387,49,o),
(381,57,o),
(381,76,cs),
(381,191,o),
(450,428,o),
(450,443,cs),
(450,459,o),
(433,462,o),
(411,462,c),
(366,424,l),
(326,148,o),
(277,35,o),
(196,35,cs),
(144,35,o),
(120,82,o),
(120,165,cs),
(120,317,o),
(192,429,o),
(296,429,cs),
(369,429,o),
(401,400,o),
(417,386,c),
(420,414,l),
(384,447,o),
(343,462,o),
(289,462,cs),
(146,462,o),
(36,331,o),
(36,157,cs),
(36,48,o),
(81,-12,o),
(159,-12,cs)
);
}
);
width = 503.61538;
}
);
metricLeft = "=o";
unicode = 97;
},
{
color = 4;
glyphname = ae;
kernLeft = o;
kernRight = e;
layers = (
{
anchors = (
{
name = bottom;
pos = (318.918,0);
},
{
name = top;
pos = (409,443);
}
);
layerId = "E1BF09ED-4302-4AD3-9939-8FDA35DE0FE8";
shapes = (
{
ref = a.ae;
},
{
pos = (288,0);
ref = e;
}
);
width = 708;
},
{
anchors = (
{
name = bottom;
pos = (351.918,0);
},
{
name = top;
pos = (432,443);
}
);
background = {
shapes = (
{
closed = 1;
nodes = (
(201,-12,o),
(260,16,o),
(296,79,c),
(300,79,l),
(300,55,o),
(308,31,o),
(324,13,cs),
(338,-2,o),
(358,-12,o),
(385,-12,cs),
(448,-12,o),
(510,24,o),
(543,58,c),
(517,110,l),
(504,103,o),
(490,100,o),
(484,100,cs),
(471,100,o),
(463,107,o),
(463,132,cs),
(463,222,o),
(529,403,o),
(529,424,cs),
(529,456,o),
(495,462,o),
(448,462,c),
(342,410,l),
(316,174,o),
(280,97,o),
(236,97,cs),
(207,97,o),
(197,124,o),
(197,174,cs),
(197,237,o),
(224,399,o),
(310,399,cs),
(376,399,o),
(413,367,o),
(426,352,c),
(457,401,l),
(415,449,o),
(363,462,o),
(300,462,cs),
(144,462,o),
(14,331,o),
(14,157,cs),
(14,35,o),
(68,-12,o),
(151,-12,cs)
);
}
);
};
layerId = "7B53E429-1BF0-49C5-9F57-63EEBF39C6CC";
shapes = (
{
ref = a.ae;
},
{
pos = (298,0);
ref = e;
}
);
width = 774;
},
{
anchors = (
{
name = bottom;
pos = (319,0);
},
{
name = top;
pos = (409,443);
}
);
background = {
shapes = (
{
closed = 1;
nodes = (
(224,-12,o),
(278,31,o),
(308,109,c),
(312,109,l),
(308,88,o),
(306,67,o),
(307,51,cs),
(307,10,o),
(324,-12,o),
(357,-12,cs),
(387,-12,o),
(428,9,o),
(462,43,c),
(450,66,l),
(433,55,o),
(417,49,o),
(403,49,cs),
(387,49,o),
(381,57,o),
(381,76,cs),
(381,191,o),
(450,428,o),
(450,443,cs),
(450,459,o),
(433,462,o),
(411,462,c),
(366,424,l),
(326,148,o),
(277,35,o),
(196,35,cs),
(144,35,o),
(120,82,o),
(120,165,cs),
(120,317,o),
(192,429,o),
(296,429,cs),
(369,429,o),
(401,400,o),
(417,386,c),
(420,414,l),
(384,447,o),
(343,462,o),
(289,462,cs),
(146,462,o),
(36,331,o),
(36,157,cs),
(36,48,o),
(81,-12,o),
(159,-12,cs)
);
}
);
};
layerId = "3EF2C2DE-A0EB-47A2-88E7-F2C629C295C3";
shapes = (
{
ref = a.ae;
},
{
pos = (284,0);
ref = e;
}
);
width = 715;
}
);
metricRight = e;
unicode = 230;
},
{
color = 4;
glyphname = b;
kernLeft = l;
kernRight = o;
layers = (
{
anchors = (
{
name = bottom;
pos = (255,7);
},
{
name = top;
pos = (383,733);
}
);
layerId = "7B53E429-1BF0-49C5-9F57-63EEBF39C6CC";
shapes = (
{
closed = 1;
nodes = (
(221,40,l),
(247,276,o),
(283,353,o),
(327,353,cs),
(356,353,o),
(366,326,o),
(366,276,cs),
(366,213,o),
(339,51,o),
(253,51,cs),
(187,51,o),
(150,83,o),
(137,98,c),
(106,49,l),
(148,1,o),
(200,-12,o),
(263,-12,cs),
(419,-12,o),
(549,119,o),
(549,293,cs),
(549,415,o),
(495,462,o),
(412,462,cs),
(362,462,o),
(303,434,o),
(267,371,c),
(263,371,l),
(293,472,o),
(325,593,o),
(325,657,cs),
(325,694,o),
(298,734,o),
(241,734,cs),
(193,734,o),
(120,706,o),
(63,664,c),
(89,615,l),
(125,628,o),
(159,634,o),
(188,634,cs),
(210,634,o),
(228,631,o),
(241,624,c),
(159,679,l),
(159,569,o),
(34,42,o),
(34,26,cs),
(34,-6,o),
(68,-12,o),
(115,-12,c)
);
}
);
width = 562;
},
{
anchors = (
{
name = bottom;
pos = (721,0);
},
{
name = top;
pos = (849,726);
}
);
layerId = "E1BF09ED-4302-4AD3-9939-8FDA35DE0FE8";
shapes = (
{
closed = 1;
nodes = (
(101,13,l),
(162,334,o),
(205,440,o),
(305,440,cs),
(383,440,o),
(406,350,o),
(406,287,cs),
(406,120,o),
(306,6,o),
(180,6,cs),
(139,6,o),
(106,17,o),
(87,27,c),
(85,15,l),
(113,-4,o),
(145,-12,o),
(184,-12,cs),
(329,-12,o),
(438,119,o),
(438,293,cs),
(438,402,o),
(394,462,o),
(314,462,cs),
(248,462,o),
(195,414,o),
(166,327,c),
(160,327,l),
(185,450,o),
(212,621,o),
(212,697,cs),
(212,719,o),
(202,733,o),
(168,733,cs),
(147,733,o),
(124,724,o),
(100,701,c),
(104,690,l),
(122,700,o),
(141,706,o),
(163,706,cs),
(173,706,o),
(185,704,o),
(197,698,c),
(191,713,l),
(176,458,o),
(69,9,o),
(69,-4,cs),
(69,-11,o),
(76,-12,o),
(86,-12,c)
);
}
);
width = 491;
},
{
anchors = (
{
name = bottom;
pos = (279,0);
},
{
name = top;
pos = (407,726);
}
);
layerId = "3EF2C2DE-A0EB-47A2-88E7-F2C629C295C3";
shapes = (
{
closed = 1;
nodes = (
(129,27,l),
(169,303,o),
(218,416,o),
(299,416,cs),
(351,416,o),
(375,369,o),
(375,286,cs),
(375,134,o),
(302,22,o),
(199,22,cs),
(125,22,o),
(93,51,o),
(78,65,c),
(75,37,l),
(111,4,o),
(152,-11,o),
(205,-11,cs),
(350,-11,o),
(459,120,o),
(459,294,cs),
(459,403,o),
(415,463,o),
(336,463,cs),
(269,463,o),
(212,418,o),
(180,335,c),
(176,335,l),
(203,449,o),
(231,603,o),
(231,675,cs),
(231,714,o),
(214,734,o),
(179,734,cs),
(149,734,o),
(107,713,o),
(74,680,c),
(86,656,l),
(108,666,o),
(129,670,o),
(148,670,cs),
(162,670,o),
(173,668,o),
(181,663,c),
(165,682,l),
(164,553,o),
(45,23,o),
(45,8,cs),
(45,-8,o),
(61,-12,o),
(83,-12,c)
);
}
);
width = 493.73077;
}
);
metricLeft = l;
metricRight = o;
unicode = 98;
},
{
color = 4;
glyphname = c;
kernLeft = o;
kernRight = c;
layers = (
{
anchors = (
{
name = bottom;
pos = (192,0);
},
{
name = top;
pos = (293,443);
}
);
guides = (
{
angle = 13.0919;
pos = (14,159);
}
);
layerId = "7B53E429-1BF0-49C5-9F57-63EEBF39C6CC";
shapes = (
{
closed = 1;
nodes = (
(288,-12,o),
(369,28,o),
(431,106,c),
(394,154,l),
(356,115,o),
(308,92,o),
(261,92,cs),
(217,92,o),
(193,124,o),
(193,185,cs),
(193,298,o),
(240,399,o),
(292,399,cs),
(318,399,o),
(330,380,o),
(330,337,cs),
(330,317,o),
(328,299,o),
(323,281,c),
(343,276,o),
(363,273,o),
(380,273,cs),
(437,273,o),
(475,306,o),
(475,357,cs),
(475,420,o),
(412,462,o),
(317,462,cs),
(149,462,o),
(14,327,o),
(14,161,cs),
(14,48,o),
(77,-12,o),
(193,-12,cs)
);
}
);
width = 471;
},
{
anchors = (
{
name = bottom;
pos = (171,0);
},
{
name = top;
pos = (272,443);
}
);
layerId = "E1BF09ED-4302-4AD3-9939-8FDA35DE0FE8";
shapes = (
{
closed = 1;
nodes = (
(254,-12,o),
(312,23,o),
(360,93,c),
(351,102,l),
(298,36,o),
(256,10,o),
(204,10,cs),
(129,10,o),
(85,68,o),
(85,169,cs),
(85,321,o),
(175,446,o),
(285,446,cs),
(335,446,o),
(358,421,o),
(358,369,cs),
(358,355,o),
(355,340,o),
(350,325,c),
(355,323,o),
(360,322,o),
(364,322,cs),
(381,322,o),
(392,341,o),
(392,371,cs),
(392,427,o),
(354,462,o),
(291,462,cs),
(165,462,o),
(53,316,o),
(53,151,cs),
(53,45,o),
(100,-12,o),
(186,-12,cs)
);
}
);
width = 420;
},
{
anchors = (
{
name = bottom;
pos = (173,0);
},
{
name = top;
pos = (274,443);
}
);
background = {
shapes = (
{
closed = 1;
nodes = (
(250,-12,o),
(314,28,o),
(361,104,c),
(347,119,l),
(299,55,o),
(254,27,o),
(200,27,cs),
(144,27,o),
(114,79,o),
(114,178,cs),
(114,324,o),
(175,430,o),
(261,430,cs),
(305,430,o),
(329,400,o),
(329,346,cs),
(329,333,o),
(328,321,o),
(326,307,c),
(336,304,o),
(345,302,o),
(354,302,cs),
(385,302,o),
(405,324,o),
(405,362,cs),
(405,421,o),
(353,462,o),
(277,462,cs),
(143,462,o),
(30,323,o),
(30,158,cs),
(30,50,o),
(83,-12,o),
(174,-12,cs)
);
}
);
};
layerId = "3EF2C2DE-A0EB-47A2-88E7-F2C629C295C3";
shapes = (
{
closed = 1;
nodes = (
(260,-12,o),
(325,25,o),
(378,97,c),
(360,119,l),
(312,62,o),
(268,37,o),
(217,37,cs),
(153,37,o),
(115,86,o),
(115,174,cs),
(115,314,o),
(191,431,o),
(282,431,cs),
(324,431,o),
(344,408,o),
(344,359,cs),
(344,343,o),
(341,327,o),
(336,311,c),
(346,308,o),
(356,306,o),
(364,306,cs),
(394,306,o),
(414,330,o),
(414,366,cs),
(414,425,o),
(368,462,o),
(294,462,cs),
(155,462,o),
(35,320,o),
(35,154,cs),
(35,46,o),
(88,-12,o),
(183,-12,cs)
);
}
);
width = 432;
}
);
metricLeft = "=o";
unicode = 99;
},
{
color = 4;
glyphname = d;
kernLeft = o;
kernRight = dcaron;
layers = (
{
anchors = (
{
name = bottom;
pos = (242,0);
},
{
name = center;
pos = (453,550);
},
{
name = top;
pos = (370,726);
},
{
name = topright;
pos = (569,550);
}
);
background = {
shapes = (
{
closed = 1;
nodes = (
(213,-12,o),
(266,24,o),
(294,79,c),
(298,79,l),
(299,13,o),
(347,-12,o),
(394,-12,cs),
(474,-12,o),
(526,23,o),
(560,57,c),
(534,110,l),
(524,104,o),
(513,100,o),
(497,100,cs),
(485,100,o),
(479,102,o),
(479,119,cs),
(479,230,o),
(556,619,o),
(556,682,cs),
(556,710,o),
(526,734,o),
(472,734,cs),
(422,734,o),
(348,708,o),
(303,664,c),
(331,614,l),
(353,622,o),
(377,626,o),
(395,626,cs),
(409,626,o),
(417,624,o),
(425,620,c),
(390,679,l),
(341,360,o),
(311,97,o),
(230,97,cs),
(205,97,o),
(197,126,o),
(197,155,cs),
(197,306,o),
(253,399,o),
(316,399,cs),
(353,399,o),
(388,388,o),
(426,353,c),
(456,401,l),
(411,452,o),
(354,462,o),
(309,462,cs),
(127,462,o),
(14,321,o),
(14,156,cs),
(14,45,o),
(80,-12,o),
(159,-12,cs)
);
},
{
closed = 1;
nodes = (
(-393,-12,o),
(-338,16,o),
(-304,79,c),
(-300,79,l),
(-300,55,o),
(-292,31,o),
(-276,13,cs),
(-262,-2,o),
(-242,-12,o),
(-215,-12,cs),
(-152,-12,o),
(-90,24,o),
(-57,58,c),
(-83,110,l),
(-96,103,o),
(-110,100,o),
(-116,100,cs),
(-129,100,o),
(-137,107,o),
(-137,132,cs),
(-137,222,o),
(-71,403,o),
(-71,424,cs),
(-71,456,o),
(-105,462,o),
(-152,462,c),
(-258,410,l),
(-284,174,o),
(-320,97,o),
(-364,97,cs),
(-393,97,o),
(-403,124,o),
(-403,174,cs),
(-403,237,o),
(-376,399,o),
(-290,399,cs),
(-224,399,o),
(-187,367,o),
(-174,352,c),
(-143,401,l),
(-185,449,o),
(-237,462,o),
(-300,462,cs),
(-456,462,o),
(-586,331,o),
(-586,157,cs),
(-586,35,o),
(-528,-12,o),
(-439,-12,cs)
);
}
);
};
layerId = "7B53E429-1BF0-49C5-9F57-63EEBF39C6CC";
shapes = (
{
closed = 1;
nodes = (
(201,-12,o),
(260,16,o),
(296,79,c),
(300,79,l),
(300,55,o),
(308,31,o),
(324,13,cs),
(338,-2,o),
(358,-12,o),
(385,-12,cs),
(448,-12,o),
(510,24,o),
(543,58,c),
(517,110,l),
(504,103,o),
(490,100,o),
(484,100,cs),
(471,100,o),
(463,107,o),
(463,132,cs),
(463,234,o),
(556,592,o),
(556,650,cs),
(556,695,o),
(529,734,o),
(474,734,cs),
(423,734,o),
(351,706,o),
(294,664,c),
(320,615,l),
(356,628,o),
(390,634,o),
(419,634,cs),
(441,634,o),
(459,631,o),
(472,624,c),
(390,679,l),
(343,360,o),
(314,97,o),
(236,97,cs),
(207,97,o),
(197,124,o),
(197,174,cs),
(197,237,o),
(224,399,o),
(310,399,cs),
(376,399,o),
(413,367,o),
(426,352,c),
(457,401,l),
(415,449,o),
(363,462,o),
(300,462,cs),
(144,462,o),
(14,331,o),
(14,157,cs),
(14,35,o),
(68,-12,o),
(151,-12,cs)
);
}
);
width = 567;
},
{
anchors = (
{
name = bottom;
pos = (208,0);
},
{
name = center;
pos = (419,550);
},
{
name = top;
pos = (336,726);
},
{
name = topright;
pos = (495,550);
}
);
background = {
shapes = (
{
closed = 1;
nodes = (
(249,-12,o),
(300,31,o),
(327,108,c),
(333,108,l),
(320,28,o),
(324,-12,o),
(366,-12,cs),
(379,-12,o),
(397,-9,o),
(431,25,c),
(426,36,l),
(409,24,o),
(393,19,o),
(379,19,cs),
(360,19,o),
(356,27,o),
(356,56,cs),
(356,167,o),
(448,619,o),
(448,682,cs),
(448,710,o),
(435,734,o),
(410,734,cs),
(386,734,o),
(363,724,o),
(339,697,c),
(344,686,l),
(357,694,o),
(373,701,o),
(391,701,cs),
(407,701,o),
(427,697,o),
(437,690,c),
(431,703,l),
(357,216,o),
(326,10,o),
(194,10,cs),
(128,10,o),
(87,64,o),
(87,165,cs),
(87,336,o),
(187,444,o),
(309,444,cs),
(332,444,o),
(374,438,o),
(406,423,c),
(408,442,l),
(377,456,o),
(347,462,o),
(312,462,cs),
(163,462,o),
(55,331,o),
(55,156,cs),
(55,45,o),
(100,-12,o),
(179,-12,cs)
);
}
);
};
guides = (
{
angle = 39.8056;
pos = (342,692);
}
);
layerId = "E1BF09ED-4302-4AD3-9939-8FDA35DE0FE8";
shapes = (
{
closed = 1;
nodes = (
(245,-12,o),
(298,36,o),
(327,123,c),
(333,123,l),
(329,97,o),
(326,70,o),
(326,44,cs),
(326,6,o),
(341,-12,o),
(361,-12,cs),
(379,-12,o),
(397,-9,o),
(431,25,c),
(426,36,l),
(409,25,o),
(396,19,o),
(378,19,cs),
(361,19,o),
(355,27,o),
(355,47,cs),
(355,163,o),
(448,608,o),
(448,697,cs),
(448,719,o),
(439,733,o),
(409,733,cs),
(388,733,o),
(365,724,o),
(341,701,c),
(345,690,l),
(363,700,o),
(382,706,o),
(404,706,cs),
(414,706,o),
(426,704,o),
(438,698,c),
(432,713,l),
(356,219,o),
(324,10,o),
(188,10,cs),
(110,10,o),
(87,100,o),
(87,163,cs),
(87,330,o),
(187,444,o),
(313,444,cs),
(354,444,o),
(387,433,o),
(406,423,c),
(408,435,l),
(380,454,o),
(348,462,o),
(309,462,cs),
(164,462,o),
(55,331,o),
(55,157,cs),
(55,48,o),
(99,-12,o),
(179,-12,cs)
);
}
);
width = 503;
},
{
anchors = (
{
name = bottom;
pos = (212,0);
},
{
name = center;
pos = (423,550);
},
{
name = top;
pos = (340,726);
},
{
name = topright;
pos = (501,550);
}
);
layerId = "3EF2C2DE-A0EB-47A2-88E7-F2C629C295C3";
shapes = (
{
closed = 1;
nodes = (
(230,-12,o),
(285,31,o),
(314,109,c),
(316,109,l),
(313,90,o),
(312,72,o),
(312,50,cs),
(313,14,o),
(328,-12,o),
(359,-12,cs),
(391,-12,o),
(432,9,o),
(466,43,c),
(454,66,l),
(437,55,o),
(421,49,o),
(406,49,cs),
(391,49,o),
(384,56,o),
(384,74,cs),
(384,185,o),
(475,617,o),
(475,683,cs),
(475,710,o),
(459,734,o),
(424,734,cs),
(393,734,o),
(352,713,o),
(318,680,c),
(331,656,l),
(352,666,o),
(374,670,o),
(393,670,cs),
(406,670,o),
(418,668,o),
(427,663,c),
(410,683,l),
(353,316,o),
(327,35,o),
(196,35,cs),
(143,35,o),
(118,83,o),
(118,165,cs),
(118,314,o),
(193,429,o),
(301,429,cs),
(329,429,o),
(354,422,o),
(383,410,c),
(388,439,l),
(358,454,o),
(326,462,o),
(289,462,cs),
(145,462,o),
(35,326,o),
(35,156,cs),
(35,45,o),
(81,-12,o),
(161,-12,cs)
);
}
);
width = 508.34615;
}
);
metricLeft = "=o";
unicode = 100;
},
{
color = 4;
glyphname = eth;
kernLeft = o;
kernRight = o;
layers = (
{
layerId = "E1BF09ED-4302-4AD3-9939-8FDA35DE0FE8";
shapes = (
{
closed = 1;
nodes = (
(372,-12,o),
(493,141,o),
(493,337,cs),
(493,440,o),
(454,533,o),
(377,610,cs),
(326,660,o),
(234,714,o),
(199,714,cs),
(190,714,o),
(185,710,o),
(184,704,c),
(348,645,o),
(463,491,o),
(457,338,c),
(470,338,l),
(438,389,o),
(378,420,o),
(313,420,cs),
(170,420,o),
(51,294,o),
(51,144,cs),
(51,49,o),
(113,-12,o),
(216,-12,cs)
);
},
{
closed = 1;
nodes = (
(134,7,o),
(88,57,o),
(88,145,cs),
(88,293,o),
(176,400,o),
(297,400,cs),
(369,400,o),
(437,360,o),
(461,303,c),
(456,325,l),
(455,307,o),
(453,289,o),
(450,270,cs),
(424,106,o),
(336,7,o),
(218,7,cs)
);
},
{
pos = (290,239);
ref = slashshortcomb;
}
);
width = 539;
},
{
layerId = "7B53E429-1BF0-49C5-9F57-63EEBF39C6CC";
shapes = (
{
closed = 1;
nodes = (
(412,-12,o),
(565,141,o),
(565,329,cs),
(565,399,o),
(545,465,o),
(507,531,cs),
(441,646,o),
(328,714,o),
(240,714,cs),
(196,714,o),
(180,699,o),
(174,660,c),
(327,603,o),
(393,475,o),
(385,381,c),
(405,395,l),
(386,403,o),
(360,408,o),
(332,408,cs),
(149,408,o),
(11,294,o),
(11,145,cs),
(11,46,o),
(88,-12,o),
(224,-12,cs)
);
},
{
closed = 1;
nodes = (
(224,51,o),
(205,84,o),
(205,144,cs),
(205,261,o),
(251,345,o),
(314,345,cs),
(365,345,o),
(396,329,o),
(436,272,c),
(381,354,l),
(381,353,o),
(381,353,o),
(381,352,cs),
(381,222,o),
(314,51,o),
(262,51,cs)
);
},
{
pos = (199,239);
ref = slashshortcomb;
}
);
width = 572;
},
{
layerId = "3EF2C2DE-A0EB-47A2-88E7-F2C629C295C3";
shapes = (
{
closed = 1;
nodes = (
(380,-12,o),
(511,141,o),
(511,334,cs),
(511,427,o),
(479,511,o),
(414,584,cs),
(358,656,o),
(260,714,o),
(207,714,cs),
(186,714,o),
(178,706,o),
(176,690,c),
(337,632,o),
(435,487,o),
(429,352,c),
(443,357,l),
(416,393,o),
(367,416,o),
(314,416,cs),
(159,416,o),
(32,294,o),
(32,144,cs),
(32,48,o),
(101,-12,o),
(213,-12,cs)
);
},
{
closed = 1;
nodes = (
(158,21,o),
(121,66,o),
(121,145,cs),
(121,282,o),
(195,382,o),
(298,382,cs),
(363,382,o),
(418,350,o),
(449,293,c),
(427,335,l),
(426,322,o),
(425,310,o),
(422,297,cs),
(405,143,o),
(325,21,o),
(227,21,cs)
);
},
{
alignment = -1;
pos = (255,239);
ref = slashshortcomb;
}
);
width = 539.42308;
}
);
metricLeft = o;
metricRight = o;
unicode = 240;
},
{
color = 4;
glyphname = e;
kernLeft = o;
kernRight = e;
layers = (
{
anchors = (
{
name = "#entry";
pos = (104,222);
},
{
name = bottom;
pos = (192,0);
},
{
name = ogonek;
pos = (312,8);
},
{
name = top;
pos = (305,443);
}
);
background = {
shapes = (
{
closed = 1;
nodes = (
(296,-12,o),
(378,28,o),
(441,106,c),
(410,142,l),
(369,103,o),
(317,80,o),
(267,80,cs),
(214,80,o),
(192,112,o),
(192,183,cs),
(192,291,o),
(237,399,o),
(282,399,cs),
(299,399,o),
(307,386,o),
(307,354,cs),
(307,270,o),
(253,227,o),
(142,227,c),
(140,171,l),
(357,171,o),
(484,239,o),
(484,354,cs),
(484,418,o),
(416,462,o),
(318,462,cs),
(151,462,o),
(13,324,o),
(13,156,cs),
(13,47,o),
(79,-12,o),
(199,-12,cs)
);
}
);
};
guides = (
{
angle = 188.5959;
pos = (13,156);
},
{
angle = 60.0685;
pos = (282,399);
},
{
angle = 260.1435;
pos = (441,106);
}
);
layerId = "7B53E429-1BF0-49C5-9F57-63EEBF39C6CC";
shapes = (
{
closed = 1;
nodes = (
(296,-12,o),
(378,28,o),
(441,106,c),
(404,154,l),
(365,115,o),
(315,92,o),
(267,92,cs),
(214,92,o),
(192,120,o),
(192,183,cs),
(192,291,o),
(237,399,o),
(282,399,cs),
(299,399,o),
(307,386,o),
(307,354,cs),
(307,270,o),
(253,227,o),
(142,227,c),
(140,171,l),
(357,171,o),
(484,239,o),
(484,354,cs),
(484,418,o),
(416,462,o),
(318,462,cs),
(151,462,o),
(13,324,o),
(13,156,cs),
(13,47,o),
(79,-12,o),
(199,-12,cs)
);
}
);
width = 476;
},
{
anchors = (
{
name = "#entry";
pos = (67,222);
},
{
name = bottom;
pos = (172,0);
},
{
name = ogonek;
pos = (265,9);
},
{
name = top;
pos = (285,443);
}
);
guides = (
{
angle = 260.1435;
pos = (353,93);
}
);
layerId = "E1BF09ED-4302-4AD3-9939-8FDA35DE0FE8";
shapes = (
{
closed = 1;
nodes = (
(250,-12,o),
(303,23,o),
(353,93,c),
(344,102,l),
(295,39,o),
(251,10,o),
(200,10,cs),
(129,10,o),
(86,71,o),
(86,162,cs),
(86,290,o),
(154,446,o),
(284,446,cs),
(332,446,o),
(365,419,o),
(365,374,cs),
(365,255,o),
(212,211,o),
(77,211,c),
(75,198,l),
(285,198,o),
(401,276,o),
(401,371,cs),
(401,425,o),
(364,462,o),
(296,462,cs),
(154,462,o),
(54,300,o),
(54,155,cs),
(54,52,o),
(92,-12,o),
(184,-12,cs)
);
}
);
width = 420;
},
{
anchors = (
{
name = "#entry";
pos = (72,222);
},
{
name = bottom;
pos = (171,0);
},
{
name = ogonek;
pos = (273,9);
},
{
name = top;
pos = (284,443);
}
);
layerId = "3EF2C2DE-A0EB-47A2-88E7-F2C629C295C3";
shapes = (
{
closed = 1;
nodes = (
(258,-12,o),
(320,25,o),
(375,97,c),
(356,119,l),
(311,64,o),
(265,37,o),
(215,37,cs),
(150,37,o),
(113,87,o),
(113,169,cs),
(113,290,o),
(174,431,o),
(276,431,cs),
(314,431,o),
(339,408,o),
(339,368,cs),
(339,260,o),
(218,216,o),
(91,216,c),
(89,189,l),
(301,189,o),
(421,264,o),
(421,365,cs),
(421,423,o),
(374,462,o),
(296,462,cs),
(146,462,o),
(34,308,o),
(34,155,cs),
(34,50,o),
(81,-12,o),
(182,-12,cs)
);
}
);
width = 431;
}
);
metricLeft = "=o";
unicode = 101;
},
{
color = 4;
glyphname = f;
kernLeft = f;
kernRight = f;
layers = (
{
anchors = (
{
name = bottom;
pos = (106,0);
},
{
name = top;
pos = (234,726);
}
);
guides = (
{
angle = 90;
pos = (-113,0);
},
{
angle = 90;
pos = (386,0);
}
);
layerId = "E1BF09ED-4302-4AD3-9939-8FDA35DE0FE8";
shapes = (
{
closed = 1;
nodes = (
(60,-258,o),
(99,-154,o),
(131,113,cs),
(184,561,ls),
(192,626,o),
(220,702,o),
(295,702,cs),
(315,702,o),
(332,695,o),
(355,676,c),
(361,686,o),
(363,691,o),
(363,698,cs),
(363,719,o),
(336,734,o),
(306,734,cs),
(212,734,o),
(167,632,o),
(141,423,cs),
(77,-97,ls),
(70,-154,o),
(47,-224,o),
(-20,-224,cs),
(-42,-224,o),
(-63,-214,o),
(-82,-198,c),
(-88,-207,o),
(-90,-213,o),
(-90,-222,cs),
(-90,-244,o),
(-59,-258,o),
(-34,-258,cs)
);
},
{
closed = 1;
nodes = (
(290,421,o),
(297,439,o),
(297,449,c),
(68,438,l),
(65,436,o),
(61,430,o),
(60,423,c),
(281,418,l)
);
}
);
width = 289;
},
{
anchors = (
{
name = bottom;
pos = (136,0);
},
{
name = top;
pos = (264,726);
}
);
layerId = "7B53E429-1BF0-49C5-9F57-63EEBF39C6CC";
shapes = (
{
closed = 1;
nodes = (
(49,-258,o),
(209,-132,o),
(237,101,cs),
(287,524,ls),
(297,605,o),
(316,626,o),
(371,626,cs),
(401,626,o),
(427,616,o),
(450,596,c),
(457,607,o),
(468,644,o),
(468,666,cs),
(468,717,o),
(426,734,o),
(375,734,cs),
(245,734,o),
(123,631,o),
(101,446,cs),
(41,-70,ls),
(34,-128,o),
(14,-150,o),
(-36,-150,cs),
(-68,-150,o),
(-93,-140,o),
(-116,-120,c),
(-127,-137,o),
(-135,-173,o),
(-135,-194,cs),
(-135,-235,o),
(-103,-258,o),
(-60,-258,cs)
);
},
{
closed = 1;
nodes = (
(375,345,o),
(397,412,o),
(397,449,c),
(73,437,l),
(47,426,o),
(23,388,o),
(17,343,c),
(336,334,l)
);
}
);
width = 349;
},
{
anchors = (
{
name = bottom;
pos = (107,0);
},
{
name = top;
pos = (235,726);
}
);
layerId = "3EF2C2DE-A0EB-47A2-88E7-F2C629C295C3";
shapes = (
{
closed = 1;
nodes = (
(60,-258,o),
(129,-135,o),
(157,102,cs),
(210,556,ls),
(218,631,o),
(241,668,o),
(298,668,cs),
(327,668,o),
(353,659,o),
(376,639,c),
(382,650,o),
(386,667,o),
(386,681,cs),
(386,715,o),
(363,734,o),
(319,734,cs),
(212,734,o),
(144,626,o),
(121,433,cs),
(58,-104,ls),
(51,-164,o),
(30,-192,o),
(-22,-192,cs),
(-53,-192,o),
(-79,-182,o),
(-101,-163,c),
(-108,-174,o),
(-112,-191,o),
(-112,-206,cs),
(-112,-240,o),
(-88,-258,o),
(-48,-258,cs)
);
},
{
closed = 1;
nodes = (
(306,389,o),
(319,429,o),
(319,452,c),
(65,436,l),
(54,432,o),
(43,414,o),
(41,394,c),
(283,383,l)
);
}
);
width = 291.30769;
}
);
unicode = 102;
},
{
color = 4;
glyphname = g;
kernLeft = o;
kernRight = g;
layers = (
{
anchors = (
{
name = bottom;
pos = (184,-258);
},
{
name = top;
pos = (316,443);
}
);
layerId = "7B53E429-1BF0-49C5-9F57-63EEBF39C6CC";
shapes = (
{
closed = 1;
nodes = (
(379,-258,o),
(463,-138,o),
(463,87,cs),
(463,191,o),
(529,400,o),
(529,424,cs),
(529,456,o),
(495,462,o),
(448,462,c),
(342,410,l),
(316,174,o),
(280,97,o),
(236,97,cs),
(207,97,o),
(197,124,o),
(197,174,cs),
(197,237,o),
(224,399,o),
(310,399,cs),
(376,399,o),
(413,367,o),
(426,352,c),
(457,401,l),
(415,449,o),
(363,462,o),
(300,462,cs),
(144,462,o),
(14,331,o),
(14,157,cs),
(14,35,o),
(68,-12,o),
(151,-12,cs),
(202,-12,o),
(262,16,o),
(299,79,c),
(303,79,l),
(299,-121,o),
(266,-185,o),
(208,-185,cs),
(175,-185,o),
(159,-160,o),
(159,-107,cs),
(159,-97,o),
(160,-84,o),
(162,-75,c),
(152,-70,o),
(129,-61,o),
(109,-61,cs),
(54,-61,o),
(-10,-79,o),
(-10,-153,cs),
(-10,-221,o),
(73,-258,o),
(162,-258,cs)
);
}
);
width = 539;
},
{
anchors = (
{
name = bottom;
pos = (157,-258);
},
{
name = top;
pos = (289,443);
}
);
guides = (
{
angle = 47.7263;
pos = (158,-244);
}
);
layerId = "E1BF09ED-4302-4AD3-9939-8FDA35DE0FE8";
shapes = (
{
closed = 1;
nodes = (
(300,-258,o),
(358,-135,o),
(358,92,cs),
(358,200,o),
(424,409,o),
(424,454,cs),
(424,461,o),
(417,462,o),
(407,462,c),
(392,437,l),
(331,116,o),
(288,10,o),
(188,10,cs),
(110,10,o),
(87,100,o),
(87,163,cs),
(87,330,o),
(187,444,o),
(313,444,cs),
(354,444,o),
(387,433,o),
(406,423,c),
(408,435,l),
(380,454,o),
(348,462,o),
(309,462,cs),
(164,462,o),
(55,331,o),
(55,157,cs),
(55,48,o),
(99,-12,o),
(179,-12,cs),
(245,-12,o),
(298,36,o),
(327,123,c),
(332,123,l),
(329,-155,o),
(271,-244,o),
(158,-244,cs),
(94,-244,o),
(63,-203,o),
(63,-144,cs),
(63,-131,o),
(64,-116,o),
(67,-101,c),
(62,-99,o),
(57,-98,o),
(54,-98,cs),
(33,-98,o),
(27,-115,o),
(27,-137,cs),
(27,-209,o),
(75,-258,o),
(145,-258,cs)
);
}
);
width = 476;
},
{
anchors = (
{
name = bottom;
pos = (161,-258);
},
{
name = top;
pos = (293,443);
}
);
layerId = "3EF2C2DE-A0EB-47A2-88E7-F2C629C295C3";
shapes = (
{
closed = 1;
nodes = (
(316,-258,o),
(385,-136,o),
(385,92,cs),
(385,219,o),
(450,416,o),
(450,443,cs),
(450,459,o),
(433,462,o),
(411,462,c),
(366,424,l),
(326,148,o),
(277,35,o),
(196,35,cs),
(144,35,o),
(120,82,o),
(120,165,cs),
(120,317,o),
(192,429,o),
(296,429,cs),
(369,429,o),
(401,400,o),
(417,386,c),
(420,414,l),
(384,447,o),
(343,462,o),
(289,462,cs),
(146,462,o),
(36,331,o),
(36,157,cs),
(36,48,o),
(81,-12,o),
(159,-12,cs),
(227,-12,o),
(285,37,o),
(315,125,c),
(320,125,l),
(319,-141,o),
(267,-225,o),
(167,-225,cs),
(113,-225,o),
(85,-191,o),
(85,-138,cs),
(85,-126,o),
(86,-113,o),
(88,-100,c),
(79,-97,o),
(69,-95,o),
(60,-95,cs),
(30,-95,o),
(8,-116,o),
(8,-153,cs),
(8,-215,o),
(62,-258,o),
(138,-258,cs)
);
}
);
width = 480.96154;
}
);
metricLeft = "=o";
unicode = 103;
},
{
color = 4;
glyphname = h;
kernLeft = l;
kernRight = n;
layers = (
{
anchors = (
{
name = bottom;
pos = (235,0);
},
{
name = center;
pos = (192,550);
},
{
name = top;
pos = (201,726);
}
);
layerId = "E1BF09ED-4302-4AD3-9939-8FDA35DE0FE8";
shapes = (
{
closed = 1;
nodes = (
(111,-12,o),
(126,-10,o),
(137,-4,c),
(121,60,l),
(121,21,l),
(174,351,l),
(235,407,o),
(280,438,o),
(332,438,cs),
(385,438,o),
(412,398,o),
(412,354,cs),
(412,234,o),
(350,125,o),
(350,44,cs),
(350,6,o),
(365,-12,o),
(385,-12,cs),
(403,-12,o),
(421,-9,o),
(455,25,c),
(450,36,l),
(433,25,o),
(420,19,o),
(402,19,cs),
(385,19,o),
(379,27,o),
(379,47,cs),
(379,123,o),
(439,236,o),
(439,356,cs),
(439,417,o),
(402,462,o),
(337,462,cs),
(294,462,o),
(231,427,o),
(180,371,c),
(175,371,l),
(191,479,o),
(212,632,o),
(212,697,cs),
(212,719,o),
(202,733,o),
(168,733,cs),
(147,733,o),
(124,724,o),
(100,701,c),
(104,690,l),
(122,700,o),
(141,706,o),
(163,706,cs),
(173,706,o),
(185,704,o),
(197,698,c),
(191,713,l),
(184,476,o),
(89,56,o),
(89,0,cs),
(89,-8,o),
(92,-12,o),
(101,-12,cs)
);
}
);
width = 525;
},
{
anchors = (
{
name = bottom;
pos = (266,0);
},
{
name = center;
pos = (214,550);
},
{
name = top;
pos = (245,726);
}
);
layerId = "7B53E429-1BF0-49C5-9F57-63EEBF39C6CC";
shapes = (
{
closed = 1;
nodes = (
(138,-12,o),
(200,-2,o),
(241,19,c),
(214,142,l),
(222,78,l),
(263,310,l),
(289,341,o),
(313,352,o),
(329,352,cs),
(340,352,o),
(350,347,o),
(350,317,cs),
(350,253,o),
(304,152,o),
(304,82,cs),
(304,23,o),
(337,-12,o),
(394,-12,cs),
(448,-12,o),
(522,19,o),
(560,58,c),
(530,110,l),
(519,104,o),
(505,100,o),
(495,100,cs),
(483,100,o),
(476,107,o),
(476,119,cs),
(476,156,o),
(527,265,o),
(527,345,cs),
(527,405,o),
(499,462,o),
(430,462,cs),
(380,462,o),
(324,432,o),
(275,377,c),
(271,377,l),
(296,476,o),
(325,616,o),
(325,657,cs),
(325,694,o),
(298,734,o),
(241,734,cs),
(193,734,o),
(120,706,o),
(63,664,c),
(89,615,l),
(125,628,o),
(159,634,o),
(188,634,cs),
(210,634,o),
(228,631,o),
(241,624,c),
(159,679,l),
(159,558,o),
(41,115,o),
(41,37,cs),
(41,9,o),
(55,-12,o),
(104,-12,cs)
);
}
);
width = 592;
},
{
anchors = (
{
name = bottom;
pos = (233,0);
},
{
name = center;
pos = (182,550);
},
{
name = top;
pos = (210,726);
}
);
layerId = "3EF2C2DE-A0EB-47A2-88E7-F2C629C295C3";
shapes = (
{
closed = 1;
nodes = (
(105,-12,o),
(133,-8,o),
(153,3,c),
(131,90,l),
(135,30,l),
(181,332,l),
(233,384,o),
(278,406,o),
(325,406,cs),
(361,406,o),
(378,382,o),
(378,344,cs),
(378,239,o),
(317,143,o),
(317,53,cs),
(317,11,o),
(339,-12,o),
(371,-12,cs),
(401,-12,o),
(442,8,o),
(476,43,c),
(464,66,l),
(447,55,o),
(432,49,o),
(417,49,cs),
(402,49,o),
(394,55,o),
(394,72,cs),
(394,142,o),
(453,244,o),
(453,345,cs),
(453,411,o),
(422,462,o),
(351,462,cs),
(300,462,o),
(240,424,o),
(188,365,c),
(184,365,l),
(205,468,o),
(231,629,o),
(231,675,cs),
(231,714,o),
(214,734,o),
(179,734,cs),
(149,734,o),
(107,713,o),
(74,680,c),
(86,656,l),
(108,666,o),
(129,670,o),
(148,670,cs),
(162,670,o),
(173,668,o),
(181,663,c),
(165,682,l),
(165,546,o),
(60,100,o),
(60,24,cs),
(60,-2,o),
(66,-12,o),
(90,-12,cs)
);
}
);
width = 519.88462;
}
);
metricLeft = l;
metricRight = n;
unicode = 104;
},
{
color = 4;
glyphname = idotless;
kernLeft = i;
kernRight = i;
layers = (
{
anchors = (
{
name = bottom;
pos = (94,0);
},
{
name = ogonek;
pos = (180,9);
},
{
name = top;
pos = (163,443);
}
);
background = {
shapes = (
{
closed = 1;
nodes = (
(182,36,l),
(165,25,o),
(153,19,o),
(138,19,cs),
(121,19,o),
(112,21,o),
(112,53,cs),
(112,104,o),
(175,342,o),
(175,401,cs),
(175,442,o),
(165,462,o),
(132,462,cs),
(112,462,o),
(81,438,o),
(71,425,c),
(76,414,l),
(93,425,o),
(109,429,o),
(127,429,cs),
(138,429,o),
(148,427,o),
(154,425,c),
(152,429,l),
(152,353,o),
(81,86,o),
(81,37,cs),
(81,1,o),
(99,-12,o),
(117,-12,cs),
(136,-12,o),
(155,-6,o),
(187,25,c)
);
}
);
};
guides = (
{
angle = 90;
pos = (41,0);
},
{
angle = 90;
pos = (227,0);
}
);
layerId = "E1BF09ED-4302-4AD3-9939-8FDA35DE0FE8";
shapes = (
{
closed = 1;
nodes = (
(135,-12,o),
(153,-9,o),
(187,25,c),
(182,36,l),
(165,25,o),
(152,19,o),
(134,19,cs),
(117,19,o),
(111,27,o),
(111,47,cs),
(111,135,o),
(184,388,o),
(184,426,cs),
(184,448,o),
(174,462,o),
(140,462,cs),
(119,462,o),
(96,453,o),
(72,430,c),
(76,419,l),
(94,429,o),
(113,435,o),
(135,435,cs),
(145,435,o),
(157,433,o),
(169,427,c),
(163,442,l),
(136,302,o),
(82,88,o),
(82,44,cs),
(82,6,o),
(97,-12,o),
(117,-12,cs)
);
}
);
width = 237;
},
{
anchors = (
{
name = bottom;
pos = (139,0);
},
{
name = ogonek;
pos = (225,9);
},
{
name = top;
pos = (217,443);
}
);
background = {
shapes = (
{
closed = 1;
nodes = (
(217,-12,o),
(284,24,o),
(318,58,c),
(292,110,l),
(280,103,o),
(268,100,o),
(257,100,cs),
(246,100,o),
(243,104,o),
(243,117,cs),
(243,131,o),
(298,342,o),
(298,382,cs),
(298,443,o),
(255,462,o),
(207,462,cs),
(157,462,o),
(89,437,o),
(42,392,c),
(68,341,l),
(89,349,o),
(111,355,o),
(129,355,cs),
(145,355,o),
(155,353,o),
(161,351,c),
(128,418,l),
(128,354,o),
(61,131,o),
(61,72,cs),
(61,28,o),
(93,-12,o),
(152,-12,cs)
);
}
);
};
guides = (
{
angle = 90;
pos = (86,0);
},
{
angle = 90;
pos = (272,0);
}
);
layerId = "7B53E429-1BF0-49C5-9F57-63EEBF39C6CC";
shapes = (
{
closed = 1;
nodes = (
(207,-12,o),
(281,20,o),
(318,58,c),
(288,110,l),
(277,104,o),
(263,100,o),
(254,100,cs),
(240,100,o),
(234,108,o),
(234,126,cs),
(234,154,o),
(295,328,o),
(295,385,cs),
(295,422,o),
(268,462,o),
(211,462,cs),
(163,462,o),
(90,434,o),
(33,392,c),
(59,343,l),
(95,356,o),
(129,362,o),
(158,362,cs),
(180,362,o),
(198,359,o),
(211,352,c),
(129,407,l),
(105,274,o),
(62,126,o),
(62,82,cs),
(62,23,o),
(95,-12,o),
(155,-12,cs)
);
}
);
width = 347;
},
{
anchors = (
{
name = bottom;
pos = (98,0);
},
{
name = ogonek;
pos = (184,9);
},
{
name = top;
pos = (166,443);
}
);
layerId = "3EF2C2DE-A0EB-47A2-88E7-F2C629C295C3";
shapes = (
{
closed = 1;
nodes = (
(152,-12,o),
(194,8,o),
(228,43,c),
(215,66,l),
(198,55,o),
(182,49,o),
(168,49,cs),
(153,49,o),
(147,56,o),
(147,74,cs),
(147,133,o),
(209,340,o),
(209,403,cs),
(209,442,o),
(192,462,o),
(152,462,cs),
(122,462,o),
(79,442,o),
(46,408,c),
(58,384,l),
(80,394,o),
(102,398,o),
(121,398,cs),
(136,398,o),
(147,396,o),
(153,392,c),
(140,420,l),
(136,339,o),
(71,128,o),
(71,54,cs),
(71,11,o),
(88,-12,o),
(122,-12,cs)
);
}
);
width = 264.92308;
}
);
metricLeft = n;
metricRight = l;
unicode = 305;
},
{
color = 4;
glyphname = jdotless;
kernLeft = j;
kernRight = j;
layers = (
{
anchors = (
{
name = bottom;
pos = (39,-258);
},
{
name = top;
pos = (153,443);
}
);
guides = (
{
angle = 90;
pos = (201,0);
},
{
angle = 90;
pos = (-106,0);
}
);
layerId = "E1BF09ED-4302-4AD3-9939-8FDA35DE0FE8";
shapes = (
{
closed = 1;
nodes = (
(61,-258,o),
(99,-151,o),
(141,103,cs),
(167,262,o),
(177,365,o),
(177,426,cs),
(177,448,o),
(167,462,o),
(133,462,cs),
(112,462,o),
(89,453,o),
(65,430,c),
(69,419,l),
(87,429,o),
(106,435,o),
(128,435,cs),
(138,435,o),
(150,433,o),
(162,427,c),
(150,441,l),
(150,342,o),
(119,108,o),
(80,-101,cs),
(66,-174,o),
(33,-227,o),
(-16,-227,cs),
(-45,-227,o),
(-60,-218,o),
(-74,-195,c),
(-80,-203,o),
(-83,-212,o),
(-83,-223,cs),
(-83,-242,o),
(-64,-258,o),
(-32,-258,cs)
);
}
);
width = 245;
},
{
anchors = (
{
name = bottom;
pos = (83,-258);
},
{
name = top;
pos = (197,443);
}
);
guides = (
{
angle = 90;
pos = (231,0);
},
{
angle = 90;
pos = (-75,0);
},
{
angle = 90;
pos = (67,0);
}
);
layerId = "7B53E429-1BF0-49C5-9F57-63EEBF39C6CC";
shapes = (
{
closed = 1;
nodes = (
(113,-268,o),
(200,-151,o),
(242,103,cs),
(264,237,o),
(280,352,o),
(280,385,cs),
(280,422,o),
(253,462,o),
(196,462,cs),
(148,462,o),
(75,434,o),
(18,392,c),
(44,343,l),
(80,356,o),
(114,362,o),
(143,362,cs),
(165,362,o),
(183,359,o),
(196,352,c),
(109,424,l),
(109,365,o),
(84,146,o),
(49,-39,cs),
(36,-111,o),
(18,-161,o),
(-25,-161,cs),
(-62,-161,o),
(-84,-148,o),
(-108,-120,c),
(-115,-132,o),
(-124,-159,o),
(-124,-186,cs),
(-124,-238,o),
(-91,-268,o),
(-31,-268,cs)
);
}
);
width = 305;
},
{
anchors = (
{
name = bottom;
pos = (52,-258);
},
{
name = top;
pos = (166,443);
}
);
layerId = "3EF2C2DE-A0EB-47A2-88E7-F2C629C295C3";
shapes = (
{
closed = 1;
nodes = (
(62,-258,o),
(120,-151,o),
(162,103,cs),
(188,261,o),
(201,365,o),
(201,403,cs),
(201,443,o),
(183,462,o),
(144,462,cs),
(113,462,o),
(71,442,o),
(38,408,c),
(51,384,l),
(69,394,o),
(91,398,o),
(112,398,cs),
(128,398,o),
(139,397,o),
(146,392,c),
(131,426,l),
(131,358,o),
(100,121,o),
(65,-80,cs),
(50,-164,o),
(25,-201,o),
(-23,-201,cs),
(-50,-201,o),
(-66,-192,o),
(-92,-162,c),
(-99,-174,o),
(-102,-191,o),
(-102,-207,cs),
(-102,-239,o),
(-79,-258,o),
(-39,-258,cs)
);
}
);
width = 247.30769;
}
);
unicode = 567;
},
{
color = 4;
glyphname = k;
kernLeft = l;
kernRight = k;
layers = (
{
anchors = (
{
name = bottom;
pos = (209,0);
},
{
name = top;
pos = (337,726);
}
);
background = {
shapes = (
{
closed = 1;
nodes = (
(95,-12,o),
(110,-10,o),
(121,-4,c),
(105,60,l),
(106,29,l),
(124,179,o),
(141,268,o),
(162,333,cs),
(189,414,o),
(248,444,o),
(299,444,cs),
(349,444,o),
(390,413,o),
(390,359,cs),
(390,281,o),
(318,216,o),
(217,207,c),
(287,49,ls),
(299,23,o),
(314,-12,o),
(348,-12,cs),
(370,-12,o),
(397,0,o),
(423,30,c),
(418,40,l),
(403,29,o),
(383,23,o),
(360,23,cs),
(336,23,o),
(327,37,o),
(304,85,cs),
(247,204,l),
(240,196,l),
(344,216,o),
(421,283,o),
(421,365,cs),
(421,422,o),
(385,462,o),
(317,462,cs),
(258,462,o),
(198,434,o),
(165,371,c),
(161,371,l),
(184,481,o),
(212,652,o),
(212,697,cs),
(212,719,o),
(202,733,o),
(168,733,cs),
(147,733,o),
(124,724,o),
(100,701,c),
(104,690,l),
(122,700,o),
(141,706,o),
(163,706,cs),
(173,706,o),
(185,704,o),
(197,698,c),
(191,713,l),
(191,571,o),
(73,66,o),
(73,0,cs),
(73,-8,o),
(76,-12,o),
(85,-12,cs)
);
}
);
};
layerId = "E1BF09ED-4302-4AD3-9939-8FDA35DE0FE8";
shapes = (
{
closed = 1;
nodes = (
(95,-12,o),
(110,-10,o),
(121,-4,c),
(105,60,l),
(106,29,l),
(141,322,o),
(184,445,o),
(299,445,cs),
(349,445,o),
(390,414,o),
(390,361,cs),
(390,282,o),
(318,216,o),
(217,207,c),
(287,49,ls),
(299,23,o),
(314,-12,o),
(348,-12,cs),
(369,-12,o),
(394,2,o),
(422,30,c),
(417,41,l),
(393,25,o),
(377,19,o),
(358,19,cs),
(334,19,o),
(327,37,o),
(304,85,cs),
(247,204,l),
(240,196,l),
(344,216,o),
(421,283,o),
(421,365,cs),
(421,422,o),
(384,462,o),
(314,462,cs),
(255,462,o),
(197,438,o),
(162,356,c),
(158,356,l),
(182,472,o),
(212,649,o),
(212,697,cs),
(212,719,o),
(202,733,o),
(168,733,cs),
(147,733,o),
(124,724,o),
(100,701,c),
(104,690,l),
(122,700,o),
(141,706,o),
(163,706,cs),
(173,706,o),
(185,704,o),
(197,698,c),
(191,713,l),
(191,571,o),
(73,66,o),
(73,0,cs),
(73,-8,o),
(76,-12,o),
(85,-12,cs)
);
}
);
width = 460;
},
{
anchors = (
{
name = bottom;
pos = (258,0);
},
{
name = top;
pos = (386,726);
}
);
layerId = "7B53E429-1BF0-49C5-9F57-63EEBF39C6CC";
shapes = (
{
closed = 1;
nodes = (
(138,-12,o),
(200,-2,o),
(241,19,c),
(214,142,l),
(217,29,l),
(228,101,o),
(250,374,o),
(345,374,cs),
(366,374,o),
(371,355,o),
(371,332,cs),
(371,274,o),
(309,237,o),
(261,226,c),
(298,72,ls),
(313,8,o),
(352,-12,o),
(411,-12,cs),
(453,-12,o),
(526,22,o),
(564,59,c),
(539,110,l),
(523,99,o),
(509,93,o),
(490,93,cs),
(470,93,o),
(461,112,o),
(455,135,cs),
(431,223,l),
(371,173,l),
(476,208,o),
(547,279,o),
(547,351,cs),
(547,415,o),
(504,462,o),
(433,462,cs),
(363,462,o),
(321,444,o),
(273,381,c),
(270,381,l),
(295,477,o),
(325,617,o),
(325,657,cs),
(325,694,o),
(298,734,o),
(241,734,cs),
(193,734,o),
(120,706,o),
(63,664,c),
(89,615,l),
(125,628,o),
(159,634,o),
(188,634,cs),
(210,634,o),
(228,631,o),
(241,624,c),
(159,679,l),
(147,555,o),
(42,105,o),
(41,37,cs),
(41,9,o),
(55,-12,o),
(104,-12,cs)
);
}
);
width = 591;
},
{
anchors = (
{
name = bottom;
pos = (216,0);
},
{
name = top;
pos = (344,726);
}
);
layerId = "3EF2C2DE-A0EB-47A2-88E7-F2C629C295C3";
shapes = (
{
closed = 1;
nodes = (
(103,-12,o),
(131,-8,o),
(151,3,c),
(129,90,l),
(132,29,l),
(169,316,o),
(208,425,o),
(306,425,cs),
(346,425,o),
(369,395,o),
(369,361,cs),
(369,276,o),
(286,228,o),
(206,214,c),
(268,50,ls),
(282,9,o),
(305,-12,o),
(340,-12,cs),
(369,-12,o),
(412,10,o),
(445,43,c),
(432,67,l),
(415,55,o),
(399,49,o),
(376,49,cs),
(351,49,o),
(341,61,o),
(330,87,cs),
(279,215,l),
(255,201,l),
(364,226,o),
(444,292,o),
(443,364,cs),
(444,422,o),
(401,462,o),
(337,462,cs),
(268,462,o),
(218,428,o),
(185,363,c),
(183,363,l),
(204,467,o),
(231,631,o),
(231,675,cs),
(231,714,o),
(214,734,o),
(179,734,cs),
(149,734,o),
(107,713,o),
(74,680,c),
(86,656,l),
(108,666,o),
(129,670,o),
(148,670,cs),
(162,670,o),
(173,668,o),
(181,663,c),
(165,682,l),
(164,557,o),
(58,100,o),
(58,24,cs),
(58,-2,o),
(64,-12,o),
(88,-12,cs)
);
}
);
width = 476.57692;
}
);
metricLeft = h;
metricRight = "=n*.2";
unicode = 107;
},
{
color = 4;
glyphname = kgreenlandic;
kernLeft = n;
kernRight = k;
layers = (
{
background = {
shapes = (
{
closed = 1;
nodes = (
(112,-12,o),
(127,-10,o),
(138,-4,c),
(122,60,l),
(123,29,l),
(141,179,o),
(158,268,o),
(179,333,cs),
(206,414,o),
(265,444,o),
(316,444,cs),
(366,444,o),
(407,413,o),
(407,359,cs),
(407,281,o),
(335,216,o),
(234,207,c),
(304,49,ls),
(316,23,o),
(331,-12,o),
(365,-12,cs),
(387,-12,o),
(414,0,o),
(440,30,c),
(435,40,l),
(420,29,o),
(400,23,o),
(377,23,cs),
(353,23,o),
(344,37,o),
(321,85,cs),
(264,204,l),
(257,196,l),
(361,216,o),
(438,283,o),
(438,365,cs),
(438,422,o),
(402,462,o),
(334,462,cs),
(275,462,o),
(215,434,o),
(182,371,c),
(178,371,l),
(201,481,o),
(229,652,o),
(229,697,cs),
(229,719,o),
(219,733,o),
(185,733,cs),
(164,733,o),
(141,724,o),
(117,701,c),
(121,690,l),
(139,700,o),
(158,706,o),
(180,706,cs),
(190,706,o),
(202,704,o),
(214,698,c),
(208,713,l),
(208,571,o),
(90,66,o),
(90,0,cs),
(90,-8,o),
(93,-12,o),
(102,-12,cs)
);
}
);
};
layerId = "E1BF09ED-4302-4AD3-9939-8FDA35DE0FE8";
shapes = (
{
closed = 1;
nodes = (
(177,389,o),
(179,401,o),
(179,426,cs),
(179,448,o),
(170,462,o),
(140,462,cs),
(119,462,o),
(96,453,o),
(72,430,c),
(76,419,l),
(94,429,o),
(113,435,o),
(135,435,cs),
(145,435,o),
(157,433,o),
(169,427,c),
(154,445,l),
(154,311,o),
(90,47,o),
(90,0,cs),
(90,-8,o),
(93,-12,o),
(102,-12,cs),
(112,-12,o),
(127,-10,o),
(138,-4,c),
(122,60,l),
(123,29,l),
(158,322,o),
(201,445,o),
(316,445,cs),
(366,445,o),
(407,414,o),
(407,361,cs),
(407,282,o),
(335,216,o),
(234,207,c),
(304,49,ls),
(316,23,o),
(331,-12,o),
(365,-12,cs),
(386,-12,o),
(411,2,o),
(439,30,c),
(434,41,l),
(410,25,o),
(394,19,o),
(375,19,cs),
(351,19,o),
(344,37,o),
(321,85,cs),
(264,204,l),
(257,196,l),
(361,216,o),
(438,283,o),
(438,365,cs),
(438,422,o),
(401,462,o),
(331,462,cs),
(271,462,o),
(212,438,o),
(177,356,c),
(173,356,l)
);
}
);
width = 477;
},
{
layerId = "7B53E429-1BF0-49C5-9F57-63EEBF39C6CC";
shapes = (
{
closed = 1;
nodes = (
(295,380,o),
(295,382,o),
(295,385,cs),
(295,422,o),
(268,462,o),
(211,462,cs),
(163,462,o),
(90,434,o),
(33,392,c),
(59,343,l),
(95,356,o),
(129,362,o),
(158,362,cs),
(180,362,o),
(198,359,o),
(211,352,c),
(129,407,l),
(129,306,o),
(65,96,o),
(65,37,cs),
(65,9,o),
(79,-12,o),
(128,-12,cs),
(162,-12,o),
(224,-2,o),
(265,19,c),
(238,142,l),
(241,29,l),
(252,101,o),
(274,374,o),
(369,374,cs),
(390,374,o),
(395,355,o),
(395,332,cs),
(395,274,o),
(333,237,o),
(285,226,c),
(322,72,ls),
(337,8,o),
(376,-12,o),
(435,-12,cs),
(477,-12,o),
(550,22,o),
(588,59,c),
(563,110,l),
(547,99,o),
(533,93,o),
(514,93,cs),
(494,93,o),
(485,112,o),
(479,135,cs),
(455,223,l),
(395,173,l),
(500,208,o),
(571,279,o),
(571,351,cs),
(571,415,o),
(528,462,o),
(457,462,cs),
(387,462,o),
(346,443,o),
(298,377,c),
(295,377,l)
);
}
);
width = 615;
},
{
layerId = "3EF2C2DE-A0EB-47A2-88E7-F2C629C295C3";
shapes = (
{
closed = 1;
nodes = (
(204,386,o),
(205,395,o),
(205,413,cs),
(205,439,o),
(190,462,o),
(151,462,cs),
(122,462,o),
(82,447,o),
(47,418,c),
(58,394,l),
(83,405,o),
(106,411,o),
(131,411,cs),
(144,411,o),
(159,409,o),
(171,403,c),
(135,433,l),
(135,309,o),
(71,63,o),
(71,12,cs),
(71,-3,o),
(76,-12,o),
(99,-12,cs),
(117,-12,o),
(147,-7,o),
(168,4,c),
(148,87,l),
(150,29,l),
(177,250,o),
(213,422,o),
(322,422,cs),
(362,422,o),
(391,394,o),
(391,351,cs),
(391,279,o),
(322,223,o),
(239,213,c),
(298,57,ls),
(311,19,o),
(334,-12,o),
(376,-12,cs),
(404,-12,o),
(444,9,o),
(476,40,c),
(464,63,l),
(442,49,o),
(427,43,o),
(408,43,cs),
(385,43,o),
(378,61,o),
(360,101,cs),
(315,210,l),
(290,188,l),
(394,213,o),
(469,282,o),
(469,361,cs),
(469,420,o),
(431,462,o),
(361,462,cs),
(297,462,o),
(243,440,o),
(205,363,c),
(201,363,l)
);
}
);
width = 508;
}
);
metricLeft = n;
metricRight = k;
unicode = 312;
},
{
color = 4;
glyphname = l;
kernLeft = l;
kernRight = l;
layers = (
{
anchors = (
{
name = bottom;
pos = (99,0);
},
{
name = center;
pos = (148,363);
},
{
name = top;
pos = (207,726);
},
{
name = topright;
pos = (253,550);
}
);
background = {
shapes = (
{
closed = 1;
nodes = (
(104,686,l),
(122,697,o),
(136,701,o),
(154,701,cs),
(173,701,o),
(185,696,o),
(193,692,c),
(190,706,l),
(153,439,o),
(88,117,o),
(88,44,cs),
(88,15,o),
(92,-12,o),
(126,-12,cs),
(144,-12,o),
(162,-5,o),
(192,25,c),
(187,36,l),
(170,25,o),
(159,19,o),
(140,19,cs),
(124,19,o),
(118,28,o),
(118,42,cs),
(118,190,o),
(207,610,o),
(207,673,cs),
(207,714,o),
(193,734,o),
(170,734,cs),
(148,734,o),
(123,725,o),
(99,697,c)
);
}
);
};
layerId = "E1BF09ED-4302-4AD3-9939-8FDA35DE0FE8";
shapes = (
{
closed = 1;
nodes = (
(142,-12,o),
(160,-9,o),
(194,25,c),
(189,36,l),
(172,25,o),
(159,19,o),
(141,19,cs),
(124,19,o),
(118,27,o),
(118,47,cs),
(118,199,o),
(212,632,o),
(212,697,cs),
(212,719,o),
(202,733,o),
(168,733,cs),
(147,733,o),
(124,724,o),
(100,701,c),
(104,690,l),
(122,700,o),
(141,706,o),
(163,706,cs),
(173,706,o),
(185,704,o),
(197,698,c),
(191,713,l),
(157,476,o),
(89,117,o),
(89,44,cs),
(89,6,o),
(104,-12,o),
(124,-12,cs)
);
}
);
width = 244;
},
{
anchors = (
{
name = bottom;
pos = (146,0);
},
{
name = center;
pos = (193,363);
},
{
name = top;
pos = (254,726);
},
{
name = topright;
pos = (348,550);
}
);
layerId = "7B53E429-1BF0-49C5-9F57-63EEBF39C6CC";
shapes = (
{
closed = 1;
nodes = (
(205,-12,o),
(279,20,o),
(316,58,c),
(286,110,l),
(275,104,o),
(261,100,o),
(252,100,cs),
(238,100,o),
(232,111,o),
(232,136,cs),
(232,234,o),
(325,587,o),
(325,657,cs),
(325,694,o),
(298,734,o),
(241,734,cs),
(193,734,o),
(120,706,o),
(63,664,c),
(89,615,l),
(125,628,o),
(159,634,o),
(188,634,cs),
(210,634,o),
(228,631,o),
(241,624,c),
(159,679,l),
(124,436,o),
(60,164,o),
(60,82,cs),
(60,23,o),
(93,-12,o),
(153,-12,cs)
);
}
);
width = 345;
},
{
anchors = (
{
name = bottom;
pos = (105,0);
},
{
name = center;
pos = (149,363);
},
{
name = top;
pos = (213,726);
},
{
name = topright;
pos = (256,550);
}
);
layerId = "3EF2C2DE-A0EB-47A2-88E7-F2C629C295C3";
shapes = (
{
closed = 1;
nodes = (
(146,-12,o),
(188,8,o),
(222,43,c),
(209,66,l),
(192,55,o),
(176,49,o),
(163,49,cs),
(146,49,o),
(140,57,o),
(140,74,cs),
(140,185,o),
(231,612,o),
(231,675,cs),
(231,714,o),
(214,734,o),
(179,734,cs),
(149,734,o),
(107,713,o),
(74,680,c),
(86,656,l),
(107,666,o),
(129,670,o),
(148,670,cs),
(162,670,o),
(173,668,o),
(181,663,c),
(169,706,l),
(132,443,o),
(64,116,o),
(64,54,cs),
(64,11,o),
(83,-12,o),
(116,-12,cs)
);
}
);
width = 259;
}
);
unicode = 108;
},
{
color = 4;
glyphname = m;
kernLeft = n;
kernRight = n;
layers = (
{
anchors = (
{
name = bottom;
pos = (394,0);
},
{
name = top;
pos = (472,443);
}
);
layerId = "7B53E429-1BF0-49C5-9F57-63EEBF39C6CC";
shapes = (
{
closed = 1;
nodes = (
(162,-12,o),
(224,-2,o),
(265,19,c),
(238,142,l),
(246,78,l),
(287,310,l),
(311,341,o),
(333,352,o),
(348,352,cs),
(359,352,o),
(369,347,o),
(369,317,cs),
(369,241,o),
(323,120,o),
(323,37,cs),
(323,9,o),
(337,-12,o),
(386,-12,cs),
(420,-12,o),
(482,-2,o),
(523,19,c),
(496,142,l),
(504,78,l),
(504,144,o),
(546,265,o),
(546,345,cs),
(546,405,o),
(518,462,o),
(449,462,cs),
(401,462,o),
(346,432,o),
(299,377,c),
(295,377,l),
(295,380,o),
(295,382,o),
(295,385,cs),
(295,422,o),
(268,462,o),
(211,462,cs),
(163,462,o),
(90,434,o),
(33,392,c),
(59,343,l),
(95,356,o),
(129,362,o),
(158,362,cs),
(180,362,o),
(198,359,o),
(211,352,c),
(129,407,l),
(129,306,o),
(65,96,o),
(65,37,cs),
(65,9,o),
(79,-12,o),
(128,-12,cs)
);
},
{
closed = 1;
nodes = (
(727,-12,o),
(801,19,o),
(839,58,c),
(809,110,l),
(798,104,o),
(784,100,o),
(774,100,cs),
(762,100,o),
(755,107,o),
(755,119,cs),
(755,156,o),
(806,265,o),
(806,345,cs),
(806,405,o),
(778,462,o),
(709,462,cs),
(657,462,o),
(599,432,o),
(547,377,c),
(543,377,l),
(537,310,l),
(565,341,o),
(591,352,o),
(608,352,cs),
(619,352,o),
(629,347,o),
(629,317,cs),
(629,253,o),
(583,152,o),
(583,82,cs),
(583,23,o),
(616,-12,o),
(673,-12,cs)
);
}
);
width = 871;
},
{
anchors = (
{
name = bottom;
pos = (342,0);
},
{
name = top;
pos = (420,443);
}
);
background = {
shapes = (
{
closed = 1;
nodes = (
(112,-12,o),
(127,-10,o),
(138,-4,c),
(122,60,l),
(122,21,l),
(175,351,l),
(234,407,o),
(278,438,o),
(328,438,cs),
(378,438,o),
(403,400,o),
(403,359,cs),
(403,244,o),
(341,144,o),
(341,44,cs),
(341,6,o),
(356,-12,o),
(376,-12,cs),
(394,-12,o),
(412,-9,o),
(446,25,c),
(441,36,l),
(424,25,o),
(411,19,o),
(393,19,cs),
(376,19,o),
(370,27,o),
(370,47,cs),
(370,144,o),
(430,246,o),
(430,361,cs),
(430,419,o),
(395,462,o),
(333,462,cs),
(291,462,o),
(230,427,o),
(181,371,c),
(176,371,l),
(178,397,o),
(179,406,o),
(179,426,cs),
(179,448,o),
(170,462,o),
(140,462,cs),
(119,462,o),
(96,453,o),
(72,430,c),
(76,419,l),
(94,429,o),
(113,435,o),
(135,435,cs),
(145,435,o),
(157,433,o),
(169,427,c),
(154,445,l),
(154,311,o),
(90,47,o),
(90,0,cs),
(90,-8,o),
(93,-12,o),
(102,-12,cs)
);
}
);
};
guides = (
{
pos = (0,-270);
}
);
layerId = "E1BF09ED-4302-4AD3-9939-8FDA35DE0FE8";
shapes = (
{
closed = 1;
nodes = (
(112,-12,o),
(127,-10,o),
(138,-4,c),
(122,60,l),
(122,21,l),
(175,351,l),
(234,407,o),
(278,438,o),
(328,438,cs),
(381,438,o),
(408,400,o),
(408,359,cs),
(408,251,o),
(341,81,o),
(341,0,cs),
(341,-8,o),
(344,-12,o),
(353,-12,cs),
(363,-12,o),
(378,-10,o),
(389,-4,c),
(373,60,l),
(373,21,l),
(373,100,o),
(435,253,o),
(435,361,cs),
(435,419,o),
(398,462,o),
(333,462,cs),
(291,462,o),
(230,427,o),
(181,371,c),
(176,371,l),
(178,397,o),
(179,406,o),
(179,426,cs),
(179,448,o),
(170,462,o),
(140,462,cs),
(119,462,o),
(96,453,o),
(72,430,c),
(76,419,l),
(94,429,o),
(113,435,o),
(135,435,cs),
(145,435,o),
(157,433,o),
(169,427,c),
(154,445,l),
(154,311,o),
(90,47,o),
(90,0,cs),
(90,-8,o),
(93,-12,o),
(102,-12,cs)
);
},
{
closed = 1;
nodes = (
(654,-12,o),
(672,-9,o),
(706,25,c),
(701,36,l),
(684,25,o),
(671,19,o),
(653,19,cs),
(636,19,o),
(630,27,o),
(630,47,cs),
(630,123,o),
(690,236,o),
(690,356,cs),
(690,417,o),
(655,462,o),
(593,462,cs),
(550,462,o),
(489,427,o),
(439,371,c),
(424,371,l),
(433,351,l),
(495,405,o),
(538,438,o),
(588,438,cs),
(638,438,o),
(663,398,o),
(663,354,cs),
(663,234,o),
(601,125,o),
(601,44,cs),
(601,6,o),
(616,-12,o),
(636,-12,cs)
);
}
);
width = 776;
},
{
anchors = (
{
name = bottom;
pos = (346,0);
},
{
name = top;
pos = (424,443);
}
);
layerId = "3EF2C2DE-A0EB-47A2-88E7-F2C629C295C3";
shapes = (
{
closed = 1;
nodes = (
(120,-12,o),
(148,-8,o),
(169,3,c),
(150,90,l),
(152,29,l),
(202,332,l),
(248,384,o),
(286,406,o),
(327,406,cs),
(363,406,o),
(381,381,o),
(381,345,cs),
(381,250,o),
(319,106,o),
(319,12,cs),
(319,-4,o),
(325,-12,o),
(344,-12,cs),
(362,-12,o),
(391,-8,o),
(411,3,c),
(392,79,l),
(394,29,l),
(394,127,o),
(455,251,o),
(455,346,c),
(455,411,o),
(420,462,o),
(353,462,cs),
(305,462,o),
(256,424,o),
(210,365,c),
(206,365,l),
(208,379,o),
(208,392,o),
(208,403,cs),
(208,442,o),
(191,462,o),
(152,462,cs),
(122,462,o),
(79,442,o),
(46,408,c),
(58,384,l),
(80,394,o),
(102,398,o),
(121,398,cs),
(136,398,o),
(152,394,o),
(153,392,c),
(141,426,l),
(141,299,o),
(77,58,o),
(77,12,cs),
(77,-4,o),
(82,-12,o),
(100,-12,cs)
);
},
{
closed = 1;
nodes = (
(651,-12,o),
(692,8,o),
(727,43,c),
(714,66,l),
(697,55,o),
(681,49,o),
(667,49,cs),
(651,49,o),
(644,55,o),
(644,72,cs),
(644,142,o),
(702,244,o),
(702,345,cs),
(702,411,o),
(668,462,o),
(601,462,cs),
(552,462,o),
(504,424,o),
(457,365,c),
(452,365,l),
(450,332,l),
(496,384,o),
(534,406,o),
(575,406,cs),
(611,406,o),
(628,382,o),
(628,344,cs),
(628,239,o),
(568,143,o),
(568,53,cs),
(568,11,o),
(588,-12,o),
(620,-12,cs)
);
}
);
width = 771;
}
);
metricLeft = n;
metricRight = n;
unicode = 109;
},
{
color = 4;
glyphname = n;
kernLeft = n;
kernRight = n;
layers = (
{
anchors = (
{
name = bottom;
pos = (268,0);
},
{
name = top;
pos = (346,443);
},
{
name = topleft;
pos = (208,443);
}
);
background = {
shapes = (
{
closed = 1;
nodes = (
(65,8,o),
(79,-12,o),
(123,-12,cs),
(163,-12,o),
(221,-3,o),
(265,19,c),
(238,142,l),
(246,78,l),
(287,310,l),
(313,341,o),
(338,352,o),
(350,352,cs),
(363,352,o),
(374,347,o),
(374,320,cs),
(374,246,o),
(319,147,o),
(319,72,cs),
(319,28,o),
(351,-12,o),
(410,-12,cs),
(475,-12,o),
(542,24,o),
(576,58,c),
(550,110,l),
(538,103,o),
(525,100,o),
(514,100,cs),
(503,100,o),
(500,104,o),
(500,117,cs),
(500,138,o),
(551,260,o),
(551,344,cs),
(551,404,o),
(523,462,o),
(455,462,cs),
(404,462,o),
(348,433,o),
(299,381,c),
(295,381,l),
(295,388,o),
(295,395,o),
(294,401,cs),
(285,448,o),
(243,462,o),
(203,462,cs),
(143,462,o),
(73,426,o),
(39,392,c),
(65,341,l),
(86,349,o),
(106,355,o),
(124,355,cs),
(140,355,o),
(147,359,o),
(157,356,c),
(126,424,l),
(126,300,o),
(65,89,o),
(65,45,cs)
);
}
);
};
layerId = "7B53E429-1BF0-49C5-9F57-63EEBF39C6CC";
shapes = (
{
closed = 1;
nodes = (
(162,-12,o),
(224,-2,o),
(265,19,c),
(238,142,l),
(246,78,l),
(287,310,l),
(313,341,o),
(337,352,o),
(353,352,cs),
(364,352,o),
(374,347,o),
(374,317,cs),
(374,253,o),
(328,152,o),
(328,82,cs),
(328,23,o),
(361,-12,o),
(418,-12,cs),
(472,-12,o),
(546,19,o),
(584,58,c),
(554,110,l),
(543,104,o),
(529,100,o),
(519,100,cs),
(507,100,o),
(500,107,o),
(500,119,cs),
(500,156,o),
(551,265,o),
(551,345,cs),
(551,405,o),
(523,462,o),
(454,462,cs),
(404,462,o),
(348,432,o),
(299,377,c),
(295,377,l),
(295,380,o),
(295,382,o),
(295,385,cs),
(295,422,o),
(268,462,o),
(211,462,cs),
(163,462,o),
(90,434,o),
(33,392,c),
(59,343,l),
(95,356,o),
(129,362,o),
(158,362,cs),
(180,362,o),
(198,359,o),
(211,352,c),
(129,407,l),
(129,306,o),
(65,96,o),
(65,37,cs),
(65,9,o),
(79,-12,o),
(128,-12,cs)
);
}
);
width = 616;
},
{
anchors = (
{
name = bottom;
pos = (226,0);
},
{
name = top;
pos = (304,443);
},
{
name = topleft;
pos = (172,443);
}
);
background = {
shapes = (
{
closed = 1;
nodes = (
(107,-12,o),
(115,-8,o),
(137,3,c),
(121,67,l),
(121,28,l),
(175,351,l),
(236,407,o),
(281,438,o),
(333,438,cs),
(386,438,o),
(413,400,o),
(413,359,cs),
(413,272,o),
(351,152,o),
(351,45,cs),
(351,9,o),
(365,-12,o),
(388,-12,cs),
(404,-12,o),
(426,-4,o),
(456,25,c),
(451,36,l),
(436,26,o),
(421,19,o),
(408,19,cs),
(388,19,o),
(381,23,o),
(381,53,cs),
(381,158,o),
(440,263,o),
(440,361,cs),
(440,419,o),
(403,462,o),
(338,462,cs),
(295,462,o),
(232,427,o),
(181,371,c),
(176,371,l),
(178,385,o),
(179,390,o),
(179,401,cs),
(179,442,o),
(169,462,o),
(137,462,cs),
(122,462,o),
(97,449,o),
(75,425,c),
(80,414,l),
(97,425,o),
(114,429,o),
(131,429,cs),
(146,429,o),
(157,425,o),
(158,425,c),
(154,435,l),
(154,308,o),
(90,57,o),
(90,12,cs),
(90,-4,o),
(93,-12,o),
(99,-12,cs)
);
},
{
closed = 0;
nodes = (
(179,526,ls),
(179,548,o),
(170,562,o),
(140,562,cs),
(119,562,o),
(96,553,o),
(72,530,c),
(76,519,l),
(94,529,o),
(113,535,o),
(135,535,cs),
(145,535,o),
(157,533,o),
(169,527,c),
(163,542,l)
);
}
);
};
guides = (
{
angle = 179.2748;
pos = (351,144);
},
{
angle = 4.514;
pos = (413,244);
}
);
layerId = "E1BF09ED-4302-4AD3-9939-8FDA35DE0FE8";
shapes = (
{
closed = 1;
nodes = (
(112,-12,o),
(127,-10,o),
(138,-4,c),
(122,60,l),
(122,21,l),
(175,351,l),
(236,407,o),
(281,438,o),
(333,438,cs),
(386,438,o),
(413,398,o),
(413,354,cs),
(413,234,o),
(351,125,o),
(351,44,cs),
(351,6,o),
(366,-12,o),
(386,-12,cs),
(404,-12,o),
(422,-9,o),
(456,25,c),
(451,36,l),
(434,25,o),
(421,19,o),
(403,19,cs),
(386,19,o),
(380,27,o),
(380,47,cs),
(380,123,o),
(440,236,o),
(440,356,cs),
(440,417,o),
(403,462,o),
(338,462,cs),
(295,462,o),
(232,427,o),
(181,371,c),
(176,371,l),
(178,397,o),
(179,406,o),
(179,426,cs),
(179,448,o),
(170,462,o),
(140,462,cs),
(119,462,o),
(96,453,o),
(72,430,c),
(76,419,l),
(94,429,o),
(113,435,o),
(135,435,cs),
(145,435,o),
(157,433,o),
(169,427,c),
(154,445,l),
(154,311,o),
(90,47,o),
(90,0,cs),
(90,-8,o),
(93,-12,o),
(102,-12,cs)
);
}
);
width = 526;
},
{
anchors = (
{
name = bottom;
pos = (228,0);
},
{
name = top;
pos = (306,443);
},
{
name = topleft;
pos = (180,443);
}
);
layerId = "3EF2C2DE-A0EB-47A2-88E7-F2C629C295C3";
shapes = (
{
closed = 1;
nodes = (
(120,-12,o),
(148,-8,o),
(169,3,c),
(150,90,l),
(152,29,l),
(202,332,l),
(251,384,o),
(295,406,o),
(337,406,cs),
(373,406,o),
(389,382,o),
(389,344,cs),
(389,239,o),
(329,143,o),
(329,53,cs),
(329,11,o),
(349,-12,o),
(382,-12,cs),
(412,-12,o),
(454,8,o),
(488,43,c),
(475,66,l),
(458,55,o),
(442,49,o),
(429,49,cs),
(414,49,o),
(406,55,o),
(406,72,cs),
(406,142,o),
(464,244,o),
(464,345,cs),
(464,411,o),
(430,462,o),
(362,462,cs),
(314,462,o),
(259,424,o),
(210,365,c),
(206,365,l),
(208,379,o),
(208,392,o),
(208,403,cs),
(208,442,o),
(191,462,o),
(152,462,cs),
(122,462,o),
(79,442,o),
(46,408,c),
(58,384,l),
(80,394,o),
(102,398,o),
(121,398,cs),
(136,398,o),
(152,394,o),
(153,392,c),
(141,426,l),
(141,299,o),
(77,58,o),
(77,12,cs),
(77,-4,o),
(82,-12,o),
(100,-12,cs)
);
}
);
width = 532;
}
);
unicode = 110;
},
{
color = 4;
glyphname = eng;
kernLeft = n;
kernRight = j;
layers = (
{
layerId = "E1BF09ED-4302-4AD3-9939-8FDA35DE0FE8";
shapes = (
{
closed = 1;
nodes = (
(413,271,o),
(384,74,o),
(343,-101,cs),
(326,-173,o),
(296,-227,o),
(247,-227,cs),
(218,-227,o),
(203,-218,o),
(189,-195,c),
(183,-203,o),
(180,-212,o),
(180,-223,cs),
(180,-242,o),
(199,-258,o),
(231,-258,cs),
(324,-258,o),
(362,-161,o),
(404,68,cs),
(430,210,o),
(440,301,o),
(440,356,cs),
(440,417,o),
(403,462,o),
(338,462,cs),
(295,462,o),
(232,427,o),
(181,371,c),
(176,371,l),
(178,397,o),
(179,406,o),
(179,426,cs),
(179,448,o),
(170,462,o),
(140,462,cs),
(119,462,o),
(96,453,o),
(72,430,c),
(76,419,l),
(94,429,o),
(113,435,o),
(135,435,cs),
(145,435,o),
(157,433,o),
(169,427,c),
(154,445,l),
(154,311,o),
(90,47,o),
(90,0,cs),
(90,-8,o),
(93,-12,o),
(102,-12,cs),
(112,-12,o),
(127,-10,o),
(138,-4,c),
(122,60,l),
(122,21,l),
(175,351,l),
(236,407,o),
(281,438,o),
(333,438,cs),
(386,438,o),
(413,398,o),
(413,354,cs)
);
}
);
width = 515;
},
{
layerId = "7B53E429-1BF0-49C5-9F57-63EEBF39C6CC";
shapes = (
{
closed = 1;
nodes = (
(374,272,o),
(352,103,o),
(320,-39,cs),
(304,-111,o),
(289,-161,o),
(246,-161,cs),
(209,-161,o),
(187,-148,o),
(163,-120,c),
(156,-132,o),
(147,-159,o),
(147,-186,cs),
(147,-238,o),
(180,-268,o),
(240,-268,cs),
(384,-268,o),
(471,-157,o),
(513,83,cs),
(535,208,o),
(551,315,o),
(551,345,cs),
(551,405,o),
(523,462,o),
(454,462,cs),
(404,462,o),
(348,432,o),
(299,377,c),
(295,377,l),
(295,380,o),
(295,382,o),
(295,385,cs),
(295,422,o),
(268,462,o),
(211,462,cs),
(163,462,o),
(90,434,o),
(33,392,c),
(59,343,l),
(95,356,o),
(129,362,o),
(158,362,cs),
(180,362,o),
(198,359,o),
(211,352,c),
(129,407,l),
(129,306,o),
(65,96,o),
(65,37,cs),
(65,9,o),
(79,-12,o),
(128,-12,cs),
(162,-12,o),
(224,-2,o),
(265,19,c),
(238,142,l),
(246,78,l),
(287,310,l),
(313,341,o),
(337,352,o),
(353,352,cs),
(364,352,o),
(374,347,o),
(374,317,cs)
);
}
);
width = 580;
},
{
layerId = "3EF2C2DE-A0EB-47A2-88E7-F2C629C295C3";
shapes = (
{
closed = 1;
nodes = (
(388,271,o),
(362,84,o),
(324,-81,cs),
(308,-153,o),
(282,-206,o),
(235,-206,cs),
(203,-206,o),
(186,-195,o),
(169,-171,c),
(163,-180,o),
(158,-195,o),
(158,-211,cs),
(158,-241,o),
(181,-261,o),
(222,-261,cs),
(331,-261,o),
(385,-160,o),
(427,72,cs),
(451,209,o),
(465,305,o),
(465,352,cs),
(465,413,o),
(431,462,o),
(364,462,cs),
(318,462,o),
(258,429,o),
(208,373,c),
(203,373,l),
(205,392,o),
(205,398,o),
(205,413,cs),
(205,439,o),
(190,462,o),
(151,462,cs),
(122,462,o),
(82,447,o),
(47,418,c),
(58,394,l),
(83,405,o),
(106,411,o),
(131,411,cs),
(144,411,o),
(159,409,o),
(171,403,c),
(135,433,l),
(135,309,o),
(71,63,o),
(71,12,cs),
(71,-3,o),
(76,-12,o),
(99,-12,cs),
(117,-12,o),
(147,-7,o),
(168,4,c),
(148,87,l),
(151,40,l),
(200,338,l),
(250,386,o),
(287,410,o),
(328,410,cs),
(368,410,o),
(388,382,o),
(388,342,cs)
);
}
);
width = 515;
}
);
metricLeft = n;
metricRight = j;
unicode = 331;
},
{
color = 4;
glyphname = o;
kernLeft = o;
kernRight = o;
layers = (
{
anchors = (
{
name = "#exit";
pos = (420,222);
},
{
name = bottom;
pos = (223,0);
},
{
name = center;
pos = (262,222);
},
{
name = ogonek;
pos = (282,0);
},
{
name = top;
pos = (301,443);
},
{
name = topright;
pos = (423,443);
}
);
guides = (
{
angle = 231.7098;
pos = (199,-12);
},
{
angle = 10.54;
pos = (323,260);
}
);
layerId = "7B53E429-1BF0-49C5-9F57-63EEBF39C6CC";
shapes = (
{
closed = 1;
nodes = (
(372,-12,o),
(510,124,o),
(510,294,cs),
(510,402,o),
(443,462,o),
(324,462,cs),
(153,462,o),
(13,325,o),
(13,156,cs),
(13,49,o),
(80,-12,o),
(199,-12,cs)
);
},
{
closed = 1;
nodes = (
(214,51,o),
(197,97,o),
(197,179,cs),
(197,297,o),
(234,399,o),
(276,399,cs),
(306,399,o),
(324,351,o),
(324,269,cs),
(324,151,o),
(287,51,o),
(245,51,cs)
);
}
);
width = 522;
},
{
anchors = (
{
name = "#exit";
pos = (403,222);
},
{
name = bottom;
pos = (196,0);
},
{
name = center;
pos = (235,222);
},
{
name = ogonek;
pos = (238,0);
},
{
name = top;
pos = (274,443);
},
{
name = topright;
pos = (353,443);
}
);
guides = (
{
angle = 10.54;
pos = (54,156);
},
{
angle = 231.7098;
pos = (287,462);
}
);
layerId = "E1BF09ED-4302-4AD3-9939-8FDA35DE0FE8";
shapes = (
{
closed = 1;
nodes = (
(304,-12,o),
(417,130,o),
(417,289,cs),
(417,398,o),
(369,462,o),
(287,462,cs),
(162,462,o),
(54,320,o),
(54,156,cs),
(54,48,o),
(98,-12,o),
(177,-12,cs)
);
},
{
closed = 1;
nodes = (
(125,7,o),
(85,65,o),
(85,162,cs),
(85,313,o),
(173,444,o),
(273,444,cs),
(342,444,o),
(386,381,o),
(386,283,cs),
(386,134,o),
(297,7,o),
(192,7,cs)
);
}
);
width = 470;
},
{
anchors = (
{
name = "#exit";
pos = (402,222);
},
{
name = bottom;
pos = (195,0);
},
{
name = center;
pos = (234,222);
},
{
name = ogonek;
pos = (242,0);
},
{
name = top;
pos = (273,443);
},
{
name = topright;
pos = (361,443);
}
);
layerId = "3EF2C2DE-A0EB-47A2-88E7-F2C629C295C3";
shapes = (
{
closed = 1;
nodes = (
(312,-12,o),
(435,131,o),
(435,289,cs),
(435,396,o),
(378,462,o),
(287,462,cs),
(153,462,o),
(35,318,o),
(35,156,cs),
(35,50,o),
(87,-12,o),
(176,-12,cs)
);
},
{
closed = 1;
nodes = (
(151,25,o),
(119,78,o),
(119,171,cs),
(119,308,o),
(186,425,o),
(263,425,cs),
(318,425,o),
(352,369,o),
(352,276,cs),
(352,139,o),
(284,25,o),
(205,25,cs)
);
}
);
width = 469.46154;
}
);
unicode = 111;
},
{
color = 4;
glyphname = p;
kernLeft = n;
kernRight = o;
layers = (
{
anchors = (
{
name = bottom;
pos = (215,0);
},
{
name = top;
pos = (293,443);
}
);
layerId = "E1BF09ED-4302-4AD3-9939-8FDA35DE0FE8";
shapes = (
{
closed = 1;
nodes = (
(69,-258,o),
(84,-256,o),
(95,-250,c),
(79,-186,l),
(76,-225,l),
(150,243,o),
(181,441,o),
(314,441,cs),
(392,441,o),
(415,351,o),
(415,288,cs),
(415,121,o),
(315,7,o),
(189,7,cs),
(148,7,o),
(115,18,o),
(96,28,c),
(94,16,l),
(122,-3,o),
(154,-11,o),
(193,-11,cs),
(338,-11,o),
(447,120,o),
(447,294,cs),
(447,403,o),
(403,463,o),
(323,463,cs),
(257,463,o),
(204,415,o),
(175,328,c),
(169,328,l),
(177,372,o),
(179,391,o),
(179,426,cs),
(179,448,o),
(170,462,o),
(140,462,cs),
(119,462,o),
(96,453,o),
(72,430,c),
(76,419,l),
(94,429,o),
(113,435,o),
(135,435,cs),
(145,435,o),
(157,433,o),
(169,427,c),
(154,445,l),
(154,289,o),
(47,-196,o),
(47,-246,cs),
(47,-254,o),
(50,-258,o),
(59,-258,cs)
);
}
);
width = 500;
},
{
anchors = (
{
name = bottom;
pos = (263,0);
},
{
name = top;
pos = (341,443);
}
);
background = {
shapes = (
{
closed = 1;
nodes = (
(129,50,l),
(150,18,o),
(200,-12,o),
(289,-12,cs),
(436,-12,o),
(576,109,o),
(576,294,cs),
(576,403,o),
(506,462,o),
(424,462,cs),
(371,462,o),
(325,427,o),
(292,371,c),
(289,371,l),
(290,378,o),
(290,384,o),
(290,391,cs),
(290,431,o),
(264,462,o),
(202,462,cs),
(143,462,o),
(79,424,o),
(42,393,c),
(70,341,l),
(90,349,o),
(111,355,o),
(132,355,cs),
(140,355,o),
(164,355,o),
(164,354,c),
(132,424,l),
(132,279,o),
(27,-178,o),
(27,-225,cs),
(27,-250,o),
(33,-268,o),
(89,-268,cs),
(130,-268,o),
(193,-256,o),
(226,-236,c),
(207,-145,l),
(203,-213,l),
(257,125,o),
(283,353,o),
(359,353,cs),
(383,353,o),
(393,330,o),
(393,273,cs),
(393,214,o),
(363,51,o),
(276,51,cs),
(249,51,o),
(196,58,o),
(159,98,c)
);
}
);
};
layerId = "7B53E429-1BF0-49C5-9F57-63EEBF39C6CC";
shapes = (
{
closed = 1;
nodes = (
(136,-258,o),
(198,-248,o),
(239,-227,c),
(212,-104,l),
(220,-168,l),
(262,118,o),
(289,353,o),
(359,353,cs),
(388,353,o),
(398,326,o),
(398,276,cs),
(398,213,o),
(371,51,o),
(285,51,cs),
(219,51,o),
(182,83,o),
(169,98,c),
(138,49,l),
(180,1,o),
(232,-12,o),
(295,-12,cs),
(451,-12,o),
(581,119,o),
(581,293,cs),
(581,415,o),
(527,462,o),
(444,462,cs),
(394,462,o),
(335,434,o),
(299,371,c),
(295,371,l),
(295,376,o),
(295,380,o),
(295,385,cs),
(295,422,o),
(268,462,o),
(211,462,cs),
(163,462,o),
(90,434,o),
(33,392,c),
(59,343,l),
(95,356,o),
(129,362,o),
(158,362,cs),
(180,362,o),
(198,359,o),
(211,352,c),
(129,407,l),
(129,268,o),
(39,-164,o),
(39,-209,cs),
(39,-237,o),
(53,-258,o),
(102,-258,cs)
);
}
);
width = 594;
},
{
anchors = (
{
name = bottom;
pos = (224,0);
},
{
name = top;
pos = (302,443);
}
);
layerId = "3EF2C2DE-A0EB-47A2-88E7-F2C629C295C3";
shapes = (
{
closed = 1;
nodes = (
(82,-258,o),
(110,-252,o),
(126,-243,c),
(105,-156,l),
(109,-205,l),
(166,147,o),
(192,415,o),
(322,415,cs),
(376,415,o),
(401,367,o),
(401,285,cs),
(401,135,o),
(324,21,o),
(218,21,cs),
(187,21,o),
(165,28,o),
(120,47,c),
(130,11,l),
(162,-5,o),
(195,-12,o),
(229,-12,cs),
(373,-12,o),
(484,122,o),
(484,294,cs),
(484,403,o),
(440,462,o),
(356,462,cs),
(289,462,o),
(234,419,o),
(206,342,c),
(202,342,l),
(207,363,o),
(208,383,o),
(208,403,cs),
(208,441,o),
(191,462,o),
(155,462,cs),
(122,462,o),
(80,442,o),
(46,408,c),
(58,384,l),
(79,394,o),
(101,398,o),
(121,398,cs),
(129,398,o),
(152,395,o),
(153,392,c),
(138,426,l),
(138,280,o),
(33,-176,o),
(33,-222,cs),
(33,-246,o),
(38,-258,o),
(64,-258,cs)
);
}
);
width = 518.84615;
}
);
metricLeft = n;
metricRight = "=o";
unicode = 112;
},
{
color = 4;
glyphname = thorn;
kernLeft = l;
kernRight = o;
layers = (
{
anchors = (
{
name = bottom;
pos = (206,0);
},
{
name = top;
pos = (284,443);
}
);
background = {
shapes = (
{
closed = 1;
nodes = (
(60,-258,o),
(75,-256,o),
(86,-250,c),
(70,-186,l),
(67,-225,l),
(141,243,o),
(172,441,o),
(305,441,cs),
(383,441,o),
(406,351,o),
(406,288,cs),
(406,121,o),
(306,7,o),
(180,7,cs),
(139,7,o),
(106,18,o),
(87,28,c),
(85,16,l),
(113,-3,o),
(145,-11,o),
(184,-11,cs),
(329,-11,o),
(438,120,o),
(438,294,cs),
(438,403,o),
(394,463,o),
(314,463,cs),
(248,463,o),
(195,415,o),
(166,328,c),
(160,328,l),
(168,372,o),
(170,391,o),
(170,426,cs),
(170,448,o),
(161,462,o),
(131,462,cs),
(110,462,o),
(87,453,o),
(63,430,c),
(67,419,l),
(85,429,o),
(104,435,o),
(126,435,cs),
(136,435,o),
(148,433,o),
(160,427,c),
(145,445,l),
(145,289,o),
(38,-196,o),
(38,-246,cs),
(38,-254,o),
(41,-258,o),
(50,-258,cs)
);
}
);
};
layerId = "E1BF09ED-4302-4AD3-9939-8FDA35DE0FE8";
shapes = (
{
closed = 1;
nodes = (
(60,-258,o),
(75,-256,o),
(86,-250,c),
(70,-186,l),
(67,-225,l),
(141,243,o),
(172,441,o),
(305,441,cs),
(383,441,o),
(406,351,o),
(406,288,cs),
(406,121,o),
(306,7,o),
(180,7,cs),
(139,7,o),
(106,18,o),
(87,28,c),
(85,16,l),
(113,-3,o),
(145,-11,o),
(184,-11,cs),
(329,-11,o),
(438,120,o),
(438,294,cs),
(438,403,o),
(394,463,o),
(314,463,cs),
(248,463,o),
(195,414,o),
(166,327,c),
(160,327,l),
(185,450,o),
(212,621,o),
(212,697,cs),
(212,719,o),
(202,733,o),
(168,733,cs),
(147,733,o),
(124,724,o),
(100,701,c),
(104,690,l),
(122,700,o),
(141,706,o),
(163,706,cs),
(173,706,o),
(185,704,o),
(197,698,c),
(191,713,l),
(176,458,o),
(38,-176,o),
(38,-246,cs),
(38,-254,o),
(41,-258,o),
(50,-258,cs)
);
}
);
width = 491;
},
{
anchors = (
{
name = bottom;
pos = (263,0);
},
{
name = top;
pos = (341,443);
}
);
background = {
shapes = (
{
closed = 1;
nodes = (
(129,50,l),
(150,18,o),
(200,-12,o),
(289,-12,cs),
(436,-12,o),
(576,109,o),
(576,294,cs),
(576,403,o),
(506,462,o),
(424,462,cs),
(371,462,o),
(325,427,o),
(292,371,c),
(289,371,l),
(290,378,o),
(290,384,o),
(290,391,cs),
(290,431,o),
(264,462,o),
(202,462,cs),
(143,462,o),
(79,424,o),
(42,393,c),
(70,341,l),
(90,349,o),
(111,355,o),
(132,355,cs),
(140,355,o),
(164,355,o),
(164,354,c),
(132,424,l),
(132,279,o),
(27,-178,o),
(27,-225,cs),
(27,-250,o),
(33,-268,o),
(89,-268,cs),
(130,-268,o),
(193,-256,o),
(226,-236,c),
(207,-145,l),
(203,-213,l),
(257,125,o),
(283,353,o),
(359,353,cs),
(383,353,o),
(393,330,o),
(393,273,cs),
(393,214,o),
(363,51,o),
(276,51,cs),
(249,51,o),
(196,58,o),
(159,98,c)
);
}
);
};
layerId = "7B53E429-1BF0-49C5-9F57-63EEBF39C6CC";
shapes = (
{
closed = 1;
nodes = (
(136,-258,o),
(198,-248,o),
(239,-227,c),
(212,-104,l),
(220,-168,l),
(262,118,o),
(289,353,o),
(359,353,cs),
(388,353,o),
(398,326,o),
(398,276,cs),
(398,213,o),
(371,51,o),
(285,51,cs),
(219,51,o),
(182,83,o),
(169,98,c),
(138,49,l),
(180,1,o),
(232,-12,o),
(295,-12,cs),
(451,-12,o),
(581,119,o),
(581,293,cs),
(581,415,o),
(527,462,o),
(444,462,cs),
(394,462,o),
(335,434,o),
(299,371,c),
(295,371,l),
(305,426,o),
(325,587,o),
(325,657,cs),
(325,694,o),
(298,734,o),
(241,734,cs),
(193,734,o),
(120,706,o),
(63,664,c),
(89,615,l),
(125,628,o),
(159,634,o),
(188,634,cs),
(210,634,o),
(228,631,o),
(241,624,c),
(159,679,l),
(159,429,o),
(39,-144,o),
(39,-209,cs),
(39,-237,o),
(53,-258,o),
(102,-258,cs)
);
}
);
width = 594;
},
{
anchors = (
{
name = bottom;
pos = (204,0);
},
{
name = top;
pos = (282,443);
}
);
layerId = "3EF2C2DE-A0EB-47A2-88E7-F2C629C295C3";
shapes = (
{
closed = 1;
nodes = (
(63,-258,o),
(90,-252,o),
(106,-243,c),
(86,-156,l),
(90,-205,l),
(147,147,o),
(173,415,o),
(303,415,cs),
(356,415,o),
(381,367,o),
(381,285,cs),
(381,135,o),
(305,21,o),
(198,21,cs),
(167,21,o),
(145,28,o),
(101,47,c),
(111,11,l),
(142,-5,o),
(175,-12,o),
(209,-12,cs),
(353,-12,o),
(465,122,o),
(465,294,cs),
(465,403,o),
(419,462,o),
(336,462,cs),
(270,462,o),
(215,419,o),
(187,342,c),
(183,342,l),
(189,374,o),
(237,610,o),
(237,675,cs),
(237,713,o),
(219,734,o),
(182,734,cs),
(149,734,o),
(108,714,o),
(74,680,c),
(86,656,l),
(106,666,o),
(128,670,o),
(148,670,cs),
(157,670,o),
(179,667,o),
(181,664,c),
(166,697,l),
(165,484,o),
(13,-156,o),
(13,-222,cs),
(13,-246,o),
(17,-258,o),
(43,-258,cs)
);
}
);
width = 499.19231;
}
);
metricLeft = l;
metricRight = "=o";
unicode = 254;
},
{
color = 4;
glyphname = q;
kernLeft = o;
kernRight = q;
layers = (
{
anchors = (
{
name = bottom;
pos = (186,0);
},
{
name = top;
pos = (264,443);
}
);
background = {
shapes = (
{
closed = 1;
nodes = (
(309,-212,l),
(317,9,o),
(426,429,o),
(426,442,cs),
(426,458,o),
(419,462,o),
(407,462,c),
(391,438,l),
(333,106,o),
(296,10,o),
(191,10,cs),
(132,10,o),
(87,65,o),
(87,164,cs),
(87,338,o),
(188,444,o),
(309,444,cs),
(354,444,o),
(382,434,o),
(406,423,c),
(408,442,l),
(380,455,o),
(362,462,o),
(307,462,cs),
(164,462,o),
(55,330,o),
(55,156,cs),
(55,47,o),
(99,-12,o),
(177,-12,cs),
(243,-12,o),
(296,21,o),
(327,108,c),
(333,108,l),
(308,0,o),
(281,-156,o),
(281,-225,cs),
(281,-253,o),
(284,-268,o),
(294,-268,cs),
(302,-268,o),
(313,-263,o),
(328,-253,c),
(298,-145,l)
);
}
);
};
layerId = "E1BF09ED-4302-4AD3-9939-8FDA35DE0FE8";
shapes = (
{
closed = 1;
nodes = (
(303,-258,o),
(318,-256,o),
(329,-250,c),
(303,-156,l),
(309,-212,l),
(317,-8,o),
(424,441,o),
(424,454,cs),
(424,461,o),
(417,462,o),
(407,462,c),
(392,437,l),
(331,116,o),
(288,10,o),
(188,10,cs),
(110,10,o),
(87,100,o),
(87,163,cs),
(87,330,o),
(187,444,o),
(313,444,cs),
(354,444,o),
(387,433,o),
(406,423,c),
(408,435,l),
(380,454,o),
(348,462,o),
(309,462,cs),
(164,462,o),
(55,331,o),
(55,157,cs),
(55,48,o),
(99,-12,o),
(179,-12,cs),
(245,-12,o),
(298,36,o),
(327,123,c),
(333,123,l),
(308,3,o),
(281,-170,o),
(281,-246,cs),
(281,-254,o),
(284,-258,o),
(293,-258,cs)
);
}
);
width = 429;
},
{
anchors = (
{
name = bottom;
pos = (216,0);
},
{
name = top;
pos = (294,443);
}
);
layerId = "7B53E429-1BF0-49C5-9F57-63EEBF39C6CC";
shapes = (
{
closed = 1;
nodes = (
(335,-258,o),
(397,-248,o),
(438,-227,c),
(411,-104,l),
(419,-168,l),
(419,15,o),
(529,381,o),
(529,424,cs),
(529,456,o),
(495,462,o),
(448,462,c),
(342,410,l),
(316,174,o),
(280,97,o),
(236,97,cs),
(207,97,o),
(197,124,o),
(197,174,cs),
(197,237,o),
(224,399,o),
(310,399,cs),
(376,399,o),
(413,367,o),
(426,352,c),
(457,401,l),
(415,449,o),
(363,462,o),
(300,462,cs),
(144,462,o),
(14,331,o),
(14,157,cs),
(14,35,o),
(68,-12,o),
(151,-12,cs),
(201,-12,o),
(260,16,o),
(296,79,c),
(300,79,l),
(270,-23,o),
(238,-144,o),
(238,-209,cs),
(238,-237,o),
(252,-258,o),
(301,-258,cs)
);
}
);
width = 513;
},
{
anchors = (
{
name = bottom;
pos = (188,0);
},
{
name = top;
pos = (266,443);
}
);
layerId = "3EF2C2DE-A0EB-47A2-88E7-F2C629C295C3";
shapes = (
{
closed = 1;
nodes = (
(312,-258,o),
(338,-252,o),
(355,-243,c),
(325,-120,l),
(336,-202,l),
(337,16,o),
(450,427,o),
(450,442,cs),
(450,458,o),
(433,462,o),
(411,462,c),
(366,423,l),
(326,147,o),
(277,35,o),
(196,35,cs),
(144,35,o),
(120,81,o),
(120,164,cs),
(120,316,o),
(192,428,o),
(296,428,cs),
(369,428,o),
(401,399,o),
(417,385,c),
(420,413,l),
(384,446,o),
(343,461,o),
(289,461,cs),
(146,461,o),
(36,330,o),
(36,156,cs),
(36,47,o),
(81,-13,o),
(159,-13,cs),
(225,-13,o),
(279,31,o),
(309,111,c),
(314,111,l),
(289,1,o),
(262,-149,o),
(262,-219,cs),
(262,-244,o),
(267,-258,o),
(294,-258,cs)
);
}
);
width = 439;
}
);
metricLeft = "=o";
metricRight = "=n*.65";
unicode = 113;
},
{
color = 4;
glyphname = r;
kernLeft = n;
kernRight = r;
layers = (
{
anchors = (
{
name = bottom;
pos = (129,0);
},
{
name = top;
pos = (242,443);
}
);
guides = (
{
angle = 90;
pos = (49,0);
},
{
angle = 90;
pos = (394,0);
}
);
layerId = "E1BF09ED-4302-4AD3-9939-8FDA35DE0FE8";
shapes = (
{
closed = 1;
nodes = (
(112,-12,o),
(127,-10,o),
(138,-4,c),
(122,60,l),
(122,21,l),
(158,245,ls),
(178,366,o),
(234,435,o),
(294,435,cs),
(326,435,o),
(334,414,o),
(334,392,cs),
(334,380,o),
(332,367,o),
(329,356,c),
(349,356,o),
(367,376,o),
(367,407,cs),
(367,441,o),
(347,463,o),
(310,463,cs),
(249,463,o),
(202,407,o),
(175,348,c),
(171,348,l),
(177,383,o),
(179,398,o),
(179,426,cs),
(179,448,o),
(170,462,o),
(140,462,cs),
(119,462,o),
(96,453,o),
(72,430,c),
(76,419,l),
(94,429,o),
(113,435,o),
(135,435,cs),
(145,435,o),
(157,433,o),
(169,427,c),
(154,445,l),
(154,311,o),
(90,47,o),
(90,0,cs),
(90,-8,o),
(93,-12,o),
(102,-12,cs)
);
}
);
width = 359;
},
{
anchors = (
{
name = bottom;
pos = (185,0);
},
{
name = top;
pos = (298,443);
}
);
background = {
shapes = (
{
closed = 1;
nodes = (
(124,424,l),
(128,315,o),
(64,82,o),
(64,32,cs),
(64,10,o),
(73,-12,o),
(117,-12,cs),
(201,-12,o),
(247,11,o),
(264,20,c),
(237,142,l),
(239,38,l),
(263,179,ls),
(280,275,o),
(304,345,o),
(338,345,cs),
(354,345,o),
(363,325,o),
(363,292,cs),
(363,284,o),
(362,276,o),
(358,266,c),
(473,265,o),
(520,337,o),
(520,384,cs),
(520,441,o),
(477,462,o),
(431,462,cs),
(371,462,o),
(330,433,o),
(299,381,c),
(294,381,l),
(294,385,ls),
(294,431,o),
(265,462,o),
(205,462,cs),
(155,462,o),
(88,438,o),
(37,392,c),
(64,341,l),
(85,349,o),
(107,355,o),
(125,355,cs),
(141,355,o),
(155,352,o),
(157,351,c)
);
}
);
};
layerId = "7B53E429-1BF0-49C5-9F57-63EEBF39C6CC";
shapes = (
{
closed = 1;
nodes = (
(162,-12,o),
(224,-2,o),
(265,19,c),
(238,142,l),
(246,78,l),
(263,179,ls),
(280,275,o),
(304,345,o),
(338,345,cs),
(357,345,o),
(367,325,o),
(367,294,cs),
(367,286,o),
(367,276,o),
(365,266,c),
(473,265,o),
(520,314,o),
(520,374,cs),
(520,438,o),
(477,462,o),
(431,462,cs),
(371,462,o),
(330,432,o),
(299,377,c),
(295,377,l),
(295,380,o),
(295,382,o),
(295,385,cs),
(295,422,o),
(268,462,o),
(211,462,cs),
(163,462,o),
(90,434,o),
(33,392,c),
(59,343,l),
(95,356,o),
(129,362,o),
(158,362,cs),
(180,362,o),
(198,359,o),
(211,352,c),
(129,407,l),
(129,306,o),
(65,96,o),
(65,37,cs),
(65,9,o),
(79,-12,o),
(128,-12,cs)
);
}
);
width = 500;
},
{
anchors = (
{
name = bottom;
pos = (126,0);
},
{
name = top;
pos = (239,443);
}
);
layerId = "3EF2C2DE-A0EB-47A2-88E7-F2C629C295C3";
shapes = (
{
closed = 1;
nodes = (
(124,-12,o),
(151,-6,o),
(169,3,c),
(149,90,l),
(152,38,l),
(178,205,ls),
(197,326,o),
(235,397,o),
(282,397,cs),
(307,397,o),
(319,379,o),
(319,353,cs),
(319,345,o),
(318,337,o),
(316,328,c),
(362,327,o),
(390,353,o),
(390,397,cs),
(390,438,o),
(366,462,o),
(325,462,cs),
(271,462,o),
(230,424,o),
(209,362,c),
(205,362,l),
(208,378,o),
(208,391,o),
(208,403,cs),
(208,442,o),
(191,462,o),
(152,462,cs),
(122,462,o),
(79,442,o),
(46,408,c),
(58,384,l),
(80,394,o),
(102,398,o),
(121,398,cs),
(136,398,o),
(152,394,o),
(153,392,c),
(137,426,l),
(142,299,o),
(73,58,o),
(73,12,cs),
(73,-4,o),
(79,-12,o),
(97,-12,cs)
);
}
);
width = 371.15385;
}
);
metricLeft = n;
metricRight = "=n*0.5";
unicode = 114;
},
{
color = 4;
glyphname = s;
kernLeft = s;
kernRight = s;
layers = (
{
anchors = (
{
name = bottom;
pos = (172,0);
},
{
name = top;
pos = (250,443);
}
);
guides = (
{
angle = 90;
pos = (31,0);
},
{
angle = 90;
pos = (382,0);
}
);
layerId = "E1BF09ED-4302-4AD3-9939-8FDA35DE0FE8";
shapes = (
{
closed = 1;
nodes = (
(266,-12,o),
(330,40,o),
(330,107,cs),
(330,218,o),
(126,241,o),
(126,358,cs),
(126,411,o),
(171,447,o),
(242,447,cs),
(294,447,o),
(329,420,o),
(329,369,cs),
(329,351,o),
(325,336,o),
(321,325,c),
(328,322,o),
(334,322,o),
(337,322,cs),
(359,322,o),
(363,353,o),
(363,369,cs),
(363,426,o),
(314,462,o),
(246,462,cs),
(161,462,o),
(99,409,o),
(99,340,cs),
(99,225,o),
(307,202,o),
(303,92,cs),
(301,39,o),
(259,3,o),
(181,3,cs),
(130,3,o),
(84,35,o),
(84,91,cs),
(84,109,o),
(88,124,o),
(92,135,c),
(85,138,o),
(79,138,o),
(76,138,cs),
(54,138,o),
(50,107,o),
(50,91,cs),
(50,29,o),
(110,-12,o),
(177,-12,cs)
);
}
);
width = 417;
},
{
anchors = (
{
name = bottom;
pos = (194,0);
},
{
name = top;
pos = (272,443);
}
);
guides = (
{
angle = 90;
pos = (53,0);
},
{
angle = 90;
pos = (404,0);
}
);
layerId = "7B53E429-1BF0-49C5-9F57-63EEBF39C6CC";
shapes = (
{
closed = 1;
nodes = (
(317,-12,o),
(421,50,o),
(421,139,cs),
(421,263,o),
(217,292,o),
(217,361,cs),
(217,382,o),
(235,399,o),
(258,399,cs),
(293,399,o),
(310,374,o),
(310,326,cs),
(310,314,o),
(309,305,o),
(307,296,c),
(331,289,o),
(349,286,o),
(368,286,cs),
(425,286,o),
(454,309,o),
(454,353,cs),
(454,419,o),
(384,462,o),
(277,462,cs),
(148,462,o),
(51,397,o),
(51,309,cs),
(51,181,o),
(255,158,o),
(255,93,cs),
(255,72,o),
(236,52,o),
(207,52,cs),
(167,52,o),
(148,79,o),
(148,127,cs),
(148,135,o),
(149,145,o),
(151,154,c),
(141,161,o),
(124,165,o),
(102,165,cs),
(37,165,o),
(3,133,o),
(3,92,cs),
(3,30,o),
(78,-12,o),
(186,-12,cs)
);
}
);
width = 458;
},
{
anchors = (
{
name = bottom;
pos = (168,0);
},
{
name = top;
pos = (246,443);
}
);
layerId = "3EF2C2DE-A0EB-47A2-88E7-F2C629C295C3";
shapes = (
{
closed = 1;
nodes = (
(267,-12,o),
(344,45,o),
(344,119,cs),
(344,232,o),
(149,260,o),
(149,357,cs),
(149,399,o),
(183,430,o),
(229,430,cs),
(276,430,o),
(302,399,o),
(302,342,cs),
(302,331,o),
(300,319,o),
(298,308,c),
(310,303,o),
(320,303,o),
(329,303,cs),
(360,303,o),
(377,323,o),
(377,357,cs),
(377,430,o),
(312,462,o),
(243,462,cs),
(149,462,o),
(75,405,o),
(75,328,cs),
(75,207,o),
(271,190,o),
(270,94,cs),
(270,51,o),
(235,20,o),
(184,20,cs),
(132,20,o),
(102,52,o),
(102,109,cs),
(102,121,o),
(103,132,o),
(105,143,c),
(96,148,o),
(87,150,o),
(78,150,cs),
(43,150,o),
(27,121,o),
(27,90,cs),
(27,29,o),
(86,-12,o),
(169,-12,cs)
);
}
);
width = 408.96154;
}
);
metricLeft = "=o*1.15";
metricRight = "=o*1.15";
unicode = 115;
},
{
color = 4;
glyphname = germandbls;
kernLeft = f;
kernRight = s;
layers = (
{
layerId = "E1BF09ED-4302-4AD3-9939-8FDA35DE0FE8";
shapes = (
{
closed = 1;
nodes = (
(465,-12,o),
(537,42,o),
(549,121,cs),
(562,203,o),
(499,233,o),
(440,260,cs),
(392,282,o),
(348,303,o),
(358,364,cs),
(376,479,o),
(537,437,o),
(561,590,cs),
(574,671,o),
(519,734,o),
(430,734,cs),
(315,734,o),
(215,638,o),
(184,437,c),
(193,445,l),
(117,443,l),
(109,437,o),
(106,432,o),
(105,421,c),
(188,420,l),
(182,427,l),
(118,22,l),
(130,34,l),
(75,20,ls),
(64,17,o),
(59,12,o),
(57,0,c),
(145,0,l),
(218,468,ls),
(247,652,o),
(315,711,o),
(419,711,cs),
(494,711,o),
(538,662,o),
(525,580,cs),
(504,446,o),
(343,471,o),
(324,351,cs),
(314,286,o),
(366,253,o),
(418,230,cs),
(472,206,o),
(527,184,o),
(514,106,cs),
(504,40,o),
(457,4,o),
(393,4,cs),
(327,4,o),
(298,43,o),
(309,116,c),
(306,124,o),
(299,128,o),
(292,128,cs),
(281,128,o),
(269,119,o),
(265,94,cs),
(256,37,o),
(304,-12,o),
(383,-12,cs)
);
}
);
width = 633;
},
{
background = {
shapes = (
{
closed = 0;
nodes = (
(399,723,ls)
);
}
);
};
layerId = "7B53E429-1BF0-49C5-9F57-63EEBF39C6CC";
shapes = (
{
closed = 1;
nodes = (
(567,-12,o),
(657,46,o),
(673,144,cs),
(689,245,o),
(608,276,o),
(542,301,cs),
(492,320,o),
(447,333,o),
(453,367,cs),
(464,442,o),
(627,431,o),
(650,575,cs),
(663,656,o),
(610,734,o),
(458,734,cs),
(287,734,o),
(151,594,o),
(123,418,c),
(159,446,l),
(90,442,l),
(76,433,o),
(63,395,o),
(57,362,c),
(139,359,l),
(118,385,l),
(70,80,l),
(82,97,l),
(25,69,ls),
(14,64,o),
(6,42,o),
(-1,0,c),
(226,0,l),
(296,442,ls),
(316,567,o),
(339,658,o),
(429,658,cs),
(481,658,o),
(502,619,o),
(492,557,cs),
(472,432,o),
(327,433,o),
(308,313,cs),
(292,212,o),
(369,182,o),
(433,157,cs),
(481,138,o),
(524,125,o),
(519,91,cs),
(515,66,o),
(489,49,o),
(460,49,cs),
(413,49,o),
(399,78,o),
(410,144,c),
(396,156,o),
(372,164,o),
(349,164,cs),
(305,164,o),
(271,137,o),
(265,97,cs),
(254,32,o),
(326,-12,o),
(432,-12,cs)
);
}
);
width = 708;
},
{
layerId = "3EF2C2DE-A0EB-47A2-88E7-F2C629C295C3";
shapes = (
{
closed = 1;
nodes = (
(498,-12,o),
(576,43,o),
(589,129,cs),
(603,216,o),
(535,247,o),
(473,273,cs),
(425,294,o),
(380,313,o),
(389,365,cs),
(406,467,o),
(566,435,o),
(589,586,cs),
(602,667,o),
(549,734,o),
(439,734,cs),
(306,734,o),
(194,624,o),
(164,431,c),
(182,445,l),
(108,443,l),
(98,436,o),
(92,420,o),
(90,401,c),
(172,400,l),
(161,414,l),
(103,42,l),
(115,54,l),
(59,36,ls),
(48,32,o),
(42,22,o),
(38,0,c),
(171,0,l),
(243,459,ls),
(269,624,o),
(323,694,o),
(422,694,cs),
(490,694,o),
(526,648,o),
(514,572,cs),
(493,442,o),
(339,459,o),
(320,339,cs),
(307,262,o),
(367,230,o),
(422,206,cs),
(475,184,o),
(526,164,o),
(516,102,cs),
(508,49,o),
(468,18,o),
(415,18,cs),
(355,18,o),
(331,55,o),
(342,125,c),
(335,135,o),
(323,140,o),
(311,140,cs),
(289,140,o),
(270,125,o),
(265,95,cs),
(255,35,o),
(311,-12,o),
(399,-12,cs)
);
}
);
width = 651;
}
);
metricLeft = H;
metricRight = s;
unicode = 223;
},
{
color = 4;
glyphname = t;
kernLeft = t;
kernRight = t;
layers = (
{
anchors = (
{
name = bottom;
pos = (126,0);
},
{
name = center;
pos = (132,222);
},
{
name = top;
pos = (178,496);
},
{
name = topright;
pos = (249,500);
}
);
guides = (
{
pos = (6,437);
}
);
layerId = "E1BF09ED-4302-4AD3-9939-8FDA35DE0FE8";
shapes = (
{
closed = 1;
nodes = (
(183,-12,o),
(230,16,o),
(268,62,c),
(259,73,l),
(228,38,o),
(188,17,o),
(155,17,cs),
(129,17,o),
(118,32,o),
(118,67,cs),
(118,108,o),
(172,413,o),
(198,569,c),
(185,566,o),
(178,561,o),
(167,550,c),
(139,382,o),
(90,105,o),
(90,61,cs),
(90,14,o),
(109,-12,o),
(143,-12,cs)
);
},
{
closed = 1;
nodes = (
(301,421,o),
(308,439,o),
(308,449,c),
(79,438,l),
(76,436,o),
(72,430,o),
(71,423,c),
(292,418,l)
);
}
);
width = 311;
},
{
anchors = (
{
name = bottom;
pos = (153,0);
},
{
name = center;
pos = (185,222);
},
{
name = top;
pos = (205,496);
},
{
name = topright;
pos = (321,500);
}
);
guides = (
{
pos = (3,437);
}
);
layerId = "7B53E429-1BF0-49C5-9F57-63EEBF39C6CC";
shapes = (
{
closed = 1;
nodes = (
(243,-12,o),
(306,21,o),
(356,82,c),
(329,132,l),
(302,113,o),
(283,105,o),
(261,105,cs),
(237,105,o),
(226,117,o),
(226,142,cs),
(226,158,o),
(250,300,o),
(298,568,c),
(219,563,o),
(166,542,o),
(110,493,c),
(57,198,o),
(47,137,o),
(47,112,cs),
(47,32,o),
(92,-12,o),
(176,-12,cs)
);
},
{
closed = 1;
nodes = (
(383,345,o),
(405,412,o),
(405,449,c),
(81,437,l),
(55,426,o),
(31,388,o),
(25,343,c),
(344,334,l)
);
}
);
width = 381;
},
{
anchors = (
{
name = bottom;
pos = (119,0);
},
{
name = center;
pos = (148,222);
},
{
name = top;
pos = (171,496);
},
{
name = topright;
pos = (269,500);
}
);
layerId = "3EF2C2DE-A0EB-47A2-88E7-F2C629C295C3";
shapes = (
{
closed = 1;
nodes = (
(181,-12,o),
(248,22,o),
(282,63,c),
(269,86,l),
(240,60,o),
(201,43,o),
(172,43,cs),
(147,43,o),
(135,55,o),
(135,82,cs),
(135,96,o),
(154,209,o),
(216,569,c),
(182,566,o),
(159,555,o),
(136,530,c),
(78,202,o),
(60,102,o),
(60,72,cs),
(60,16,o),
(84,-12,o),
(133,-12,cs)
);
},
{
closed = 1;
nodes = (
(309,389,o),
(322,429,o),
(322,452,c),
(69,436,l),
(57,432,o),
(46,414,o),
(43,394,c),
(286,383,l)
);
}
);
width = 313.69231;
}
);
metricLeft = n;
metricRight = "=n*.45";
unicode = 116;
},
{
color = 4;
glyphname = u;
kernLeft = u;
kernRight = u;
layers = (
{
anchors = (
{
name = bottom;
pos = (211,0);
},
{
name = ogonek;
pos = (429,9);
},
{
name = top;
pos = (289,443);
},
{
name = topright;
pos = (403,462);
}
);
background = {
shapes = (
{
closed = 1;
nodes = (
(156,430,l),
(156,352,o),
(88,187,o),
(88,89,cs),
(88,31,o),
(122,-12,o),
(189,-12,cs),
(237,-12,o),
(307,31,o),
(351,97,c),
(356,97,l),
(361,129,l),
(314,63,o),
(254,12,o),
(194,12,cs),
(139,12,o),
(114,50,o),
(114,91,cs),
(114,172,o),
(179,362,o),
(179,403,cs),
(179,430,o),
(174,462,o),
(143,462,cs),
(125,462,o),
(104,455,o),
(76,425,c),
(81,414,l),
(96,424,o),
(115,429,o),
(128,429,cs),
(145,429,o),
(152,428,o),
(159,425,c)
);
}
);
};
layerId = "E1BF09ED-4302-4AD3-9939-8FDA35DE0FE8";
shapes = (
{
closed = 1;
nodes = (
(241,-12,o),
(304,30,o),
(348,94,c),
(353,94,l),
(362,129,l),
(296,45,o),
(249,12,o),
(194,12,cs),
(138,12,o),
(114,37,o),
(114,96,cs),
(114,224,o),
(179,353,o),
(179,422,cs),
(179,449,o),
(168,462,o),
(132,462,cs),
(111,462,o),
(88,453,o),
(64,430,c),
(68,419,l),
(86,429,o),
(105,435,o),
(127,435,cs),
(137,435,o),
(149,433,o),
(161,427,c),
(155,442,l),
(155,356,o),
(87,229,o),
(87,94,cs),
(87,26,o),
(118,-12,o),
(189,-12,cs)
);
},
{
closed = 1;
nodes = (
(398,-12,o),
(416,-9,o),
(450,25,c),
(445,36,l),
(428,25,o),
(415,19,o),
(397,19,cs),
(380,19,o),
(374,27,o),
(374,47,cs),
(374,135,o),
(447,388,o),
(447,426,cs),
(447,448,o),
(437,462,o),
(403,462,cs),
(382,462,o),
(359,453,o),
(335,430,c),
(339,419,l),
(357,429,o),
(376,435,o),
(398,435,cs),
(408,435,o),
(420,433,o),
(432,427,c),
(426,442,l),
(399,302,o),
(345,88,o),
(345,44,cs),
(345,6,o),
(360,-12,o),
(380,-12,cs)
);
}
);
width = 500;
},
{
anchors = (
{
name = bottom;
pos = (271,0);
},
{
name = ogonek;
pos = (489,9);
},
{
name = top;
pos = (349,443);
},
{
name = topright;
pos = (476,462);
}
);
background = {
shapes = (
{
closed = 1;
nodes = (
(472,-12,o),
(546,20,o),
(583,58,c),
(553,110,l),
(542,104,o),
(528,100,o),
(519,100,cs),
(505,100,o),
(499,108,o),
(499,126,cs),
(499,154,o),
(560,328,o),
(560,385,cs),
(560,422,o),
(533,462,o),
(476,462,cs),
(434,462,o),
(367,440,o),
(316,404,c),
(342,355,l),
(372,359,o),
(400,362,o),
(423,362,cs),
(445,362,o),
(463,359,o),
(476,352,c),
(394,407,l),
(370,274,o),
(327,126,o),
(327,82,cs),
(327,23,o),
(360,-12,o),
(420,-12,cs)
);
},
{
closed = 1;
nodes = (
(95,-258,o),
(157,-248,o),
(198,-227,c),
(171,-104,l),
(179,-168,l),
(221,118,o),
(248,353,o),
(318,353,cs),
(347,353,o),
(357,326,o),
(357,276,cs),
(357,213,o),
(330,51,o),
(244,51,cs),
(178,51,o),
(141,83,o),
(128,98,c),
(97,49,l),
(139,1,o),
(191,-12,o),
(254,-12,cs),
(410,-12,o),
(540,119,o),
(540,293,cs),
(540,415,o),
(486,462,o),
(403,462,cs),
(353,462,o),
(294,434,o),
(258,371,c),
(254,371,l),
(254,376,o),
(254,380,o),
(254,385,cs),
(254,422,o),
(227,462,o),
(170,462,cs),
(122,462,o),
(49,434,o),
(-8,392,c),
(18,343,l),
(54,356,o),
(88,362,o),
(117,362,cs),
(139,362,o),
(157,359,o),
(170,352,c),
(88,407,l),
(88,268,o),
(-2,-164,o),
(-2,-209,cs),
(-2,-237,o),
(12,-258,o),
(61,-258,cs)
);
}
);
};
guides = (
{
angle = 117.951;
pos = (316,404);
}
);
layerId = "7B53E429-1BF0-49C5-9F57-63EEBF39C6CC";
shapes = (
{
closed = 1;
nodes = (
(218,-12,o),
(274,18,o),
(323,73,c),
(358,73,l),
(345,145,l),
(315,110,o),
(287,98,o),
(269,98,cs),
(258,98,o),
(248,103,o),
(248,133,cs),
(248,202,o),
(294,310,o),
(294,385,cs),
(294,422,o),
(267,462,o),
(210,462,cs),
(162,462,o),
(89,434,o),
(32,392,c),
(58,343,l),
(94,356,o),
(128,362,o),
(157,362,cs),
(179,362,o),
(197,359,o),
(210,352,c),
(128,407,l),
(128,358,o),
(71,212,o),
(71,105,cs),
(71,45,o),
(99,-12,o),
(168,-12,cs)
);
},
{
closed = 1;
nodes = (
(472,-12,o),
(546,20,o),
(583,58,c),
(553,110,l),
(542,104,o),
(528,100,o),
(519,100,cs),
(505,100,o),
(499,108,o),
(499,126,cs),
(499,154,o),
(560,328,o),
(560,385,cs),
(560,422,o),
(533,462,o),
(476,462,cs),
(434,462,o),
(367,440,o),
(316,404,c),
(342,355,l),
(372,359,o),
(400,362,o),
(423,362,cs),
(445,362,o),
(463,359,o),
(476,352,c),
(394,407,l),
(370,274,o),
(327,126,o),
(327,82,cs),
(327,23,o),
(360,-12,o),
(420,-12,cs)
);
}
);
width = 612;
},
{
anchors = (
{
name = bottom;
pos = (227,0);
},
{
name = ogonek;
pos = (445,9);
},
{
name = top;
pos = (305,443);
},
{
name = topright;
pos = (414,462);
}
);
layerId = "3EF2C2DE-A0EB-47A2-88E7-F2C629C295C3";
shapes = (
{
closed = 1;
nodes = (
(227,-12,o),
(283,26,o),
(332,87,c),
(357,87,l),
(343,124,l),
(293,72,o),
(246,44,o),
(200,44,cs),
(161,44,o),
(144,63,o),
(144,100,cs),
(144,163,o),
(207,339,o),
(207,403,cs),
(207,442,o),
(189,462,o),
(148,462,cs),
(118,462,o),
(77,442,o),
(43,408,c),
(55,384,l),
(76,394,o),
(98,398,o),
(118,398,cs),
(133,398,o),
(143,396,o),
(150,392,c),
(137,420,l),
(137,357,o),
(70,176,o),
(70,98,cs),
(70,33,o),
(103,-12,o),
(177,-12,cs)
);
},
{
closed = 1;
nodes = (
(414,-12,o),
(456,8,o),
(490,43,c),
(477,66,l),
(460,55,o),
(444,49,o),
(431,49,cs),
(416,49,o),
(409,56,o),
(409,74,cs),
(409,133,o),
(472,340,o),
(472,403,cs),
(472,442,o),
(454,462,o),
(414,462,cs),
(384,462,o),
(342,442,o),
(309,409,c),
(322,385,l),
(342,394,o),
(364,398,o),
(383,398,cs),
(399,398,o),
(409,396,o),
(416,392,c),
(402,420,l),
(398,339,o),
(333,128,o),
(333,54,cs),
(333,11,o),
(350,-12,o),
(384,-12,cs)
);
}
);
width = 527.15385;
}
);
metricLeft = "=n*.80";
metricRight = l;
unicode = 117;
},
{
color = 4;
glyphname = v;
kernLeft = v;
kernRight = v;
layers = (
{
anchors = (
{
name = bottom;
pos = (131,0);
},
{
name = top;
pos = (209,443);
}
);
background = {
shapes = (
{
closed = 1;
nodes = (
(163,-12,o),
(192,31,o),
(287,219,cs),
(340,324,o),
(376,427,o),
(376,450,cs),
(376,458,o),
(373,462,o),
(364,462,cs),
(354,462,o),
(339,460,o),
(328,454,c),
(344,390,l),
(344,423,l),
(310,303,o),
(210,80,o),
(140,-10,c),
(155,-5,l),
(141,124,o),
(117,290,o),
(90,423,cs),
(84,453,o),
(71,462,o),
(42,462,cs),
(24,462,o),
(4,454,o),
(-17,435,c),
(-13,424,l),
(2,431,o),
(18,435,o),
(37,435,cs),
(47,435,o),
(59,433,o),
(71,427,c),
(56,447,l),
(86,313,o),
(115,137,o),
(129,-9,c),
(134,-11,o),
(141,-12,o),
(147,-12,cs)
);
}
);
};
layerId = "E1BF09ED-4302-4AD3-9939-8FDA35DE0FE8";
shapes = (
{
closed = 1;
nodes = (
(165,-12,o),
(193,33,o),
(287,219,cs),
(332,309,o),
(376,422,o),
(376,450,cs),
(376,459,o),
(373,462,o),
(364,462,cs),
(351,462,o),
(337,459,o),
(328,454,c),
(344,390,l),
(344,423,l),
(306,290,o),
(204,72,o),
(140,-10,c),
(155,-5,l),
(139,138,o),
(115,302,o),
(90,423,cs),
(84,452,o),
(72,462,o),
(42,462,cs),
(23,462,o),
(3,453,o),
(-17,435,c),
(-13,424,l),
(3,431,o),
(19,435,o),
(37,435,cs),
(49,435,o),
(61,432,o),
(71,427,c),
(56,447,l),
(88,306,o),
(116,131,o),
(129,-8,c),
(134,-11,o),
(138,-12,o),
(144,-12,cs)
);
}
);
width = 370;
},
{
anchors = (
{
name = bottom;
pos = (216,0);
},
{
name = top;
pos = (294,443);
}
);
background = {
shapes = (
{
closed = 0;
nodes = (
(261,385,l),
(261,422,o),
(234,462,o),
(177,462,cs),
(132,462,o),
(64,436,o),
(11,396,c),
(37,347,l),
(69,358,o),
(99,362,o),
(124,362,cs),
(146,362,o),
(164,359,o),
(177,352,c),
(76,418,l),
(110,292,o),
(136,147,o),
(153,11,c),
(179,-2,o),
(217,-12,o),
(246,-12,cs),
(323,-12,o),
(350,14,o),
(443,211,cs),
(490,310,o),
(534,391,o),
(534,413,cs),
(534,441,o),
(520,462,o),
(471,462,cs),
(437,462,o),
(375,452,o),
(334,431,c),
(375,244,l),
(405,373,l),
(367,256,o),
(325,155,o),
(263,46,c),
(316,46,l),
(301,169,o),
(283,278,o),
(258,401,cs)
);
}
);
};
layerId = "7B53E429-1BF0-49C5-9F57-63EEBF39C6CC";
shapes = (
{
closed = 1;
nodes = (
(322,-12,o),
(345,14,o),
(443,211,cs),
(523,372,o),
(534,397,o),
(534,413,cs),
(534,446,o),
(514,462,o),
(471,462,cs),
(428,462,o),
(368,448,o),
(334,431,c),
(375,244,l),
(405,373,l),
(364,248,o),
(321,148,o),
(263,46,c),
(316,46,l),
(302,160,o),
(286,267,o),
(265,369,cs),
(253,442,o),
(233,462,o),
(177,462,cs),
(131,462,o),
(63,435,o),
(11,396,c),
(37,347,l),
(66,357,o),
(96,362,o),
(124,362,cs),
(147,362,o),
(165,359,o),
(177,352,c),
(76,418,l),
(108,301,o),
(135,158,o),
(153,11,c),
(180,-3,o),
(218,-12,o),
(246,-12,cs)
);
}
);
width = 514;
},
{
anchors = (
{
name = bottom;
pos = (161,0);
},
{
name = top;
pos = (239,443);
}
);
layerId = "3EF2C2DE-A0EB-47A2-88E7-F2C629C295C3";
shapes = (
{
closed = 1;
nodes = (
(216,-12,o),
(250,28,o),
(342,219,cs),
(392,322,o),
(432,417,o),
(432,433,cs),
(432,457,o),
(417,462,o),
(391,462,cs),
(375,462,o),
(356,459,o),
(340,449,c),
(350,332,l),
(353,379,l),
(320,266,o),
(266,145,o),
(204,39,c),
(215,40,l),
(200,165,o),
(180,291,o),
(155,413,cs),
(149,446,o),
(138,462,o),
(99,462,cs),
(69,462,o),
(27,442,o),
(-5,409,c),
(6,385,l),
(28,394,o),
(49,398,o),
(67,398,cs),
(84,398,o),
(94,396,o),
(100,392,c),
(73,421,l),
(108,289,o),
(135,136,o),
(151,-4,c),
(160,-9,o),
(171,-12,o),
(180,-12,cs)
);
}
);
width = 419.53846;
}
);
metricLeft = "=o*-.85";
metricRight = "=o*.5";
unicode = 118;
},
